STARTFONT 2.1
COMMENT
COMMENT Converted from OpenType font "RobotoMono-Regular.ttf" by "otf2bdf 3.0".
COMMENT
FONT -FreeType-Roboto Mono-Medium-R-Normal--17-120-100-100-P-83-ISO10646-1
SIZE 12 100 100
FONTBOUNDINGBOX 21 22 -8 -4
STARTPROPERTIES 19
FOUNDRY "FreeType"
FAMILY_NAME "Roboto Mono"
WEIGHT_NAME "Medium"
SLANT "R"
SETWIDTH_NAME "Normal"
ADD_STYLE_NAME ""
PIXEL_SIZE 17
POINT_SIZE 120
RESOLUTION_X 100
RESOLUTION_Y 100
SPACING "P"
AVERAGE_WIDTH 83
CHARSET_REGISTRY "ISO10646"
CHARSET_ENCODING "1"
FONT_ASCENT 17
FONT_DESCENT 4
COPYRIGHT "Copyright 2015 The Roboto Mono Project Authors (https://github.com/googlefonts/robotomono)"
_OTF_FONTFILE "RobotoMono-Regular.ttf"
_OTF_PSNAME "RobotoMono-Regular"
ENDPROPERTIES
CHARS 876
STARTCHAR 000D
ENCODING 13
SWIDTH 600 0
DWIDTH 10 0
BBX 0 0 0 0
BITMAP
ENDCHAR
STARTCHAR 0020
ENCODING 32
SWIDTH 600 0
DWIDTH 10 0
BBX 0 0 0 0
BITMAP
ENDCHAR
STARTCHAR 0021
ENCODING 33
SWIDTH 600 0
DWIDTH 10 0
BBX 2 12 4 0
BITMAP
C0
C0
C0
C0
C0
C0
C0
C0
00
00
C0
C0
ENDCHAR
STARTCHAR 0022
ENCODING 34
SWIDTH 600 0
DWIDTH 10 0
BBX 4 4 3 9
BITMAP
90
90
90
90
ENDCHAR
STARTCHAR 0023
ENCODING 35
SWIDTH 600 0
DWIDTH 10 0
BBX 9 12 1 0
BITMAP
1300
1200
1200
FF80
FF80
2600
2400
FF00
FF00
4400
4C00
4800
ENDCHAR
STARTCHAR 0024
ENCODING 36
SWIDTH 600 0
DWIDTH 10 0
BBX 8 16 1 -2
BITMAP
08
08
3E
63
43
43
60
38
0E
03
C3
C3
63
3E
08
08
ENDCHAR
STARTCHAR 0025
ENCODING 37
SWIDTH 600 0
DWIDTH 10 0
BBX 10 12 0 0
BITMAP
7000
C900
CB00
CA00
7600
0400
0800
0B80
1640
3640
0640
0380
ENDCHAR
STARTCHAR 0026
ENCODING 38
SWIDTH 600 0
DWIDTH 10 0
BBX 9 12 1 0
BITMAP
3C00
6400
4600
6400
7800
3000
7980
C980
8D00
8700
C700
7D80
ENDCHAR
STARTCHAR 0027
ENCODING 39
SWIDTH 600 0
DWIDTH 10 0
BBX 1 4 4 9
BITMAP
80
80
80
80
ENDCHAR
STARTCHAR 0028
ENCODING 40
SWIDTH 600 0
DWIDTH 10 0
BBX 4 18 3 -4
BITMAP
10
10
20
60
40
C0
C0
C0
C0
C0
C0
C0
C0
40
60
20
30
10
ENDCHAR
STARTCHAR 0029
ENCODING 41
SWIDTH 600 0
DWIDTH 10 0
BBX 4 18 3 -4
BITMAP
80
80
40
60
20
30
30
30
30
30
30
30
30
20
60
40
C0
80
ENDCHAR
STARTCHAR 002A
ENCODING 42
SWIDTH 600 0
DWIDTH 10 0
BBX 8 8 1 4
BITMAP
08
08
49
FF
18
14
26
62
ENDCHAR
STARTCHAR 002B
ENCODING 43
SWIDTH 600 0
DWIDTH 10 0
BBX 8 9 1 1
BITMAP
18
18
18
18
FF
18
18
18
18
ENDCHAR
STARTCHAR 002C
ENCODING 44
SWIDTH 600 0
DWIDTH 10 0
BBX 2 5 3 -3
BITMAP
40
40
40
C0
80
ENDCHAR
STARTCHAR 002D
ENCODING 45
SWIDTH 600 0
DWIDTH 10 0
BBX 6 1 2 5
BITMAP
FC
ENDCHAR
STARTCHAR 002E
ENCODING 46
SWIDTH 600 0
DWIDTH 10 0
BBX 3 2 4 0
BITMAP
E0
C0
ENDCHAR
STARTCHAR 002F
ENCODING 47
SWIDTH 600 0
DWIDTH 10 0
BBX 7 13 2 -1
BITMAP
06
04
0C
08
18
10
10
30
20
60
40
40
C0
ENDCHAR
STARTCHAR 0030
ENCODING 48
SWIDTH 600 0
DWIDTH 10 0
BBX 8 12 1 0
BITMAP
3E
62
C3
C3
C7
CF
F3
E3
C3
C3
62
3C
ENDCHAR
STARTCHAR 0031
ENCODING 49
SWIDTH 600 0
DWIDTH 10 0
BBX 4 12 2 0
BITMAP
10
F0
90
10
10
10
10
10
10
10
10
10
ENDCHAR
STARTCHAR 0032
ENCODING 50
SWIDTH 600 0
DWIDTH 10 0
BBX 8 12 1 0
BITMAP
7C
C6
82
02
06
04
0C
18
30
60
C0
FF
ENDCHAR
STARTCHAR 0033
ENCODING 51
SWIDTH 600 0
DWIDTH 10 0
BBX 7 12 1 0
BITMAP
7C
C6
82
02
06
3C
0E
02
02
82
C6
7C
ENDCHAR
STARTCHAR 0034
ENCODING 52
SWIDTH 600 0
DWIDTH 10 0
BBX 8 12 1 0
BITMAP
06
0E
1E
16
36
66
46
C6
FF
06
06
06
ENDCHAR
STARTCHAR 0035
ENCODING 53
SWIDTH 600 0
DWIDTH 10 0
BBX 7 12 2 0
BITMAP
7E
C0
C0
C0
F8
FC
06
02
02
86
C6
7C
ENDCHAR
STARTCHAR 0036
ENCODING 54
SWIDTH 600 0
DWIDTH 10 0
BBX 8 12 1 0
BITMAP
1C
30
60
40
DC
E6
C3
C3
C3
43
66
3C
ENDCHAR
STARTCHAR 0037
ENCODING 55
SWIDTH 600 0
DWIDTH 10 0
BBX 8 12 1 0
BITMAP
FF
03
02
06
04
04
0C
08
18
10
30
60
ENDCHAR
STARTCHAR 0038
ENCODING 56
SWIDTH 600 0
DWIDTH 10 0
BBX 8 12 1 0
BITMAP
3E
63
43
43
63
3E
76
43
C1
41
63
3E
ENDCHAR
STARTCHAR 0039
ENCODING 57
SWIDTH 600 0
DWIDTH 10 0
BBX 8 12 1 0
BITMAP
3C
66
C3
C3
C3
C3
67
3B
02
06
0C
38
ENDCHAR
STARTCHAR 003A
ENCODING 58
SWIDTH 600 0
DWIDTH 10 0
BBX 3 9 4 0
BITMAP
E0
C0
00
00
00
00
00
E0
C0
ENDCHAR
STARTCHAR 003B
ENCODING 59
SWIDTH 600 0
DWIDTH 10 0
BBX 3 12 4 -3
BITMAP
E0
C0
00
00
00
00
00
40
40
40
C0
80
ENDCHAR
STARTCHAR 003C
ENCODING 60
SWIDTH 600 0
DWIDTH 10 0
BBX 7 7 1 2
BITMAP
02
0E
38
C0
70
1E
06
ENDCHAR
STARTCHAR 003D
ENCODING 61
SWIDTH 600 0
DWIDTH 10 0
BBX 8 5 1 3
BITMAP
FF
FF
00
00
FF
ENDCHAR
STARTCHAR 003E
ENCODING 62
SWIDTH 600 0
DWIDTH 10 0
BBX 8 7 1 2
BITMAP
C0
70
1E
03
0E
78
C0
ENDCHAR
STARTCHAR 003F
ENCODING 63
SWIDTH 600 0
DWIDTH 10 0
BBX 7 12 2 0
BITMAP
7C
C4
86
06
04
0C
18
30
30
00
30
30
ENDCHAR
STARTCHAR 0040
ENCODING 64
SWIDTH 600 0
DWIDTH 10 0
BBX 9 12 1 0
BITMAP
3E00
6300
4900
9500
A480
A480
A480
A500
BF00
8000
4400
3C00
ENDCHAR
STARTCHAR 0041
ENCODING 65
SWIDTH 600 0
DWIDTH 10 0
BBX 9 12 1 0
BITMAP
1800
1800
1C00
3400
3400
2600
6600
6200
7F00
C300
C100
8180
ENDCHAR
STARTCHAR 0042
ENCODING 66
SWIDTH 600 0
DWIDTH 10 0
BBX 8 12 1 0
BITMAP
FC
C7
C3
C3
C3
FC
C7
C1
C1
C1
C7
FC
ENDCHAR
STARTCHAR 0043
ENCODING 67
SWIDTH 600 0
DWIDTH 10 0
BBX 8 12 1 0
BITMAP
3E
63
C3
C1
80
80
80
80
C1
C3
63
3E
ENDCHAR
STARTCHAR 0044
ENCODING 68
SWIDTH 600 0
DWIDTH 10 0
BBX 8 12 1 0
BITMAP
FC
C6
C3
C1
C1
C1
C1
C1
C1
C3
C6
FC
ENDCHAR
STARTCHAR 0045
ENCODING 69
SWIDTH 600 0
DWIDTH 10 0
BBX 7 12 2 0
BITMAP
FE
80
80
80
80
FC
80
80
80
80
80
FE
ENDCHAR
STARTCHAR 0046
ENCODING 70
SWIDTH 600 0
DWIDTH 10 0
BBX 7 12 2 0
BITMAP
FE
80
80
80
80
FC
FC
80
80
80
80
80
ENDCHAR
STARTCHAR 0047
ENCODING 71
SWIDTH 600 0
DWIDTH 10 0
BBX 8 12 1 0
BITMAP
3E
63
C3
C0
80
80
8F
81
C1
C1
63
3E
ENDCHAR
STARTCHAR 0048
ENCODING 72
SWIDTH 600 0
DWIDTH 10 0
BBX 8 12 1 0
BITMAP
C1
C1
C1
C1
C1
FF
C1
C1
C1
C1
C1
C1
ENDCHAR
STARTCHAR 0049
ENCODING 73
SWIDTH 600 0
DWIDTH 10 0
BBX 8 12 1 0
BITMAP
FF
18
18
18
18
18
18
18
18
18
18
FF
ENDCHAR
STARTCHAR 004A
ENCODING 74
SWIDTH 600 0
DWIDTH 10 0
BBX 8 12 1 0
BITMAP
03
03
03
03
03
03
03
03
83
C3
C6
7C
ENDCHAR
STARTCHAR 004B
ENCODING 75
SWIDTH 600 0
DWIDTH 10 0
BBX 9 12 1 0
BITMAP
C380
C600
C600
CC00
D800
F800
F800
CC00
C600
C600
C300
C180
ENDCHAR
STARTCHAR 004C
ENCODING 76
SWIDTH 600 0
DWIDTH 10 0
BBX 7 12 2 0
BITMAP
80
80
80
80
80
80
80
80
80
80
80
FE
ENDCHAR
STARTCHAR 004D
ENCODING 77
SWIDTH 600 0
DWIDTH 10 0
BBX 8 12 1 0
BITMAP
C3
E3
E7
E5
F5
DD
D9
D9
C9
C1
C1
C1
ENDCHAR
STARTCHAR 004E
ENCODING 78
SWIDTH 600 0
DWIDTH 10 0
BBX 8 12 1 0
BITMAP
C3
E3
E3
F3
D3
DB
CB
CF
C7
C7
C3
C3
ENDCHAR
STARTCHAR 004F
ENCODING 79
SWIDTH 600 0
DWIDTH 10 0
BBX 8 12 1 0
BITMAP
3C
66
C3
C1
81
81
81
81
C1
C3
66
3C
ENDCHAR
STARTCHAR 0050
ENCODING 80
SWIDTH 600 0
DWIDTH 10 0
BBX 8 12 2 0
BITMAP
FC
86
82
83
82
86
FC
80
80
80
80
80
ENDCHAR
STARTCHAR 0051
ENCODING 81
SWIDTH 600 0
DWIDTH 10 0
BBX 9 14 1 -2
BITMAP
3C00
6600
C300
C100
8100
8100
8100
8100
C100
C300
6600
3E00
0300
0180
ENDCHAR
STARTCHAR 0052
ENCODING 82
SWIDTH 600 0
DWIDTH 10 0
BBX 7 12 2 0
BITMAP
F8
8E
86
82
86
8E
F8
88
8C
84
86
82
ENDCHAR
STARTCHAR 0053
ENCODING 83
SWIDTH 600 0
DWIDTH 10 0
BBX 8 12 1 0
BITMAP
3E
63
C1
C0
60
38
0E
03
01
C1
63
3E
ENDCHAR
STARTCHAR 0054
ENCODING 84
SWIDTH 600 0
DWIDTH 10 0
BBX 9 12 1 0
BITMAP
FF80
1800
1800
1800
1800
1800
1800
1800
1800
1800
1800
1800
ENDCHAR
STARTCHAR 0055
ENCODING 85
SWIDTH 600 0
DWIDTH 10 0
BBX 8 12 1 0
BITMAP
C1
C1
C1
C1
C1
C1
C1
C1
C3
C3
66
3C
ENDCHAR
STARTCHAR 0056
ENCODING 86
SWIDTH 600 0
DWIDTH 10 0
BBX 9 12 1 0
BITMAP
8180
C300
C300
4200
6200
6600
2400
2400
3C00
1C00
1800
1800
ENDCHAR
STARTCHAR 0057
ENCODING 87
SWIDTH 600 0
DWIDTH 10 0
BBX 9 12 1 0
BITMAP
9980
9980
9900
9D00
DD00
D500
F500
6500
6700
6700
6300
6200
ENDCHAR
STARTCHAR 0058
ENCODING 88
SWIDTH 600 0
DWIDTH 10 0
BBX 9 12 1 0
BITMAP
C380
4300
6600
3600
1C00
1800
1800
3C00
2600
6200
4300
C180
ENDCHAR
STARTCHAR 0059
ENCODING 89
SWIDTH 600 0
DWIDTH 10 0
BBX 9 12 1 0
BITMAP
C380
C300
4200
6600
2400
3C00
1800
1800
1800
1800
1800
1800
ENDCHAR
STARTCHAR 005A
ENCODING 90
SWIDTH 600 0
DWIDTH 10 0
BBX 8 12 1 0
BITMAP
FF
02
06
04
0C
18
10
30
60
40
C0
FF
ENDCHAR
STARTCHAR 005B
ENCODING 91
SWIDTH 600 0
DWIDTH 10 0
BBX 3 17 4 -3
BITMAP
E0
80
80
80
80
80
80
80
80
80
80
80
80
80
80
E0
E0
ENDCHAR
STARTCHAR 005C
ENCODING 92
SWIDTH 600 0
DWIDTH 10 0
BBX 6 13 2 -1
BITMAP
C0
40
40
60
20
20
30
10
18
08
08
0C
04
ENDCHAR
STARTCHAR 005D
ENCODING 93
SWIDTH 600 0
DWIDTH 10 0
BBX 4 17 3 -3
BITMAP
F0
30
30
30
30
30
30
30
30
30
30
30
30
30
30
F0
F0
ENDCHAR
STARTCHAR 005E
ENCODING 94
SWIDTH 600 0
DWIDTH 10 0
BBX 6 6 2 6
BITMAP
30
30
38
68
4C
C4
ENDCHAR
STARTCHAR 005F
ENCODING 95
SWIDTH 600 0
DWIDTH 10 0
BBX 8 1 1 -1
BITMAP
FF
ENDCHAR
STARTCHAR 0060
ENCODING 96
SWIDTH 600 0
DWIDTH 10 0
BBX 4 2 3 10
BITMAP
E0
30
ENDCHAR
STARTCHAR 0061
ENCODING 97
SWIDTH 600 0
DWIDTH 10 0
BBX 8 9 1 0
BITMAP
3C
66
C3
03
7F
C3
C3
C7
7F
ENDCHAR
STARTCHAR 0062
ENCODING 98
SWIDTH 600 0
DWIDTH 10 0
BBX 8 13 1 0
BITMAP
C0
C0
C0
C0
FE
E6
C3
C3
C1
C3
C3
E6
FE
ENDCHAR
STARTCHAR 0063
ENCODING 99
SWIDTH 600 0
DWIDTH 10 0
BBX 8 9 1 0
BITMAP
3E
62
C3
C0
C0
C0
C3
63
3C
ENDCHAR
STARTCHAR 0064
ENCODING 100
SWIDTH 600 0
DWIDTH 10 0
BBX 8 13 1 0
BITMAP
03
03
03
03
3F
67
C3
C3
C3
C3
C3
67
3F
ENDCHAR
STARTCHAR 0065
ENCODING 101
SWIDTH 600 0
DWIDTH 10 0
BBX 8 9 1 0
BITMAP
3C
62
C3
C1
FF
C0
C0
63
3E
ENDCHAR
STARTCHAR 0066
ENCODING 102
SWIDTH 600 0
DWIDTH 10 0
BBX 8 13 1 0
BITMAP
0F
18
10
10
FF
10
10
10
10
10
10
10
10
ENDCHAR
STARTCHAR 0067
ENCODING 103
SWIDTH 600 0
DWIDTH 10 0
BBX 8 13 1 -4
BITMAP
3F
67
C3
C3
C3
C3
C3
67
3F
03
42
7E
10
ENDCHAR
STARTCHAR 0068
ENCODING 104
SWIDTH 600 0
DWIDTH 10 0
BBX 8 13 1 0
BITMAP
C0
C0
C0
C0
DE
E3
C3
C3
C3
C3
C3
C3
C3
ENDCHAR
STARTCHAR 0069
ENCODING 105
SWIDTH 600 0
DWIDTH 10 0
BBX 7 12 2 0
BITMAP
10
10
00
F0
10
10
10
10
10
10
10
FE
ENDCHAR
STARTCHAR 006A
ENCODING 106
SWIDTH 600 0
DWIDTH 10 0
BBX 5 16 2 -4
BITMAP
18
08
00
F8
18
18
18
18
18
18
18
18
18
18
F0
E0
ENDCHAR
STARTCHAR 006B
ENCODING 107
SWIDTH 600 0
DWIDTH 10 0
BBX 8 13 1 0
BITMAP
C0
C0
C0
C0
C7
CC
D8
D0
F8
CC
CC
C6
C3
ENDCHAR
STARTCHAR 006C
ENCODING 108
SWIDTH 600 0
DWIDTH 10 0
BBX 7 13 2 0
BITMAP
F0
F0
10
10
10
10
10
10
10
10
10
10
FE
ENDCHAR
STARTCHAR 006D
ENCODING 109
SWIDTH 600 0
DWIDTH 10 0
BBX 8 9 1 0
BITMAP
F7
99
99
99
99
99
99
99
99
ENDCHAR
STARTCHAR 006E
ENCODING 110
SWIDTH 600 0
DWIDTH 10 0
BBX 8 9 1 0
BITMAP
DE
E3
C3
C3
C3
C3
C3
C3
C3
ENDCHAR
STARTCHAR 006F
ENCODING 111
SWIDTH 600 0
DWIDTH 10 0
BBX 8 9 1 0
BITMAP
3C
66
C3
C1
C1
C1
C3
66
3C
ENDCHAR
STARTCHAR 0070
ENCODING 112
SWIDTH 600 0
DWIDTH 10 0
BBX 8 12 1 -3
BITMAP
FC
E6
C3
C3
C3
C3
C3
E6
FC
C0
C0
C0
ENDCHAR
STARTCHAR 0071
ENCODING 113
SWIDTH 600 0
DWIDTH 10 0
BBX 8 12 1 -3
BITMAP
3F
67
C3
C3
C3
C3
C3
63
3F
03
03
03
ENDCHAR
STARTCHAR 0072
ENCODING 114
SWIDTH 600 0
DWIDTH 10 0
BBX 6 9 3 0
BITMAP
BC
E4
C0
80
80
80
80
80
80
ENDCHAR
STARTCHAR 0073
ENCODING 115
SWIDTH 600 0
DWIDTH 10 0
BBX 8 9 1 0
BITMAP
3E
63
43
60
3E
03
C3
63
3E
ENDCHAR
STARTCHAR 0074
ENCODING 116
SWIDTH 600 0
DWIDTH 10 0
BBX 8 11 1 0
BITMAP
10
10
FF
10
10
10
10
10
10
18
1F
ENDCHAR
STARTCHAR 0075
ENCODING 117
SWIDTH 600 0
DWIDTH 10 0
BBX 7 9 2 0
BITMAP
86
86
86
86
86
86
86
CE
7E
ENDCHAR
STARTCHAR 0076
ENCODING 118
SWIDTH 600 0
DWIDTH 10 0
BBX 8 9 1 0
BITMAP
C1
C3
42
66
26
24
3C
18
18
ENDCHAR
STARTCHAR 0077
ENCODING 119
SWIDTH 600 0
DWIDTH 10 0
BBX 10 9 0 0
BITMAP
C4C0
4CC0
4C80
4E80
6A80
3280
3380
3300
3100
ENDCHAR
STARTCHAR 0078
ENCODING 120
SWIDTH 600 0
DWIDTH 10 0
BBX 8 9 1 0
BITMAP
C3
66
34
1C
18
1C
36
62
C3
ENDCHAR
STARTCHAR 0079
ENCODING 121
SWIDTH 600 0
DWIDTH 10 0
BBX 9 13 1 -4
BITMAP
8180
C300
4300
6600
2600
3400
3C00
1800
1800
1000
3000
E000
C000
ENDCHAR
STARTCHAR 007A
ENCODING 122
SWIDTH 600 0
DWIDTH 10 0
BBX 8 9 1 0
BITMAP
FF
02
06
0C
18
30
60
40
FF
ENDCHAR
STARTCHAR 007B
ENCODING 123
SWIDTH 600 0
DWIDTH 10 0
BBX 5 16 3 -3
BITMAP
18
30
30
30
30
30
20
C0
E0
20
30
30
30
30
10
18
ENDCHAR
STARTCHAR 007C
ENCODING 124
SWIDTH 600 0
DWIDTH 10 0
BBX 2 15 4 -3
BITMAP
C0
C0
C0
C0
C0
C0
C0
C0
C0
C0
C0
C0
C0
C0
C0
ENDCHAR
STARTCHAR 007D
ENCODING 125
SWIDTH 600 0
DWIDTH 10 0
BBX 5 16 3 -3
BITMAP
C0
60
60
60
60
60
20
18
38
20
60
60
60
60
40
C0
ENDCHAR
STARTCHAR 007E
ENCODING 126
SWIDTH 600 0
DWIDTH 10 0
BBX 10 4 0 3
BITMAP
3000
7CC0
C780
0300
ENDCHAR
STARTCHAR 00A0
ENCODING 160
SWIDTH 600 0
DWIDTH 10 0
BBX 0 0 0 0
BITMAP
ENDCHAR
STARTCHAR 00A1
ENCODING 161
SWIDTH 600 0
DWIDTH 10 0
BBX 2 12 4 -3
BITMAP
C0
C0
00
00
C0
C0
C0
C0
C0
C0
C0
C0
ENDCHAR
STARTCHAR 00A2
ENCODING 162
SWIDTH 600 0
DWIDTH 10 0
BBX 8 13 1 -2
BITMAP
18
18
3E
63
43
C0
C0
C0
43
63
3E
18
18
ENDCHAR
STARTCHAR 00A3
ENCODING 163
SWIDTH 600 0
DWIDTH 10 0
BBX 9 12 1 0
BITMAP
3E00
2300
6100
6000
6000
6000
F800
6000
6000
6000
6000
FF80
ENDCHAR
STARTCHAR 00A4
ENCODING 164
SWIDTH 600 0
DWIDTH 10 0
BBX 9 9 1 0
BITMAP
9D00
FF80
4300
C100
C100
C100
C300
E700
FD80
ENDCHAR
STARTCHAR 00A5
ENCODING 165
SWIDTH 600 0
DWIDTH 10 0
BBX 10 12 0 0
BITMAP
C0C0
6180
2100
3300
1A00
0E00
7F80
0C00
7F80
0C00
0C00
0C00
ENDCHAR
STARTCHAR 00A6
ENCODING 166
SWIDTH 600 0
DWIDTH 10 0
BBX 2 14 4 -2
BITMAP
C0
C0
C0
C0
C0
C0
00
00
C0
C0
C0
C0
C0
C0
ENDCHAR
STARTCHAR 00A7
ENCODING 167
SWIDTH 600 0
DWIDTH 10 0
BBX 8 16 1 -4
BITMAP
7E
C3
C1
C0
60
7C
C7
81
C1
71
3E
07
03
81
C3
7E
ENDCHAR
STARTCHAR 00A8
ENCODING 168
SWIDTH 600 0
DWIDTH 10 0
BBX 6 1 2 11
BITMAP
CC
ENDCHAR
STARTCHAR 00A9
ENCODING 169
SWIDTH 600 0
DWIDTH 10 0
BBX 9 9 1 0
BITMAP
3E00
4100
BD00
A480
A080
A480
BD00
4100
3E00
ENDCHAR
STARTCHAR 00AA
ENCODING 170
SWIDTH 600 0
DWIDTH 10 0
BBX 6 6 2 6
BITMAP
78
4C
3C
4C
CC
7C
ENDCHAR
STARTCHAR 00AB
ENCODING 171
SWIDTH 600 0
DWIDTH 10 0
BBX 7 7 1 1
BITMAP
36
24
48
D8
48
24
12
ENDCHAR
STARTCHAR 00AC
ENCODING 172
SWIDTH 600 0
DWIDTH 10 0
BBX 6 4 2 3
BITMAP
FC
FC
04
04
ENDCHAR
STARTCHAR 00AD
ENCODING 173
SWIDTH 600 0
DWIDTH 10 0
BBX 6 1 2 5
BITMAP
FC
ENDCHAR
STARTCHAR 00AE
ENCODING 174
SWIDTH 600 0
DWIDTH 10 0
BBX 9 9 1 0
BITMAP
3C00
4300
BD00
A480
B880
A880
A500
4100
3E00
ENDCHAR
STARTCHAR 00AF
ENCODING 175
SWIDTH 600 0
DWIDTH 10 0
BBX 6 1 2 11
BITMAP
FC
ENDCHAR
STARTCHAR 00B0
ENCODING 176
SWIDTH 600 0
DWIDTH 10 0
BBX 4 4 3 8
BITMAP
70
90
90
60
ENDCHAR
STARTCHAR 00B1
ENCODING 177
SWIDTH 600 0
DWIDTH 10 0
BBX 8 11 1 0
BITMAP
18
18
18
18
FF
18
18
18
18
00
7F
ENDCHAR
STARTCHAR 00B2
ENCODING 178
SWIDTH 600 0
DWIDTH 10 0
BBX 5 6 3 6
BITMAP
F0
90
10
30
60
F8
ENDCHAR
STARTCHAR 00B3
ENCODING 179
SWIDTH 600 0
DWIDTH 10 0
BBX 5 7 3 5
BITMAP
F0
98
10
70
18
F0
60
ENDCHAR
STARTCHAR 00B4
ENCODING 180
SWIDTH 600 0
DWIDTH 10 0
BBX 4 2 3 10
BITMAP
70
C0
ENDCHAR
STARTCHAR 00B5
ENCODING 181
SWIDTH 600 0
DWIDTH 10 0
BBX 7 12 2 -3
BITMAP
86
86
86
86
86
86
86
CE
FE
80
80
80
ENDCHAR
STARTCHAR 00B6
ENCODING 182
SWIDTH 600 0
DWIDTH 10 0
BBX 6 12 2 0
BITMAP
7C
FC
FC
FC
FC
FC
7C
3C
04
04
04
04
ENDCHAR
STARTCHAR 00B7
ENCODING 183
SWIDTH 600 0
DWIDTH 10 0
BBX 2 2 4 5
BITMAP
C0
C0
ENDCHAR
STARTCHAR 00B8
ENCODING 184
SWIDTH 600 0
DWIDTH 10 0
BBX 2 4 4 -4
BITMAP
80
40
40
80
ENDCHAR
STARTCHAR 00B9
ENCODING 185
SWIDTH 600 0
DWIDTH 10 0
BBX 3 6 3 6
BITMAP
60
E0
20
20
20
20
ENDCHAR
STARTCHAR 00BA
ENCODING 186
SWIDTH 600 0
DWIDTH 10 0
BBX 6 6 2 6
BITMAP
78
CC
C4
C4
CC
78
ENDCHAR
STARTCHAR 00BB
ENCODING 187
SWIDTH 600 0
DWIDTH 10 0
BBX 7 7 2 1
BITMAP
D8
6C
24
36
24
48
D8
ENDCHAR
STARTCHAR 00BC
ENCODING 188
SWIDTH 600 0
DWIDTH 10 0
BBX 10 12 0 0
BITMAP
6000
A000
2300
2200
2400
2400
0980
0980
1280
3480
07C0
0080
ENDCHAR
STARTCHAR 00BD
ENCODING 189
SWIDTH 600 0
DWIDTH 10 0
BBX 10 12 0 0
BITMAP
6000
A000
2200
2400
2400
2800
0B80
14C0
1080
2180
0200
07C0
ENDCHAR
STARTCHAR 00BE
ENCODING 190
SWIDTH 600 0
DWIDTH 10 0
BBX 10 12 0 0
BITMAP
7000
C800
3100
1A00
CA00
7400
0480
0980
0A80
1680
07C0
0080
ENDCHAR
STARTCHAR 00BF
ENCODING 191
SWIDTH 600 0
DWIDTH 10 0
BBX 7 12 2 -3
BITMAP
30
10
00
30
30
30
60
C0
80
86
CC
78
ENDCHAR
STARTCHAR 00C0
ENCODING 192
SWIDTH 600 0
DWIDTH 10 0
BBX 9 15 1 0
BITMAP
7000
1800
0000
1800
1800
1C00
3400
3400
2600
6600
6200
7F00
C300
C100
8180
ENDCHAR
STARTCHAR 00C1
ENCODING 193
SWIDTH 600 0
DWIDTH 10 0
BBX 9 15 1 0
BITMAP
0E00
1800
0000
1800
1800
1C00
3400
3400
2600
6600
6200
7F00
C300
C100
8180
ENDCHAR
STARTCHAR 00C2
ENCODING 194
SWIDTH 600 0
DWIDTH 10 0
BBX 9 16 1 0
BITMAP
0800
1C00
2600
0000
1800
1800
1C00
3400
3400
2600
6600
6200
7F00
C300
C100
8180
ENDCHAR
STARTCHAR 00C3
ENCODING 195
SWIDTH 600 0
DWIDTH 10 0
BBX 9 16 1 0
BITMAP
0200
7E00
4000
0000
1800
1800
1C00
3400
3400
2600
6600
6200
7F00
C300
C100
8180
ENDCHAR
STARTCHAR 00C4
ENCODING 196
SWIDTH 600 0
DWIDTH 10 0
BBX 9 15 1 0
BITMAP
6600
0400
0000
1800
1800
1C00
3400
3400
2600
6600
6200
7F00
C300
C100
8180
ENDCHAR
STARTCHAR 00C5
ENCODING 197
SWIDTH 600 0
DWIDTH 10 0
BBX 9 16 1 0
BITMAP
1800
2400
2400
1800
1800
1800
1C00
3400
3400
2600
6600
6200
7F00
C300
C100
8180
ENDCHAR
STARTCHAR 00C6
ENCODING 198
SWIDTH 600 0
DWIDTH 10 0
BBX 10 12 0 0
BITMAP
07C0
0E00
0E00
0E00
1E00
1780
3600
2600
3E00
6200
4200
C3C0
ENDCHAR
STARTCHAR 00C7
ENCODING 199
SWIDTH 600 0
DWIDTH 10 0
BBX 8 16 1 -4
BITMAP
3E
63
C3
C1
80
80
80
80
C1
C3
63
3E
10
08
08
10
ENDCHAR
STARTCHAR 00C8
ENCODING 200
SWIDTH 600 0
DWIDTH 10 0
BBX 7 15 2 0
BITMAP
E0
30
00
FE
80
80
80
80
FC
80
80
80
80
80
FE
ENDCHAR
STARTCHAR 00C9
ENCODING 201
SWIDTH 600 0
DWIDTH 10 0
BBX 7 15 2 0
BITMAP
1C
30
00
FE
80
80
80
80
FC
80
80
80
80
80
FE
ENDCHAR
STARTCHAR 00CA
ENCODING 202
SWIDTH 600 0
DWIDTH 10 0
BBX 7 16 2 0
BITMAP
10
38
4C
00
FE
80
80
80
80
FC
80
80
80
80
80
FE
ENDCHAR
STARTCHAR 00CB
ENCODING 203
SWIDTH 600 0
DWIDTH 10 0
BBX 7 15 2 0
BITMAP
CC
08
00
FE
80
80
80
80
FC
80
80
80
80
80
FE
ENDCHAR
STARTCHAR 00CC
ENCODING 204
SWIDTH 600 0
DWIDTH 10 0
BBX 8 15 1 0
BITMAP
70
18
00
FF
18
18
18
18
18
18
18
18
18
18
FF
ENDCHAR
STARTCHAR 00CD
ENCODING 205
SWIDTH 600 0
DWIDTH 10 0
BBX 8 15 1 0
BITMAP
0E
18
00
FF
18
18
18
18
18
18
18
18
18
18
FF
ENDCHAR
STARTCHAR 00CE
ENCODING 206
SWIDTH 600 0
DWIDTH 10 0
BBX 8 16 1 0
BITMAP
08
1C
26
00
FF
18
18
18
18
18
18
18
18
18
18
FF
ENDCHAR
STARTCHAR 00CF
ENCODING 207
SWIDTH 600 0
DWIDTH 10 0
BBX 8 15 1 0
BITMAP
66
04
00
FF
18
18
18
18
18
18
18
18
18
18
FF
ENDCHAR
STARTCHAR 00D0
ENCODING 208
SWIDTH 600 0
DWIDTH 10 0
BBX 10 12 0 0
BITMAP
7E00
6300
6180
6080
6080
F8C0
60C0
6080
6080
6180
6300
7E00
ENDCHAR
STARTCHAR 00D1
ENCODING 209
SWIDTH 600 0
DWIDTH 10 0
BBX 8 16 1 0
BITMAP
02
7E
40
00
C3
E3
E3
F3
D3
DB
CB
CF
C7
C7
C3
C3
ENDCHAR
STARTCHAR 00D2
ENCODING 210
SWIDTH 600 0
DWIDTH 10 0
BBX 8 15 1 0
BITMAP
70
18
00
3C
66
C3
C1
81
81
81
81
C1
C3
66
3C
ENDCHAR
STARTCHAR 00D3
ENCODING 211
SWIDTH 600 0
DWIDTH 10 0
BBX 8 15 1 0
BITMAP
0E
18
00
3C
66
C3
C1
81
81
81
81
C1
C3
66
3C
ENDCHAR
STARTCHAR 00D4
ENCODING 212
SWIDTH 600 0
DWIDTH 10 0
BBX 8 16 1 0
BITMAP
08
1C
26
00
3C
66
C3
C1
81
81
81
81
C1
C3
66
3C
ENDCHAR
STARTCHAR 00D5
ENCODING 213
SWIDTH 600 0
DWIDTH 10 0
BBX 8 16 1 0
BITMAP
02
7E
40
00
3C
66
C3
C1
81
81
81
81
C1
C3
66
3C
ENDCHAR
STARTCHAR 00D6
ENCODING 214
SWIDTH 600 0
DWIDTH 10 0
BBX 8 15 1 0
BITMAP
66
04
00
3C
66
C3
C1
81
81
81
81
C1
C3
66
3C
ENDCHAR
STARTCHAR 00D7
ENCODING 215
SWIDTH 600 0
DWIDTH 10 0
BBX 7 7 2 2
BITMAP
86
CC
78
30
78
CC
86
ENDCHAR
STARTCHAR 00D8
ENCODING 216
SWIDTH 600 0
DWIDTH 10 0
BBX 9 14 1 -1
BITMAP
0180
3D00
6600
C300
C500
8D00
8900
9100
9100
E100
E300
6600
FC00
8000
ENDCHAR
STARTCHAR 00D9
ENCODING 217
SWIDTH 600 0
DWIDTH 10 0
BBX 8 15 1 0
BITMAP
70
18
00
C1
C1
C1
C1
C1
C1
C1
C1
C3
C3
66
3C
ENDCHAR
STARTCHAR 00DA
ENCODING 218
SWIDTH 600 0
DWIDTH 10 0
BBX 8 15 1 0
BITMAP
0E
18
00
C1
C1
C1
C1
C1
C1
C1
C1
C3
C3
66
3C
ENDCHAR
STARTCHAR 00DB
ENCODING 219
SWIDTH 600 0
DWIDTH 10 0
BBX 8 16 1 0
BITMAP
08
1C
26
00
C1
C1
C1
C1
C1
C1
C1
C1
C3
C3
66
3C
ENDCHAR
STARTCHAR 00DC
ENCODING 220
SWIDTH 600 0
DWIDTH 10 0
BBX 8 15 1 0
BITMAP
66
04
00
C1
C1
C1
C1
C1
C1
C1
C1
C3
C3
66
3C
ENDCHAR
STARTCHAR 00DD
ENCODING 221
SWIDTH 600 0
DWIDTH 10 0
BBX 9 15 1 0
BITMAP
0E00
1800
0080
C300
C300
4200
6600
2400
3C00
1800
1800
1800
1800
1800
1800
ENDCHAR
STARTCHAR 00DE
ENCODING 222
SWIDTH 600 0
DWIDTH 10 0
BBX 8 12 1 0
BITMAP
C0
C0
FC
FE
C3
C1
C1
C3
FE
C0
C0
C0
ENDCHAR
STARTCHAR 00DF
ENCODING 223
SWIDTH 600 0
DWIDTH 10 0
BBX 8 13 1 0
BITMAP
38
6C
46
C6
C4
CC
CC
CC
C6
C3
C1
D3
DE
ENDCHAR
STARTCHAR 00E0
ENCODING 224
SWIDTH 600 0
DWIDTH 10 0
BBX 8 12 1 0
BITMAP
70
18
00
3C
66
C3
03
7F
C3
C3
C7
7F
ENDCHAR
STARTCHAR 00E1
ENCODING 225
SWIDTH 600 0
DWIDTH 10 0
BBX 8 12 1 0
BITMAP
0E
18
00
3C
66
C3
03
7F
C3
C3
C7
7F
ENDCHAR
STARTCHAR 00E2
ENCODING 226
SWIDTH 600 0
DWIDTH 10 0
BBX 8 13 1 0
BITMAP
08
1C
26
00
3C
66
C3
03
7F
C3
C3
C7
7F
ENDCHAR
STARTCHAR 00E3
ENCODING 227
SWIDTH 600 0
DWIDTH 10 0
BBX 8 13 1 0
BITMAP
02
7E
40
00
3C
66
C3
03
7F
C3
C3
C7
7F
ENDCHAR
STARTCHAR 00E4
ENCODING 228
SWIDTH 600 0
DWIDTH 10 0
BBX 8 12 1 0
BITMAP
66
04
00
3C
66
C3
03
7F
C3
C3
C7
7F
ENDCHAR
STARTCHAR 00E5
ENCODING 229
SWIDTH 600 0
DWIDTH 10 0
BBX 8 14 1 0
BITMAP
18
24
24
18
00
3C
66
C3
03
7F
C3
C3
C7
7F
ENDCHAR
STARTCHAR 00E6
ENCODING 230
SWIDTH 600 0
DWIDTH 10 0
BBX 10 9 0 0
BITMAP
7F80
4CC0
8CC0
0CC0
7FC0
4C00
CC00
CC40
7FC0
ENDCHAR
STARTCHAR 00E7
ENCODING 231
SWIDTH 600 0
DWIDTH 10 0
BBX 8 13 1 -4
BITMAP
3E
62
C3
C0
C0
C0
C3
63
3C
08
04
04
08
ENDCHAR
STARTCHAR 00E8
ENCODING 232
SWIDTH 600 0
DWIDTH 10 0
BBX 8 12 1 0
BITMAP
70
18
00
3C
62
C3
C1
FF
C0
C0
63
3E
ENDCHAR
STARTCHAR 00E9
ENCODING 233
SWIDTH 600 0
DWIDTH 10 0
BBX 8 12 1 0
BITMAP
0E
18
00
3C
62
C3
C1
FF
C0
C0
63
3E
ENDCHAR
STARTCHAR 00EA
ENCODING 234
SWIDTH 600 0
DWIDTH 10 0
BBX 8 13 1 0
BITMAP
08
1C
26
00
3C
62
C3
C1
FF
C0
C0
63
3E
ENDCHAR
STARTCHAR 00EB
ENCODING 235
SWIDTH 600 0
DWIDTH 10 0
BBX 8 12 1 0
BITMAP
66
04
00
3C
62
C3
C1
FF
C0
C0
63
3E
ENDCHAR
STARTCHAR 00EC
ENCODING 236
SWIDTH 600 0
DWIDTH 10 0
BBX 7 12 2 0
BITMAP
E0
30
00
F0
10
10
10
10
10
10
10
FE
ENDCHAR
STARTCHAR 00ED
ENCODING 237
SWIDTH 600 0
DWIDTH 10 0
BBX 7 12 2 0
BITMAP
1C
30
00
F0
10
10
10
10
10
10
10
FE
ENDCHAR
STARTCHAR 00EE
ENCODING 238
SWIDTH 600 0
DWIDTH 10 0
BBX 7 13 2 0
BITMAP
10
38
4C
00
F0
10
10
10
10
10
10
10
FE
ENDCHAR
STARTCHAR 00EF
ENCODING 239
SWIDTH 600 0
DWIDTH 10 0
BBX 7 12 2 0
BITMAP
CC
08
00
F0
10
10
10
10
10
10
10
FE
ENDCHAR
STARTCHAR 00F0
ENCODING 240
SWIDTH 600 0
DWIDTH 10 0
BBX 8 13 1 0
BITMAP
11
3E
0C
36
02
7F
C7
C3
83
83
82
C6
7C
ENDCHAR
STARTCHAR 00F1
ENCODING 241
SWIDTH 600 0
DWIDTH 10 0
BBX 8 13 1 0
BITMAP
02
7E
40
00
DE
E3
C3
C3
C3
C3
C3
C3
C3
ENDCHAR
STARTCHAR 00F2
ENCODING 242
SWIDTH 600 0
DWIDTH 10 0
BBX 8 12 1 0
BITMAP
70
18
00
3C
66
C3
C1
C1
C1
C3
66
3C
ENDCHAR
STARTCHAR 00F3
ENCODING 243
SWIDTH 600 0
DWIDTH 10 0
BBX 8 12 1 0
BITMAP
0E
18
00
3C
66
C3
C1
C1
C1
C3
66
3C
ENDCHAR
STARTCHAR 00F4
ENCODING 244
SWIDTH 600 0
DWIDTH 10 0
BBX 8 13 1 0
BITMAP
08
1C
26
00
3C
66
C3
C1
C1
C1
C3
66
3C
ENDCHAR
STARTCHAR 00F5
ENCODING 245
SWIDTH 600 0
DWIDTH 10 0
BBX 8 13 1 0
BITMAP
02
7E
40
00
3C
66
C3
C1
C1
C1
C3
66
3C
ENDCHAR
STARTCHAR 00F6
ENCODING 246
SWIDTH 600 0
DWIDTH 10 0
BBX 8 12 1 0
BITMAP
66
04
00
3C
66
C3
C1
C1
C1
C3
66
3C
ENDCHAR
STARTCHAR 00F7
ENCODING 247
SWIDTH 600 0
DWIDTH 10 0
BBX 8 9 1 1
BITMAP
18
18
00
FF
FF
00
00
18
08
ENDCHAR
STARTCHAR 00F8
ENCODING 248
SWIDTH 600 0
DWIDTH 10 0
BBX 8 11 1 -1
BITMAP
02
3E
66
C7
C9
C9
D1
D3
66
3C
40
ENDCHAR
STARTCHAR 00F9
ENCODING 249
SWIDTH 600 0
DWIDTH 10 0
BBX 7 12 2 0
BITMAP
E0
30
00
86
86
86
86
86
86
86
CE
7E
ENDCHAR
STARTCHAR 00FA
ENCODING 250
SWIDTH 600 0
DWIDTH 10 0
BBX 7 12 2 0
BITMAP
1C
30
00
86
86
86
86
86
86
86
CE
7E
ENDCHAR
STARTCHAR 00FB
ENCODING 251
SWIDTH 600 0
DWIDTH 10 0
BBX 7 13 2 0
BITMAP
10
38
4C
00
86
86
86
86
86
86
86
CE
7E
ENDCHAR
STARTCHAR 00FC
ENCODING 252
SWIDTH 600 0
DWIDTH 10 0
BBX 7 12 2 0
BITMAP
CC
08
00
86
86
86
86
86
86
86
CE
7E
ENDCHAR
STARTCHAR 00FD
ENCODING 253
SWIDTH 600 0
DWIDTH 10 0
BBX 9 16 1 -4
BITMAP
0E00
1800
0000
8180
C300
4300
6600
2600
3400
3C00
1800
1800
1000
3000
E000
C000
ENDCHAR
STARTCHAR 00FE
ENCODING 254
SWIDTH 600 0
DWIDTH 10 0
BBX 8 16 1 -3
BITMAP
C0
C0
C0
C0
FE
E6
C3
C3
C3
C3
C3
E6
FE
C0
C0
C0
ENDCHAR
STARTCHAR 00FF
ENCODING 255
SWIDTH 600 0
DWIDTH 10 0
BBX 9 16 1 -4
BITMAP
6600
0400
0000
8180
C300
4300
6600
2600
3400
3C00
1800
1800
1000
3000
E000
C000
ENDCHAR
STARTCHAR 0100
ENCODING 256
SWIDTH 600 0
DWIDTH 10 0
BBX 9 15 1 0
BITMAP
7E00
0000
0000
1800
1800
1C00
3400
3400
2600
6600
6200
7F00
C300
C100
8180
ENDCHAR
STARTCHAR 0101
ENCODING 257
SWIDTH 600 0
DWIDTH 10 0
BBX 8 12 1 0
BITMAP
7E
00
00
3C
66
C3
03
7F
C3
C3
C7
7F
ENDCHAR
STARTCHAR 0102
ENCODING 258
SWIDTH 600 0
DWIDTH 10 0
BBX 9 15 1 0
BITMAP
2600
3C00
0000
1800
1800
1C00
3400
3400
2600
6600
6200
7F00
C300
C100
8180
ENDCHAR
STARTCHAR 0103
ENCODING 259
SWIDTH 600 0
DWIDTH 10 0
BBX 8 13 1 0
BITMAP
26
3C
00
00
3C
66
C3
03
7F
C3
C3
C7
7F
ENDCHAR
STARTCHAR 0104
ENCODING 260
SWIDTH 600 0
DWIDTH 10 0
BBX 9 16 1 -4
BITMAP
1800
1800
1C00
3400
3400
2600
6600
6200
7F00
C300
C100
8180
0300
0200
0300
0180
ENDCHAR
STARTCHAR 0105
ENCODING 261
SWIDTH 600 0
DWIDTH 10 0
BBX 8 13 1 -4
BITMAP
3C
66
C3
03
7F
C3
C3
C7
7F
02
04
07
02
ENDCHAR
STARTCHAR 0106
ENCODING 262
SWIDTH 600 0
DWIDTH 10 0
BBX 8 15 1 0
BITMAP
0E
18
00
3E
63
C3
C1
80
80
80
80
C1
C3
63
3E
ENDCHAR
STARTCHAR 0107
ENCODING 263
SWIDTH 600 0
DWIDTH 10 0
BBX 8 12 1 0
BITMAP
0E
18
00
3E
62
C3
C0
C0
C0
C3
63
3C
ENDCHAR
STARTCHAR 0108
ENCODING 264
SWIDTH 600 0
DWIDTH 10 0
BBX 8 16 1 0
BITMAP
08
1C
26
00
3E
63
C3
C1
80
80
80
80
C1
C3
63
3E
ENDCHAR
STARTCHAR 0109
ENCODING 265
SWIDTH 600 0
DWIDTH 10 0
BBX 8 13 1 0
BITMAP
08
1C
26
00
3E
62
C3
C0
C0
C0
C3
63
3C
ENDCHAR
STARTCHAR 010A
ENCODING 266
SWIDTH 600 0
DWIDTH 10 0
BBX 8 15 1 0
BITMAP
18
08
00
3E
63
C3
C1
80
80
80
80
C1
C3
63
3E
ENDCHAR
STARTCHAR 010B
ENCODING 267
SWIDTH 600 0
DWIDTH 10 0
BBX 8 12 1 0
BITMAP
18
08
00
3E
62
C3
C0
C0
C0
C3
63
3C
ENDCHAR
STARTCHAR 010C
ENCODING 268
SWIDTH 600 0
DWIDTH 10 0
BBX 8 16 1 0
BITMAP
26
3C
18
00
3E
63
C3
C1
80
80
80
80
C1
C3
63
3E
ENDCHAR
STARTCHAR 010D
ENCODING 269
SWIDTH 600 0
DWIDTH 10 0
BBX 8 13 1 0
BITMAP
26
3C
18
00
3E
62
C3
C0
C0
C0
C3
63
3C
ENDCHAR
STARTCHAR 010E
ENCODING 270
SWIDTH 600 0
DWIDTH 10 0
BBX 8 16 1 0
BITMAP
26
3C
18
00
FC
C6
C3
C1
C1
C1
C1
C1
C1
C3
C6
FC
ENDCHAR
STARTCHAR 010F
ENCODING 271
SWIDTH 600 0
DWIDTH 10 0
BBX 11 13 1 0
BITMAP
0320
0320
0360
0340
3F00
6700
C300
C300
C300
C300
C300
6700
3F00
ENDCHAR
STARTCHAR 0110
ENCODING 272
SWIDTH 600 0
DWIDTH 10 0
BBX 10 12 0 0
BITMAP
7E00
6300
6180
6080
6080
F8C0
60C0
6080
6080
6180
6300
7E00
ENDCHAR
STARTCHAR 0111
ENCODING 273
SWIDTH 600 0
DWIDTH 10 0
BBX 9 13 1 0
BITMAP
0300
0F00
0F80
0300
3F00
6700
C300
C300
C300
C300
C300
6700
3F00
ENDCHAR
STARTCHAR 0112
ENCODING 274
SWIDTH 600 0
DWIDTH 10 0
BBX 7 15 2 0
BITMAP
FC
00
00
FE
80
80
80
80
FC
80
80
80
80
80
FE
ENDCHAR
STARTCHAR 0113
ENCODING 275
SWIDTH 600 0
DWIDTH 10 0
BBX 8 12 1 0
BITMAP
7E
00
00
3C
62
C3
C1
FF
C0
C0
63
3E
ENDCHAR
STARTCHAR 0114
ENCODING 276
SWIDTH 600 0
DWIDTH 10 0
BBX 7 15 2 0
BITMAP
4C
78
00
FE
80
80
80
80
FC
80
80
80
80
80
FE
ENDCHAR
STARTCHAR 0115
ENCODING 277
SWIDTH 600 0
DWIDTH 10 0
BBX 8 13 1 0
BITMAP
26
3C
00
00
3C
62
C3
C1
FF
C0
C0
63
3E
ENDCHAR
STARTCHAR 0116
ENCODING 278
SWIDTH 600 0
DWIDTH 10 0
BBX 7 15 2 0
BITMAP
30
10
00
FE
80
80
80
80
FC
80
80
80
80
80
FE
ENDCHAR
STARTCHAR 0117
ENCODING 279
SWIDTH 600 0
DWIDTH 10 0
BBX 8 12 1 0
BITMAP
18
08
00
3C
62
C3
C1
FF
C0
C0
63
3E
ENDCHAR
STARTCHAR 0118
ENCODING 280
SWIDTH 600 0
DWIDTH 10 0
BBX 7 16 2 -4
BITMAP
FE
80
80
80
80
FC
80
80
80
80
80
FE
0C
08
1C
0E
ENDCHAR
STARTCHAR 0119
ENCODING 281
SWIDTH 600 0
DWIDTH 10 0
BBX 8 12 1 -3
BITMAP
3C
62
C3
C1
FF
C0
C0
63
3E
08
18
0C
ENDCHAR
STARTCHAR 011A
ENCODING 282
SWIDTH 600 0
DWIDTH 10 0
BBX 7 16 2 0
BITMAP
4C
78
30
00
FE
80
80
80
80
FC
80
80
80
80
80
FE
ENDCHAR
STARTCHAR 011B
ENCODING 283
SWIDTH 600 0
DWIDTH 10 0
BBX 8 13 1 0
BITMAP
26
3C
18
00
3C
62
C3
C1
FF
C0
C0
63
3E
ENDCHAR
STARTCHAR 011C
ENCODING 284
SWIDTH 600 0
DWIDTH 10 0
BBX 8 16 1 0
BITMAP
08
1C
26
00
3E
63
C3
C0
80
80
8F
81
C1
C1
63
3E
ENDCHAR
STARTCHAR 011D
ENCODING 285
SWIDTH 600 0
DWIDTH 10 0
BBX 8 17 1 -4
BITMAP
08
1C
26
00
3F
67
C3
C3
C3
C3
C3
67
3F
03
42
7E
10
ENDCHAR
STARTCHAR 011E
ENCODING 286
SWIDTH 600 0
DWIDTH 10 0
BBX 8 16 1 0
BITMAP
26
3C
00
00
3E
63
C3
C0
80
80
8F
81
C1
C1
63
3E
ENDCHAR
STARTCHAR 011F
ENCODING 287
SWIDTH 600 0
DWIDTH 10 0
BBX 8 17 1 -4
BITMAP
26
3C
00
00
3F
67
C3
C3
C3
C3
C3
67
3F
03
42
7E
10
ENDCHAR
STARTCHAR 0120
ENCODING 288
SWIDTH 600 0
DWIDTH 10 0
BBX 8 15 1 0
BITMAP
18
08
00
3E
63
C3
C0
80
80
8F
81
C1
C1
63
3E
ENDCHAR
STARTCHAR 0121
ENCODING 289
SWIDTH 600 0
DWIDTH 10 0
BBX 8 16 1 -4
BITMAP
18
08
00
3F
67
C3
C3
C3
C3
C3
67
3F
03
42
7E
10
ENDCHAR
STARTCHAR 0122
ENCODING 290
SWIDTH 600 0
DWIDTH 10 0
BBX 8 16 1 -4
BITMAP
3E
63
C3
C0
80
80
8F
81
C1
C1
63
3E
00
18
10
30
ENDCHAR
STARTCHAR 0123
ENCODING 291
SWIDTH 600 0
DWIDTH 10 0
BBX 8 18 1 -4
BITMAP
08
18
18
00
00
3F
67
C3
C3
C3
C3
C3
67
3F
03
42
7E
10
ENDCHAR
STARTCHAR 0124
ENCODING 292
SWIDTH 600 0
DWIDTH 10 0
BBX 8 16 1 0
BITMAP
08
1C
26
00
C1
C1
C1
C1
C1
FF
C1
C1
C1
C1
C1
C1
ENDCHAR
STARTCHAR 0125
ENCODING 293
SWIDTH 600 0
DWIDTH 10 0
BBX 9 16 0 0
BITMAP
2000
7000
9800
6000
6000
6000
6000
6F00
7180
6180
6180
6180
6180
6180
6180
6180
ENDCHAR
STARTCHAR 0126
ENCODING 294
SWIDTH 600 0
DWIDTH 10 0
BBX 10 12 0 0
BITMAP
6080
6080
FFC0
60C0
6080
7F80
6080
6080
6080
6080
6080
6080
ENDCHAR
STARTCHAR 0127
ENCODING 295
SWIDTH 600 0
DWIDTH 10 0
BBX 9 13 0 0
BITMAP
2000
E000
F800
2000
2F00
3180
2180
2180
2180
2180
2180
2180
2180
ENDCHAR
STARTCHAR 0128
ENCODING 296
SWIDTH 600 0
DWIDTH 10 0
BBX 8 16 1 0
BITMAP
02
7E
40
00
FF
18
18
18
18
18
18
18
18
18
18
FF
ENDCHAR
STARTCHAR 0129
ENCODING 297
SWIDTH 600 0
DWIDTH 10 0
BBX 7 13 2 0
BITMAP
02
7E
40
00
F0
10
10
10
10
10
10
10
FE
ENDCHAR
STARTCHAR 012A
ENCODING 298
SWIDTH 600 0
DWIDTH 10 0
BBX 8 15 1 0
BITMAP
7E
00
00
FF
18
18
18
18
18
18
18
18
18
18
FF
ENDCHAR
STARTCHAR 012B
ENCODING 299
SWIDTH 600 0
DWIDTH 10 0
BBX 7 12 2 0
BITMAP
FC
00
00
F0
10
10
10
10
10
10
10
FE
ENDCHAR
STARTCHAR 012C
ENCODING 300
SWIDTH 600 0
DWIDTH 10 0
BBX 8 15 1 0
BITMAP
26
3C
00
FF
18
18
18
18
18
18
18
18
18
18
FF
ENDCHAR
STARTCHAR 012D
ENCODING 301
SWIDTH 600 0
DWIDTH 10 0
BBX 7 13 2 0
BITMAP
4C
78
00
00
F0
10
10
10
10
10
10
10
FE
ENDCHAR
STARTCHAR 012E
ENCODING 302
SWIDTH 600 0
DWIDTH 10 0
BBX 8 16 1 -4
BITMAP
FF
18
18
18
18
18
18
18
18
18
18
FF
18
10
1C
08
ENDCHAR
STARTCHAR 012F
ENCODING 303
SWIDTH 600 0
DWIDTH 10 0
BBX 7 16 2 -4
BITMAP
10
10
00
F0
10
10
10
10
10
10
10
FE
30
20
30
18
ENDCHAR
STARTCHAR 0130
ENCODING 304
SWIDTH 600 0
DWIDTH 10 0
BBX 8 15 1 0
BITMAP
18
08
00
FF
18
18
18
18
18
18
18
18
18
18
FF
ENDCHAR
STARTCHAR 0131
ENCODING 305
SWIDTH 600 0
DWIDTH 10 0
BBX 7 9 2 0
BITMAP
F0
10
10
10
10
10
10
10
FE
ENDCHAR
STARTCHAR 0132
ENCODING 306
SWIDTH 600 0
DWIDTH 10 0
BBX 8 12 1 0
BITMAP
C1
C1
C1
C1
C1
C1
C1
C1
C1
D1
D3
DE
ENDCHAR
STARTCHAR 0133
ENCODING 307
SWIDTH 600 0
DWIDTH 10 0
BBX 8 16 1 -4
BITMAP
23
21
00
E7
21
21
21
21
21
21
21
F9
01
03
1E
1C
ENDCHAR
STARTCHAR 0134
ENCODING 308
SWIDTH 600 0
DWIDTH 10 0
BBX 10 16 1 0
BITMAP
0100
0380
04C0
0000
0300
0300
0300
0300
0300
0300
0300
0300
8300
C300
C600
7C00
ENDCHAR
STARTCHAR 0135
ENCODING 309
SWIDTH 600 0
DWIDTH 10 0
BBX 8 17 1 -4
BITMAP
04
0E
13
00
7C
0C
0C
0C
0C
0C
0C
0C
0C
0C
0C
78
E0
ENDCHAR
STARTCHAR 0136
ENCODING 310
SWIDTH 600 0
DWIDTH 10 0
BBX 9 15 1 -3
BITMAP
C380
C600
C600
CC00
D800
F800
F800
CC00
C600
C600
C300
C180
0C00
0800
1800
ENDCHAR
STARTCHAR 0137
ENCODING 311
SWIDTH 600 0
DWIDTH 10 0
BBX 8 16 1 -3
BITMAP
C0
C0
C0
C0
C7
CC
D8
D0
F8
CC
CC
C6
C3
18
10
30
ENDCHAR
STARTCHAR 0138
ENCODING 312
SWIDTH 600 0
DWIDTH 10 0
BBX 7 9 2 0
BITMAP
86
8C
98
B0
F0
D8
98
8C
86
ENDCHAR
STARTCHAR 0139
ENCODING 313
SWIDTH 600 0
DWIDTH 10 0
BBX 8 15 1 0
BITMAP
70
C0
00
40
40
40
40
40
40
40
40
40
40
40
7F
ENDCHAR
STARTCHAR 013A
ENCODING 314
SWIDTH 600 0
DWIDTH 10 0
BBX 7 15 2 0
BITMAP
1C
10
F0
F0
10
10
10
10
10
10
10
10
10
10
FE
ENDCHAR
STARTCHAR 013B
ENCODING 315
SWIDTH 600 0
DWIDTH 10 0
BBX 7 15 2 -3
BITMAP
80
80
80
80
80
80
80
80
80
80
80
FE
18
10
30
ENDCHAR
STARTCHAR 013C
ENCODING 316
SWIDTH 600 0
DWIDTH 10 0
BBX 7 16 2 -3
BITMAP
F0
F0
10
10
10
10
10
10
10
10
10
10
FE
18
10
30
ENDCHAR
STARTCHAR 013D
ENCODING 317
SWIDTH 600 0
DWIDTH 10 0
BBX 7 12 2 0
BITMAP
84
84
8C
88
80
80
80
80
80
80
80
FE
ENDCHAR
STARTCHAR 013E
ENCODING 318
SWIDTH 600 0
DWIDTH 10 0
BBX 8 13 2 0
BITMAP
F1
F1
13
12
10
10
10
10
10
10
10
10
FE
ENDCHAR
STARTCHAR 013F
ENCODING 319
SWIDTH 600 0
DWIDTH 10 0
BBX 7 12 2 0
BITMAP
80
80
80
80
80
98
88
80
80
80
80
FE
ENDCHAR
STARTCHAR 0140
ENCODING 320
SWIDTH 600 0
DWIDTH 10 0
BBX 8 13 1 0
BITMAP
F0
F0
10
10
10
13
11
10
10
10
10
10
FE
ENDCHAR
STARTCHAR 0141
ENCODING 321
SWIDTH 600 0
DWIDTH 10 0
BBX 9 12 0 0
BITMAP
2000
2000
2000
2000
2400
3800
E000
2000
2000
2000
2000
3F80
ENDCHAR
STARTCHAR 0142
ENCODING 322
SWIDTH 600 0
DWIDTH 10 0
BBX 7 13 2 0
BITMAP
F0
F0
10
10
16
1C
70
D0
10
10
10
10
FE
ENDCHAR
STARTCHAR 0143
ENCODING 323
SWIDTH 600 0
DWIDTH 10 0
BBX 8 15 1 0
BITMAP
0E
18
00
C3
E3
E3
F3
D3
DB
CB
CF
C7
C7
C3
C3
ENDCHAR
STARTCHAR 0144
ENCODING 324
SWIDTH 600 0
DWIDTH 10 0
BBX 8 12 1 0
BITMAP
0E
18
00
DE
E3
C3
C3
C3
C3
C3
C3
C3
ENDCHAR
STARTCHAR 0145
ENCODING 325
SWIDTH 600 0
DWIDTH 10 0
BBX 8 15 1 -3
BITMAP
C3
E3
E3
F3
D3
DB
CB
CF
C7
C7
C3
C3
18
10
30
ENDCHAR
STARTCHAR 0146
ENCODING 326
SWIDTH 600 0
DWIDTH 10 0
BBX 8 12 1 -3
BITMAP
DE
E3
C3
C3
C3
C3
C3
C3
C3
18
10
30
ENDCHAR
STARTCHAR 0147
ENCODING 327
SWIDTH 600 0
DWIDTH 10 0
BBX 8 16 1 0
BITMAP
26
3C
18
00
C3
E3
E3
F3
D3
DB
CB
CF
C7
C7
C3
C3
ENDCHAR
STARTCHAR 0148
ENCODING 328
SWIDTH 600 0
DWIDTH 10 0
BBX 8 13 1 0
BITMAP
26
3C
18
00
DE
E3
C3
C3
C3
C3
C3
C3
C3
ENDCHAR
STARTCHAR 0149
ENCODING 329
SWIDTH 600 0
DWIDTH 10 0
BBX 9 13 0 0
BITMAP
4000
4000
C000
8000
6F00
7180
6180
6180
6180
6180
6180
6180
6180
ENDCHAR
STARTCHAR 014A
ENCODING 330
SWIDTH 600 0
DWIDTH 10 0
BBX 8 16 1 -4
BITMAP
C3
E3
E3
F3
D3
DB
CB
CF
C7
C7
C7
C3
03
03
0E
0C
ENDCHAR
STARTCHAR 014B
ENCODING 331
SWIDTH 600 0
DWIDTH 10 0
BBX 7 13 2 -4
BITMAP
BC
CC
86
86
86
86
86
86
86
06
06
1C
18
ENDCHAR
STARTCHAR 014C
ENCODING 332
SWIDTH 600 0
DWIDTH 10 0
BBX 8 15 1 0
BITMAP
7E
00
00
3C
66
C3
C1
81
81
81
81
C1
C3
66
3C
ENDCHAR
STARTCHAR 014D
ENCODING 333
SWIDTH 600 0
DWIDTH 10 0
BBX 8 12 1 0
BITMAP
7E
00
00
3C
66
C3
C1
C1
C1
C3
66
3C
ENDCHAR
STARTCHAR 014E
ENCODING 334
SWIDTH 600 0
DWIDTH 10 0
BBX 8 16 1 0
BITMAP
26
3C
00
00
3C
66
C3
C1
81
81
81
81
C1
C3
66
3C
ENDCHAR
STARTCHAR 014F
ENCODING 335
SWIDTH 600 0
DWIDTH 10 0
BBX 8 13 1 0
BITMAP
26
3C
00
00
3C
66
C3
C1
C1
C1
C3
66
3C
ENDCHAR
STARTCHAR 0150
ENCODING 336
SWIDTH 600 0
DWIDTH 10 0
BBX 8 16 1 0
BITMAP
0B
16
2C
00
3C
66
C3
C1
81
81
81
81
C1
C3
66
3C
ENDCHAR
STARTCHAR 0151
ENCODING 337
SWIDTH 600 0
DWIDTH 10 0
BBX 8 13 1 0
BITMAP
0B
16
2C
00
3C
66
C3
C1
C1
C1
C3
66
3C
ENDCHAR
STARTCHAR 0152
ENCODING 338
SWIDTH 600 0
DWIDTH 10 0
BBX 9 12 1 0
BITMAP
7F80
CC00
8C00
8C00
8C00
8F00
8C00
8C00
8C00
8C00
CC00
7F80
ENDCHAR
STARTCHAR 0153
ENCODING 339
SWIDTH 600 0
DWIDTH 10 0
BBX 10 9 0 0
BITMAP
7B80
4EC0
CCC0
C4C0
C7C0
C400
CC00
4E40
7B80
ENDCHAR
STARTCHAR 0154
ENCODING 340
SWIDTH 600 0
DWIDTH 10 0
BBX 7 15 2 0
BITMAP
1C
30
00
F8
8E
86
82
86
8E
F8
88
8C
84
86
82
ENDCHAR
STARTCHAR 0155
ENCODING 341
SWIDTH 600 0
DWIDTH 10 0
BBX 6 12 3 0
BITMAP
38
60
00
BC
E4
C0
80
80
80
80
80
80
ENDCHAR
STARTCHAR 0156
ENCODING 342
SWIDTH 600 0
DWIDTH 10 0
BBX 7 15 2 -3
BITMAP
F8
8E
86
82
86
8E
F8
88
8C
84
86
82
30
20
60
ENDCHAR
STARTCHAR 0157
ENCODING 343
SWIDTH 600 0
DWIDTH 10 0
BBX 6 12 3 -3
BITMAP
BC
E4
C0
80
80
80
80
80
80
C0
80
80
ENDCHAR
STARTCHAR 0158
ENCODING 344
SWIDTH 600 0
DWIDTH 10 0
BBX 7 16 2 0
BITMAP
4C
78
30
00
F8
8E
86
82
86
8E
F8
88
8C
84
86
82
ENDCHAR
STARTCHAR 0159
ENCODING 345
SWIDTH 600 0
DWIDTH 10 0
BBX 6 13 3 0
BITMAP
98
F0
60
00
BC
E4
C0
80
80
80
80
80
80
ENDCHAR
STARTCHAR 015A
ENCODING 346
SWIDTH 600 0
DWIDTH 10 0
BBX 8 15 1 0
BITMAP
0E
18
00
3E
63
C1
C0
60
38
0E
03
01
C1
63
3E
ENDCHAR
STARTCHAR 015B
ENCODING 347
SWIDTH 600 0
DWIDTH 10 0
BBX 8 12 1 0
BITMAP
0E
18
00
3E
63
43
60
3E
03
C3
63
3E
ENDCHAR
STARTCHAR 015C
ENCODING 348
SWIDTH 600 0
DWIDTH 10 0
BBX 8 16 1 0
BITMAP
08
1C
26
00
3E
63
C1
C0
60
38
0E
03
01
C1
63
3E
ENDCHAR
STARTCHAR 015D
ENCODING 349
SWIDTH 600 0
DWIDTH 10 0
BBX 8 13 1 0
BITMAP
08
1C
26
00
3E
63
43
60
3E
03
C3
63
3E
ENDCHAR
STARTCHAR 015E
ENCODING 350
SWIDTH 600 0
DWIDTH 10 0
BBX 8 16 1 -4
BITMAP
3E
63
C1
C0
60
38
0E
03
01
C1
63
3E
08
04
04
08
ENDCHAR
STARTCHAR 015F
ENCODING 351
SWIDTH 600 0
DWIDTH 10 0
BBX 8 13 1 -4
BITMAP
3E
63
43
60
3E
03
C3
63
3E
08
04
04
08
ENDCHAR
STARTCHAR 0160
ENCODING 352
SWIDTH 600 0
DWIDTH 10 0
BBX 8 16 1 0
BITMAP
26
3C
18
00
3E
63
C1
C0
60
38
0E
03
01
C1
63
3E
ENDCHAR
STARTCHAR 0161
ENCODING 353
SWIDTH 600 0
DWIDTH 10 0
BBX 8 13 1 0
BITMAP
26
3C
18
00
3E
63
43
60
3E
03
C3
63
3E
ENDCHAR
STARTCHAR 0162
ENCODING 354
SWIDTH 600 0
DWIDTH 10 0
BBX 9 16 1 -4
BITMAP
FF80
1800
1800
1800
1800
1800
1800
1800
1800
1800
1800
1800
0800
0400
0400
0800
ENDCHAR
STARTCHAR 0163
ENCODING 355
SWIDTH 600 0
DWIDTH 10 0
BBX 8 15 1 -4
BITMAP
10
10
FF
10
10
10
10
10
10
18
1F
08
04
04
08
ENDCHAR
STARTCHAR 0164
ENCODING 356
SWIDTH 600 0
DWIDTH 10 0
BBX 9 16 1 0
BITMAP
2600
3C00
1800
0000
FF80
1800
1800
1800
1800
1800
1800
1800
1800
1800
1800
1800
ENDCHAR
STARTCHAR 0165
ENCODING 357
SWIDTH 600 0
DWIDTH 10 0
BBX 8 14 1 0
BITMAP
01
01
03
12
10
FF
10
10
10
10
10
10
18
1F
ENDCHAR
STARTCHAR 0166
ENCODING 358
SWIDTH 600 0
DWIDTH 10 0
BBX 9 12 1 0
BITMAP
FF80
1800
1800
1800
3E00
1800
1800
1800
1800
1800
1800
1800
ENDCHAR
STARTCHAR 0167
ENCODING 359
SWIDTH 600 0
DWIDTH 10 0
BBX 8 11 1 0
BITMAP
10
10
FF
10
10
7C
10
10
10
18
1F
ENDCHAR
STARTCHAR 0168
ENCODING 360
SWIDTH 600 0
DWIDTH 10 0
BBX 8 16 1 0
BITMAP
02
7E
40
00
C1
C1
C1
C1
C1
C1
C1
C1
C3
C3
66
3C
ENDCHAR
STARTCHAR 0169
ENCODING 361
SWIDTH 600 0
DWIDTH 10 0
BBX 7 13 2 0
BITMAP
04
FC
80
00
86
86
86
86
86
86
86
CE
7E
ENDCHAR
STARTCHAR 016A
ENCODING 362
SWIDTH 600 0
DWIDTH 10 0
BBX 8 15 1 0
BITMAP
7E
00
00
C1
C1
C1
C1
C1
C1
C1
C1
C3
C3
66
3C
ENDCHAR
STARTCHAR 016B
ENCODING 363
SWIDTH 600 0
DWIDTH 10 0
BBX 7 12 2 0
BITMAP
FC
00
00
86
86
86
86
86
86
86
CE
7E
ENDCHAR
STARTCHAR 016C
ENCODING 364
SWIDTH 600 0
DWIDTH 10 0
BBX 8 15 1 0
BITMAP
26
3C
00
C1
C1
C1
C1
C1
C1
C1
C1
C3
C3
66
3C
ENDCHAR
STARTCHAR 016D
ENCODING 365
SWIDTH 600 0
DWIDTH 10 0
BBX 7 13 2 0
BITMAP
4C
78
00
00
86
86
86
86
86
86
86
CE
7E
ENDCHAR
STARTCHAR 016E
ENCODING 366
SWIDTH 600 0
DWIDTH 10 0
BBX 8 16 1 0
BITMAP
18
24
24
18
C1
C1
C1
C1
C1
C1
C1
C1
C3
C3
66
3C
ENDCHAR
STARTCHAR 016F
ENCODING 367
SWIDTH 600 0
DWIDTH 10 0
BBX 7 14 2 0
BITMAP
30
48
48
30
00
86
86
86
86
86
86
86
CE
7E
ENDCHAR
STARTCHAR 0170
ENCODING 368
SWIDTH 600 0
DWIDTH 10 0
BBX 8 16 1 0
BITMAP
0B
16
2C
00
C1
C1
C1
C1
C1
C1
C1
C1
C3
C3
66
3C
ENDCHAR
STARTCHAR 0171
ENCODING 369
SWIDTH 600 0
DWIDTH 10 0
BBX 7 13 2 0
BITMAP
16
2C
58
00
86
86
86
86
86
86
86
CE
7E
ENDCHAR
STARTCHAR 0172
ENCODING 370
SWIDTH 600 0
DWIDTH 10 0
BBX 8 15 1 -3
BITMAP
C1
C1
C1
C1
C1
C1
C1
C1
C3
C3
66
3C
08
18
0C
ENDCHAR
STARTCHAR 0173
ENCODING 371
SWIDTH 600 0
DWIDTH 10 0
BBX 7 13 2 -4
BITMAP
86
86
86
86
86
86
86
CE
7E
04
08
0E
04
ENDCHAR
STARTCHAR 0174
ENCODING 372
SWIDTH 600 0
DWIDTH 10 0
BBX 9 16 1 0
BITMAP
0800
1C00
2600
0000
9980
9980
9900
9D00
DD00
D500
F500
6500
6700
6700
6300
6200
ENDCHAR
STARTCHAR 0175
ENCODING 373
SWIDTH 600 0
DWIDTH 10 0
BBX 10 13 0 0
BITMAP
0400
0E00
1300
0000
C4C0
4CC0
4C80
4E80
6A80
3280
3380
3300
3100
ENDCHAR
STARTCHAR 0176
ENCODING 374
SWIDTH 600 0
DWIDTH 10 0
BBX 9 16 1 0
BITMAP
0800
1C00
2600
0080
C300
C300
4200
6600
2400
3C00
1800
1800
1800
1800
1800
1800
ENDCHAR
STARTCHAR 0177
ENCODING 375
SWIDTH 600 0
DWIDTH 10 0
BBX 9 17 1 -4
BITMAP
0800
1C00
2600
0000
8180
C300
4300
6600
2600
3400
3C00
1800
1800
1000
3000
E000
C000
ENDCHAR
STARTCHAR 0178
ENCODING 376
SWIDTH 600 0
DWIDTH 10 0
BBX 9 15 1 0
BITMAP
6600
0400
0080
C300
C300
4200
6600
2400
3C00
1800
1800
1800
1800
1800
1800
ENDCHAR
STARTCHAR 0179
ENCODING 377
SWIDTH 600 0
DWIDTH 10 0
BBX 8 15 1 0
BITMAP
0E
18
00
FF
02
06
04
0C
18
10
30
60
40
C0
FF
ENDCHAR
STARTCHAR 017A
ENCODING 378
SWIDTH 600 0
DWIDTH 10 0
BBX 8 12 1 0
BITMAP
0E
18
00
FF
02
06
0C
18
30
60
40
FF
ENDCHAR
STARTCHAR 017B
ENCODING 379
SWIDTH 600 0
DWIDTH 10 0
BBX 8 15 1 0
BITMAP
18
08
00
FF
02
06
04
0C
18
10
30
60
40
C0
FF
ENDCHAR
STARTCHAR 017C
ENCODING 380
SWIDTH 600 0
DWIDTH 10 0
BBX 8 12 1 0
BITMAP
18
08
00
FF
02
06
0C
18
30
60
40
FF
ENDCHAR
STARTCHAR 017D
ENCODING 381
SWIDTH 600 0
DWIDTH 10 0
BBX 8 16 1 0
BITMAP
26
3C
18
00
FF
02
06
04
0C
18
10
30
60
40
C0
FF
ENDCHAR
STARTCHAR 017E
ENCODING 382
SWIDTH 600 0
DWIDTH 10 0
BBX 8 13 1 0
BITMAP
26
3C
18
00
FF
02
06
0C
18
30
60
40
FF
ENDCHAR
STARTCHAR 017F
ENCODING 383
SWIDTH 600 0
DWIDTH 10 0
BBX 5 13 4 0
BITMAP
78
C0
C0
80
80
80
80
80
80
80
80
80
80
ENDCHAR
STARTCHAR 0192
ENCODING 402
SWIDTH 600 0
DWIDTH 10 0
BBX 8 17 1 -4
BITMAP
0F
18
18
18
3C
18
18
18
18
18
18
18
18
18
18
F0
60
ENDCHAR
STARTCHAR 01A0
ENCODING 416
SWIDTH 600 0
DWIDTH 10 0
BBX 9 13 1 0
BITMAP
0080
3C80
6700
C300
C100
8100
8100
8100
8100
C100
C300
6600
3C00
ENDCHAR
STARTCHAR 01A1
ENCODING 417
SWIDTH 600 0
DWIDTH 10 0
BBX 9 10 1 0
BITMAP
0080
3D80
6700
C300
C100
C100
C100
C300
6600
3C00
ENDCHAR
STARTCHAR 01AF
ENCODING 431
SWIDTH 600 0
DWIDTH 10 0
BBX 11 13 1 0
BITMAP
0060
C160
C1C0
C180
C100
C100
C100
C100
C100
C300
C300
6600
3C00
ENDCHAR
STARTCHAR 01B0
ENCODING 432
SWIDTH 600 0
DWIDTH 10 0
BBX 9 10 2 0
BITMAP
0080
8680
8780
8600
8600
8600
8600
8600
CE00
7E00
ENDCHAR
STARTCHAR 01F0
ENCODING 496
SWIDTH 600 0
DWIDTH 10 0
BBX 8 17 1 -4
BITMAP
13
1E
0C
00
7C
0C
0C
0C
0C
0C
0C
0C
0C
0C
0C
78
E0
ENDCHAR
STARTCHAR 01FA
ENCODING 506
SWIDTH 600 0
DWIDTH 10 0
BBX 9 18 1 0
BITMAP
0600
0800
1800
1400
1800
0000
1800
1800
1C00
3400
3400
2600
6600
6200
7F00
C300
C100
8180
ENDCHAR
STARTCHAR 01FB
ENCODING 507
SWIDTH 600 0
DWIDTH 10 0
BBX 8 15 1 0
BITMAP
06
08
18
14
18
00
3C
66
C3
03
7F
C3
C3
C7
7F
ENDCHAR
STARTCHAR 01FC
ENCODING 508
SWIDTH 600 0
DWIDTH 10 0
BBX 10 15 0 0
BITMAP
0380
0600
0000
07C0
0E00
0E00
0E00
1E00
1780
3600
2600
3E00
6200
4200
C3C0
ENDCHAR
STARTCHAR 01FD
ENCODING 509
SWIDTH 600 0
DWIDTH 10 0
BBX 10 12 0 0
BITMAP
0700
0C00
0000
7F80
4CC0
8CC0
0CC0
7FC0
4C00
CC00
CC40
7FC0
ENDCHAR
STARTCHAR 01FE
ENCODING 510
SWIDTH 600 0
DWIDTH 10 0
BBX 9 16 1 -1
BITMAP
0E00
1800
0180
3D00
6600
C300
C500
8D00
8900
9100
9100
E100
E300
6600
FC00
8000
ENDCHAR
STARTCHAR 01FF
ENCODING 511
SWIDTH 600 0
DWIDTH 10 0
BBX 8 13 1 -1
BITMAP
0E
18
02
3E
66
C7
C9
C9
D1
D3
66
3C
40
ENDCHAR
STARTCHAR 0218
ENCODING 536
SWIDTH 600 0
DWIDTH 10 0
BBX 8 16 1 -4
BITMAP
3E
63
C1
C0
60
38
0E
03
01
C1
63
3E
00
0C
08
18
ENDCHAR
STARTCHAR 0219
ENCODING 537
SWIDTH 600 0
DWIDTH 10 0
BBX 8 13 1 -4
BITMAP
3E
63
43
60
3E
03
C3
63
3E
00
18
10
30
ENDCHAR
STARTCHAR 021A
ENCODING 538
SWIDTH 600 0
DWIDTH 10 0
BBX 9 15 1 -3
BITMAP
FF80
1800
1800
1800
1800
1800
1800
1800
1800
1800
1800
1800
1800
1000
3000
ENDCHAR
STARTCHAR 021B
ENCODING 539
SWIDTH 600 0
DWIDTH 10 0
BBX 8 14 1 -3
BITMAP
10
10
FF
10
10
10
10
10
10
18
1F
0C
08
18
ENDCHAR
STARTCHAR 0237
ENCODING 567
SWIDTH 600 0
DWIDTH 10 0
BBX 6 13 1 -4
BITMAP
7C
0C
0C
0C
0C
0C
0C
0C
0C
0C
0C
78
E0
ENDCHAR
STARTCHAR 0259
ENCODING 601
SWIDTH 600 0
DWIDTH 10 0
BBX 8 9 1 0
BITMAP
7C
46
03
01
FF
C1
43
62
3C
ENDCHAR
STARTCHAR 02BC
ENCODING 700
SWIDTH 600 0
DWIDTH 10 0
BBX 2 4 4 9
BITMAP
40
40
C0
80
ENDCHAR
STARTCHAR 02C6
ENCODING 710
SWIDTH 600 0
DWIDTH 10 0
BBX 5 3 2 10
BITMAP
20
70
98
ENDCHAR
STARTCHAR 02C7
ENCODING 711
SWIDTH 600 0
DWIDTH 10 0
BBX 5 3 3 10
BITMAP
98
F0
60
ENDCHAR
STARTCHAR 02C9
ENCODING 713
SWIDTH 600 0
DWIDTH 10 0
BBX 6 1 2 11
BITMAP
FC
ENDCHAR
STARTCHAR 02D8
ENCODING 728
SWIDTH 600 0
DWIDTH 10 0
BBX 5 2 3 10
BITMAP
98
F0
ENDCHAR
STARTCHAR 02D9
ENCODING 729
SWIDTH 600 0
DWIDTH 10 0
BBX 2 2 4 10
BITMAP
C0
40
ENDCHAR
STARTCHAR 02DA
ENCODING 730
SWIDTH 600 0
DWIDTH 10 0
BBX 4 4 3 9
BITMAP
60
90
90
60
ENDCHAR
STARTCHAR 02DB
ENCODING 731
SWIDTH 600 0
DWIDTH 10 0
BBX 3 4 3 -4
BITMAP
60
C0
E0
60
ENDCHAR
STARTCHAR 02DC
ENCODING 732
SWIDTH 600 0
DWIDTH 10 0
BBX 6 3 1 10
BITMAP
04
FC
80
ENDCHAR
STARTCHAR 02DD
ENCODING 733
SWIDTH 600 0
DWIDTH 10 0
BBX 6 3 2 10
BITMAP
2C
58
B0
ENDCHAR
STARTCHAR 02F3
ENCODING 755
SWIDTH 600 0
DWIDTH 10 0
BBX 2 2 4 -3
BITMAP
C0
C0
ENDCHAR
STARTCHAR 0300
ENCODING 768
SWIDTH 600 0
DWIDTH 10 0
BBX 3 3 -7 10
BITMAP
C0
40
60
ENDCHAR
STARTCHAR 0301
ENCODING 769
SWIDTH 600 0
DWIDTH 10 0
BBX 3 3 -6 10
BITMAP
60
40
C0
ENDCHAR
STARTCHAR 0303
ENCODING 771
SWIDTH 600 0
DWIDTH 10 0
BBX 6 3 -8 10
BITMAP
04
FC
80
ENDCHAR
STARTCHAR 0309
ENCODING 777
SWIDTH 600 0
DWIDTH 10 0
BBX 3 4 -6 10
BITMAP
C0
20
60
40
ENDCHAR
STARTCHAR 030F
ENCODING 783
SWIDTH 600 0
DWIDTH 10 0
BBX 6 3 -8 10
BITMAP
B0
58
2C
ENDCHAR
STARTCHAR 0323
ENCODING 803
SWIDTH 600 0
DWIDTH 10 0
BBX 2 2 -6 -3
BITMAP
C0
C0
ENDCHAR
STARTCHAR 0384
ENCODING 900
SWIDTH 600 0
DWIDTH 10 0
BBX 2 3 5 11
BITMAP
C0
80
80
ENDCHAR
STARTCHAR 0385
ENCODING 901
SWIDTH 600 0
DWIDTH 10 0
BBX 6 4 2 10
BITMAP
18
10
CC
44
ENDCHAR
STARTCHAR 0386
ENCODING 902
SWIDTH 600 0
DWIDTH 10 0
BBX 9 14 1 0
BITMAP
6000
4000
5800
1800
1C00
3400
3400
2600
6600
6200
7F00
C300
C100
8180
ENDCHAR
STARTCHAR 0387
ENCODING 903
SWIDTH 600 0
DWIDTH 10 0
BBX 2 2 4 5
BITMAP
C0
C0
ENDCHAR
STARTCHAR 0388
ENCODING 904
SWIDTH 600 0
DWIDTH 10 0
BBX 9 14 0 0
BITMAP
C000
8000
BF80
2000
2000
2000
2000
3F00
2000
2000
2000
2000
2000
3F80
ENDCHAR
STARTCHAR 0389
ENCODING 905
SWIDTH 600 0
DWIDTH 10 0
BBX 9 14 0 0
BITMAP
C000
8000
E080
6080
6080
6080
6080
7F80
6080
6080
6080
6080
6080
6080
ENDCHAR
STARTCHAR 038A
ENCODING 906
SWIDTH 600 0
DWIDTH 10 0
BBX 9 14 0 0
BITMAP
C000
8000
FF80
0C00
0C00
0C00
0C00
0C00
0C00
0C00
0C00
0C00
0C00
7F80
ENDCHAR
STARTCHAR 038C
ENCODING 908
SWIDTH 600 0
DWIDTH 10 0
BBX 9 14 0 0
BITMAP
C000
8000
9E00
3300
6180
6080
4080
4080
4080
4080
6080
6180
3300
1E00
ENDCHAR
STARTCHAR 038E
ENCODING 910
SWIDTH 600 0
DWIDTH 10 0
BBX 11 14 -1 0
BITMAP
C000
C020
B0C0
30C0
1080
1980
0900
0F00
0600
0600
0600
0600
0600
0600
ENDCHAR
STARTCHAR 038F
ENCODING 911
SWIDTH 600 0
DWIDTH 10 0
BBX 9 14 0 0
BITMAP
C000
8000
9E00
3100
6180
4080
4080
4080
4080
4080
6180
2100
1A00
7B80
ENDCHAR
STARTCHAR 0390
ENCODING 912
SWIDTH 600 0
DWIDTH 10 0
BBX 7 13 2 0
BITMAP
18
10
CC
44
F0
30
30
30
30
30
30
12
1E
ENDCHAR
STARTCHAR 0391
ENCODING 913
SWIDTH 600 0
DWIDTH 10 0
BBX 9 12 1 0
BITMAP
1800
1800
1C00
3400
3400
2600
6600
6200
7F00
C300
C100
8180
ENDCHAR
STARTCHAR 0392
ENCODING 914
SWIDTH 600 0
DWIDTH 10 0
BBX 8 12 1 0
BITMAP
FC
C7
C3
C3
C3
FC
C7
C1
C1
C1
C7
FC
ENDCHAR
STARTCHAR 0393
ENCODING 915
SWIDTH 600 0
DWIDTH 10 0
BBX 7 12 2 0
BITMAP
FE
80
80
80
80
80
80
80
80
80
80
80
ENDCHAR
STARTCHAR 0394
ENCODING 916
SWIDTH 600 0
DWIDTH 10 0
BBX 10 12 0 0
BITMAP
0C00
0E00
0E00
1A00
1300
1300
3100
2180
2180
6080
40C0
FFC0
ENDCHAR
STARTCHAR 0395
ENCODING 917
SWIDTH 600 0
DWIDTH 10 0
BBX 7 12 2 0
BITMAP
FE
80
80
80
80
FC
80
80
80
80
80
FE
ENDCHAR
STARTCHAR 0396
ENCODING 918
SWIDTH 600 0
DWIDTH 10 0
BBX 8 12 1 0
BITMAP
FF
02
06
04
0C
18
10
30
60
40
C0
FF
ENDCHAR
STARTCHAR 0397
ENCODING 919
SWIDTH 600 0
DWIDTH 10 0
BBX 8 12 1 0
BITMAP
C1
C1
C1
C1
C1
FF
C1
C1
C1
C1
C1
C1
ENDCHAR
STARTCHAR 0398
ENCODING 920
SWIDTH 600 0
DWIDTH 10 0
BBX 8 12 1 0
BITMAP
3C
66
C3
C1
81
BD
BD
81
C1
C3
66
3C
ENDCHAR
STARTCHAR 0399
ENCODING 921
SWIDTH 600 0
DWIDTH 10 0
BBX 8 12 1 0
BITMAP
FF
18
18
18
18
18
18
18
18
18
18
FF
ENDCHAR
STARTCHAR 039A
ENCODING 922
SWIDTH 600 0
DWIDTH 10 0
BBX 9 12 1 0
BITMAP
C380
C600
C600
CC00
D800
F800
F800
CC00
C600
C600
C300
C180
ENDCHAR
STARTCHAR 039B
ENCODING 923
SWIDTH 600 0
DWIDTH 10 0
BBX 10 12 0 0
BITMAP
0C00
0C00
0E00
1A00
1200
1300
3100
2100
2180
6180
4080
C0C0
ENDCHAR
STARTCHAR 039C
ENCODING 924
SWIDTH 600 0
DWIDTH 10 0
BBX 8 12 1 0
BITMAP
C3
E3
E7
E5
F5
DD
D9
D9
C9
C1
C1
C1
ENDCHAR
STARTCHAR 039D
ENCODING 925
SWIDTH 600 0
DWIDTH 10 0
BBX 8 12 1 0
BITMAP
C3
E3
E3
F3
D3
DB
CB
CF
C7
C7
C3
C3
ENDCHAR
STARTCHAR 039E
ENCODING 926
SWIDTH 600 0
DWIDTH 10 0
BBX 8 12 1 0
BITMAP
FF
00
00
00
00
7E
00
00
00
00
00
FF
ENDCHAR
STARTCHAR 039F
ENCODING 927
SWIDTH 600 0
DWIDTH 10 0
BBX 8 12 1 0
BITMAP
3C
66
C3
C1
81
81
81
81
C1
C3
66
3C
ENDCHAR
STARTCHAR 03A0
ENCODING 928
SWIDTH 600 0
DWIDTH 10 0
BBX 8 12 1 0
BITMAP
FF
C3
C3
C3
C3
C3
C3
C3
C3
C3
C3
C3
ENDCHAR
STARTCHAR 03A1
ENCODING 929
SWIDTH 600 0
DWIDTH 10 0
BBX 8 12 2 0
BITMAP
FC
86
82
83
82
86
FC
80
80
80
80
80
ENDCHAR
STARTCHAR 03A3
ENCODING 931
SWIDTH 600 0
DWIDTH 10 0
BBX 8 12 1 0
BITMAP
FF
C0
60
30
18
0C
18
10
30
60
C0
FF
ENDCHAR
STARTCHAR 03A4
ENCODING 932
SWIDTH 600 0
DWIDTH 10 0
BBX 9 12 1 0
BITMAP
FF80
1800
1800
1800
1800
1800
1800
1800
1800
1800
1800
1800
ENDCHAR
STARTCHAR 03A5
ENCODING 933
SWIDTH 600 0
DWIDTH 10 0
BBX 9 12 1 0
BITMAP
C380
C300
4200
6600
2400
3C00
1800
1800
1800
1800
1800
1800
ENDCHAR
STARTCHAR 03A6
ENCODING 934
SWIDTH 600 0
DWIDTH 10 0
BBX 9 12 1 0
BITMAP
1800
1800
7E00
DB00
9900
9980
9980
9900
DB00
7E00
1800
1800
ENDCHAR
STARTCHAR 03A7
ENCODING 935
SWIDTH 600 0
DWIDTH 10 0
BBX 9 12 1 0
BITMAP
C380
4300
6600
3600
1C00
1800
1800
3C00
2600
6200
4300
C180
ENDCHAR
STARTCHAR 03A8
ENCODING 936
SWIDTH 600 0
DWIDTH 10 0
BBX 8 12 1 0
BITMAP
99
99
99
99
99
99
D9
DB
7E
18
18
18
ENDCHAR
STARTCHAR 03A9
ENCODING 937
SWIDTH 600 0
DWIDTH 10 0
BBX 8 12 1 0
BITMAP
3C
62
C3
81
81
81
81
81
C3
42
34
F7
ENDCHAR
STARTCHAR 03AA
ENCODING 938
SWIDTH 600 0
DWIDTH 10 0
BBX 8 15 1 0
BITMAP
66
04
00
FF
18
18
18
18
18
18
18
18
18
18
FF
ENDCHAR
STARTCHAR 03AB
ENCODING 939
SWIDTH 600 0
DWIDTH 10 0
BBX 9 15 1 0
BITMAP
6600
0400
0080
C300
C300
4200
6600
2400
3C00
1800
1800
1800
1800
1800
1800
ENDCHAR
STARTCHAR 03AC
ENCODING 940
SWIDTH 600 0
DWIDTH 10 0
BBX 9 14 1 0
BITMAP
0C00
0800
0800
0000
0000
3A00
6600
C200
C200
C200
C200
C200
6700
7F80
ENDCHAR
STARTCHAR 03AD
ENCODING 941
SWIDTH 600 0
DWIDTH 10 0
BBX 8 14 1 0
BITMAP
0C
08
08
00
00
7E
43
C1
40
3C
C0
C1
C3
7E
ENDCHAR
STARTCHAR 03AE
ENCODING 942
SWIDTH 600 0
DWIDTH 10 0
BBX 8 17 1 -3
BITMAP
0C
08
08
00
00
DE
E3
C3
C3
C3
C3
C3
C3
C3
03
03
03
ENDCHAR
STARTCHAR 03AF
ENCODING 943
SWIDTH 600 0
DWIDTH 10 0
BBX 7 14 2 0
BITMAP
18
10
10
00
00
F0
30
30
30
30
30
30
12
1E
ENDCHAR
STARTCHAR 03B0
ENCODING 944
SWIDTH 600 0
DWIDTH 10 0
BBX 8 13 1 0
BITMAP
18
10
CC
44
C2
C3
C3
C3
C3
C3
C3
66
3C
ENDCHAR
STARTCHAR 03B1
ENCODING 945
SWIDTH 600 0
DWIDTH 10 0
BBX 9 9 1 0
BITMAP
3A00
6600
C200
C200
C200
C200
C200
6700
7F80
ENDCHAR
STARTCHAR 03B2
ENCODING 946
SWIDTH 600 0
DWIDTH 10 0
BBX 8 15 1 -3
BITMAP
3E
62
C3
C3
C6
DC
C3
C1
C1
C1
E3
FE
C0
C0
C0
ENDCHAR
STARTCHAR 03B3
ENCODING 947
SWIDTH 600 0
DWIDTH 10 0
BBX 9 12 1 -3
BITMAP
8180
C100
4300
6200
2600
3400
3C00
1800
1800
1800
1800
1800
ENDCHAR
STARTCHAR 03B4
ENCODING 948
SWIDTH 600 0
DWIDTH 10 0
BBX 8 13 1 0
BITMAP
3C
62
60
70
3C
7E
43
C1
C1
C1
C3
63
3E
ENDCHAR
STARTCHAR 03B5
ENCODING 949
SWIDTH 600 0
DWIDTH 10 0
BBX 8 9 1 0
BITMAP
7E
43
C1
40
3C
C0
C1
C3
7E
ENDCHAR
STARTCHAR 03B6
ENCODING 950
SWIDTH 600 0
DWIDTH 10 0
BBX 8 15 1 -3
BITMAP
FF
02
04
08
10
20
60
40
C0
40
70
3E
03
02
06
ENDCHAR
STARTCHAR 03B7
ENCODING 951
SWIDTH 600 0
DWIDTH 10 0
BBX 8 12 1 -3
BITMAP
DE
E3
C3
C3
C3
C3
C3
C3
C3
03
03
03
ENDCHAR
STARTCHAR 03B8
ENCODING 952
SWIDTH 600 0
DWIDTH 10 0
BBX 7 12 2 0
BITMAP
78
CC
84
86
86
FE
FE
86
86
84
CC
78
ENDCHAR
STARTCHAR 03B9
ENCODING 953
SWIDTH 600 0
DWIDTH 10 0
BBX 7 9 2 0
BITMAP
F0
30
30
30
30
30
30
12
1E
ENDCHAR
STARTCHAR 03BA
ENCODING 954
SWIDTH 600 0
DWIDTH 10 0
BBX 7 9 2 0
BITMAP
86
8C
98
B0
F0
D8
98
8C
86
ENDCHAR
STARTCHAR 03BB
ENCODING 955
SWIDTH 600 0
DWIDTH 10 0
BBX 9 13 0 0
BITMAP
6000
7000
1800
1800
0800
1C00
1400
1600
3600
2200
6300
6300
C180
ENDCHAR
STARTCHAR 03BC
ENCODING 956
SWIDTH 600 0
DWIDTH 10 0
BBX 7 12 2 -3
BITMAP
86
86
86
86
86
86
86
CE
FE
80
80
80
ENDCHAR
STARTCHAR 03BD
ENCODING 957
SWIDTH 600 0
DWIDTH 10 0
BBX 8 9 1 0
BITMAP
C1
C3
42
66
26
24
3C
18
18
ENDCHAR
STARTCHAR 03BE
ENCODING 958
SWIDTH 600 0
DWIDTH 10 0
BBX 8 15 1 -3
BITMAP
3F
60
60
60
3E
3E
60
40
C0
40
70
1E
03
03
02
ENDCHAR
STARTCHAR 03BF
ENCODING 959
SWIDTH 600 0
DWIDTH 10 0
BBX 8 9 1 0
BITMAP
3C
66
C3
C1
C1
C1
C3
66
3C
ENDCHAR
STARTCHAR 03C0
ENCODING 960
SWIDTH 600 0
DWIDTH 10 0
BBX 9 9 1 0
BITMAP
FF00
4600
4600
4600
4600
4600
4600
4600
4380
ENDCHAR
STARTCHAR 03C1
ENCODING 961
SWIDTH 600 0
DWIDTH 10 0
BBX 8 12 1 -3
BITMAP
3C
66
43
C3
C1
C1
C3
E2
FE
C0
C0
C0
ENDCHAR
STARTCHAR 03C2
ENCODING 962
SWIDTH 600 0
DWIDTH 10 0
BBX 8 13 1 -4
BITMAP
3E
62
C3
C0
C0
C0
C0
60
1E
03
03
06
04
ENDCHAR
STARTCHAR 03C3
ENCODING 963
SWIDTH 600 0
DWIDTH 10 0
BBX 9 9 1 0
BITMAP
3F80
6600
C200
C300
8300
C300
C300
6600
3C00
ENDCHAR
STARTCHAR 03C4
ENCODING 964
SWIDTH 600 0
DWIDTH 10 0
BBX 8 9 1 0
BITMAP
FF
18
18
18
18
18
18
09
0F
ENDCHAR
STARTCHAR 03C5
ENCODING 965
SWIDTH 600 0
DWIDTH 10 0
BBX 8 9 1 0
BITMAP
C6
C3
C3
C3
C3
C3
C3
66
3C
ENDCHAR
STARTCHAR 03C6
ENCODING 966
SWIDTH 600 0
DWIDTH 10 0
BBX 8 13 1 -4
BITMAP
4E
7B
D9
D9
99
D9
D9
7B
3E
18
18
18
18
ENDCHAR
STARTCHAR 03C7
ENCODING 967
SWIDTH 600 0
DWIDTH 10 0
BBX 8 9 1 0
BITMAP
C3
66
34
1C
18
1C
36
62
C3
ENDCHAR
STARTCHAR 03C8
ENCODING 968
SWIDTH 600 0
DWIDTH 10 0
BBX 9 13 1 -4
BITMAP
9B00
9900
9900
9980
9980
9900
D900
7B00
3E00
1800
1800
1800
1800
ENDCHAR
STARTCHAR 03C9
ENCODING 969
SWIDTH 600 0
DWIDTH 10 0
BBX 9 9 1 0
BITMAP
C300
C100
8180
9980
9980
9980
9900
D900
7700
ENDCHAR
STARTCHAR 03CA
ENCODING 970
SWIDTH 600 0
DWIDTH 10 0
BBX 7 12 2 0
BITMAP
CC
08
00
F0
30
30
30
30
30
30
12
1E
ENDCHAR
STARTCHAR 03CB
ENCODING 971
SWIDTH 600 0
DWIDTH 10 0
BBX 8 12 1 0
BITMAP
66
04
00
C6
C3
C3
C3
C3
C3
C3
66
3C
ENDCHAR
STARTCHAR 03CC
ENCODING 972
SWIDTH 600 0
DWIDTH 10 0
BBX 8 14 1 0
BITMAP
0C
08
08
00
00
3C
66
C3
C1
C1
C1
C3
66
3C
ENDCHAR
STARTCHAR 03CD
ENCODING 973
SWIDTH 600 0
DWIDTH 10 0
BBX 8 14 1 0
BITMAP
0C
08
08
00
00
C6
C3
C3
C3
C3
C3
C3
66
3C
ENDCHAR
STARTCHAR 03CE
ENCODING 974
SWIDTH 600 0
DWIDTH 10 0
BBX 9 14 1 0
BITMAP
0C00
0800
0800
0000
0000
C300
C100
8180
9980
9980
9980
9900
D900
7700
ENDCHAR
STARTCHAR 03D1
ENCODING 977
SWIDTH 600 0
DWIDTH 10 0
BBX 9 12 1 0
BITMAP
1E00
3200
3300
3300
3300
1B00
CF80
C300
C300
C200
6600
3C00
ENDCHAR
STARTCHAR 03D2
ENCODING 978
SWIDTH 600 0
DWIDTH 10 0
BBX 10 12 0 0
BITMAP
E0C0
2180
3100
1300
1A00
0E00
0C00
0C00
0C00
0C00
0C00
0C00
ENDCHAR
STARTCHAR 03D6
ENCODING 982
SWIDTH 600 0
DWIDTH 10 0
BBX 10 9 0 0
BITMAP
FFC0
6180
6180
4C80
4C80
4C80
4C80
4D80
7300
ENDCHAR
STARTCHAR 0400
ENCODING 1024
SWIDTH 600 0
DWIDTH 10 0
BBX 7 15 2 0
BITMAP
E0
30
00
FE
80
80
80
80
FC
80
80
80
80
80
FE
ENDCHAR
STARTCHAR 0401
ENCODING 1025
SWIDTH 600 0
DWIDTH 10 0
BBX 7 15 2 0
BITMAP
CC
08
00
FE
80
80
80
80
FC
80
80
80
80
80
FE
ENDCHAR
STARTCHAR 0402
ENCODING 1026
SWIDTH 600 0
DWIDTH 10 0
BBX 10 12 0 0
BITMAP
FF80
1800
1800
1800
1800
1F00
1980
1880
18C0
1880
1980
1B00
ENDCHAR
STARTCHAR 0403
ENCODING 1027
SWIDTH 600 0
DWIDTH 10 0
BBX 7 15 2 0
BITMAP
1C
30
00
FE
80
80
80
80
80
80
80
80
80
80
80
ENDCHAR
STARTCHAR 0404
ENCODING 1028
SWIDTH 600 0
DWIDTH 10 0
BBX 8 12 1 0
BITMAP
3E
63
C1
C1
C0
FC
FC
C0
C1
C1
63
3E
ENDCHAR
STARTCHAR 0405
ENCODING 1029
SWIDTH 600 0
DWIDTH 10 0
BBX 8 12 1 0
BITMAP
3E
63
C1
C0
60
38
0E
03
01
C1
63
3E
ENDCHAR
STARTCHAR 0406
ENCODING 1030
SWIDTH 600 0
DWIDTH 10 0
BBX 8 12 1 0
BITMAP
FF
18
18
18
18
18
18
18
18
18
18
FF
ENDCHAR
STARTCHAR 0407
ENCODING 1031
SWIDTH 600 0
DWIDTH 10 0
BBX 8 15 1 0
BITMAP
66
04
00
FF
18
18
18
18
18
18
18
18
18
18
FF
ENDCHAR
STARTCHAR 0408
ENCODING 1032
SWIDTH 600 0
DWIDTH 10 0
BBX 8 12 1 0
BITMAP
03
03
03
03
03
03
03
03
83
C3
C6
7C
ENDCHAR
STARTCHAR 0409
ENCODING 1033
SWIDTH 600 0
DWIDTH 10 0
BBX 10 12 0 0
BITMAP
3C00
2400
2400
2400
2400
2780
6480
64C0
64C0
64C0
4480
C780
ENDCHAR
STARTCHAR 040A
ENCODING 1034
SWIDTH 600 0
DWIDTH 10 0
BBX 9 12 1 0
BITMAP
C800
C800
C800
C800
C800
FE00
CB00
C980
C980
C980
CB00
CE00
ENDCHAR
STARTCHAR 040B
ENCODING 1035
SWIDTH 600 0
DWIDTH 10 0
BBX 8 12 1 0
BITMAP
FF
30
30
30
30
3E
33
31
31
31
31
31
ENDCHAR
STARTCHAR 040C
ENCODING 1036
SWIDTH 600 0
DWIDTH 10 0
BBX 9 15 1 0
BITMAP
0E00
1800
0080
C300
C600
C600
CC00
D800
F800
F800
CC00
C600
C600
C300
C180
ENDCHAR
STARTCHAR 040D
ENCODING 1037
SWIDTH 600 0
DWIDTH 10 0
BBX 8 15 1 0
BITMAP
70
18
00
C3
C3
C7
C7
CF
CB
DB
D3
F3
E3
E3
C3
ENDCHAR
STARTCHAR 040E
ENCODING 1038
SWIDTH 600 0
DWIDTH 10 0
BBX 10 15 0 0
BITMAP
1300
1E00
0000
C0C0
6080
2180
3100
3300
1B00
1A00
0E00
0C00
0C00
0800
7800
ENDCHAR
STARTCHAR 040F
ENCODING 1039
SWIDTH 600 0
DWIDTH 10 0
BBX 8 15 1 -3
BITMAP
C3
C3
C3
C3
C3
C3
C3
C3
C3
C3
C3
FF
18
18
18
ENDCHAR
STARTCHAR 0410
ENCODING 1040
SWIDTH 600 0
DWIDTH 10 0
BBX 9 12 1 0
BITMAP
1800
1800
1C00
3400
3400
2600
6600
6200
7F00
C300
C100
8180
ENDCHAR
STARTCHAR 0411
ENCODING 1041
SWIDTH 600 0
DWIDTH 10 0
BBX 8 12 1 0
BITMAP
FF
C0
C0
C0
C0
FE
C3
C3
C1
C3
C7
FC
ENDCHAR
STARTCHAR 0412
ENCODING 1042
SWIDTH 600 0
DWIDTH 10 0
BBX 8 12 1 0
BITMAP
FC
C7
C3
C3
C3
FC
C7
C1
C1
C1
C7
FC
ENDCHAR
STARTCHAR 0413
ENCODING 1043
SWIDTH 600 0
DWIDTH 10 0
BBX 7 12 2 0
BITMAP
FE
80
80
80
80
80
80
80
80
80
80
80
ENDCHAR
STARTCHAR 0414
ENCODING 1044
SWIDTH 600 0
DWIDTH 10 0
BBX 9 15 1 -3
BITMAP
3E00
3200
2200
2200
2200
2200
2200
2200
6200
6200
C280
FF00
8100
8100
8100
ENDCHAR
STARTCHAR 0415
ENCODING 1045
SWIDTH 600 0
DWIDTH 10 0
BBX 7 12 2 0
BITMAP
FE
80
80
80
80
FC
80
80
80
80
80
FE
ENDCHAR
STARTCHAR 0416
ENCODING 1046
SWIDTH 600 0
DWIDTH 10 0
BBX 10 12 0 0
BITMAP
6CC0
6D80
6D80
2D00
3D00
3F00
3F00
3D00
2D80
6D80
6C80
CCC0
ENDCHAR
STARTCHAR 0417
ENCODING 1047
SWIDTH 600 0
DWIDTH 10 0
BBX 8 12 1 0
BITMAP
7E
C3
C1
01
03
1E
07
01
01
81
C3
7E
ENDCHAR
STARTCHAR 0418
ENCODING 1048
SWIDTH 600 0
DWIDTH 10 0
BBX 8 12 1 0
BITMAP
C3
C3
C7
C7
CF
CB
DB
D3
F3
E3
E3
C3
ENDCHAR
STARTCHAR 0419
ENCODING 1049
SWIDTH 600 0
DWIDTH 10 0
BBX 8 15 1 0
BITMAP
26
3C
00
C3
C3
C7
C7
CF
CB
DB
D3
F3
E3
E3
C3
ENDCHAR
STARTCHAR 041A
ENCODING 1050
SWIDTH 600 0
DWIDTH 10 0
BBX 9 12 1 0
BITMAP
C180
C300
C600
CC00
C800
F800
F800
CC00
C600
C600
C300
C180
ENDCHAR
STARTCHAR 041B
ENCODING 1051
SWIDTH 600 0
DWIDTH 10 0
BBX 9 12 0 0
BITMAP
3F80
3180
3180
3180
3180
3180
3180
3180
3180
3180
6180
C180
ENDCHAR
STARTCHAR 041C
ENCODING 1052
SWIDTH 600 0
DWIDTH 10 0
BBX 8 12 1 0
BITMAP
C3
E3
E7
E5
F5
DD
D9
D9
C9
C1
C1
C1
ENDCHAR
STARTCHAR 041D
ENCODING 1053
SWIDTH 600 0
DWIDTH 10 0
BBX 8 12 1 0
BITMAP
C1
C1
C1
C1
C1
FF
C1
C1
C1
C1
C1
C1
ENDCHAR
STARTCHAR 041E
ENCODING 1054
SWIDTH 600 0
DWIDTH 10 0
BBX 8 12 1 0
BITMAP
3C
66
C3
C1
81
81
81
81
C1
C3
66
3C
ENDCHAR
STARTCHAR 041F
ENCODING 1055
SWIDTH 600 0
DWIDTH 10 0
BBX 8 12 1 0
BITMAP
FF
C3
C3
C3
C3
C3
C3
C3
C3
C3
C3
C3
ENDCHAR
STARTCHAR 0420
ENCODING 1056
SWIDTH 600 0
DWIDTH 10 0
BBX 8 12 2 0
BITMAP
FC
86
82
83
82
86
FC
80
80
80
80
80
ENDCHAR
STARTCHAR 0421
ENCODING 1057
SWIDTH 600 0
DWIDTH 10 0
BBX 8 12 1 0
BITMAP
3E
63
C3
C1
80
80
80
80
C1
C3
63
3E
ENDCHAR
STARTCHAR 0422
ENCODING 1058
SWIDTH 600 0
DWIDTH 10 0
BBX 9 12 1 0
BITMAP
FF80
1800
1800
1800
1800
1800
1800
1800
1800
1800
1800
1800
ENDCHAR
STARTCHAR 0423
ENCODING 1059
SWIDTH 600 0
DWIDTH 10 0
BBX 10 12 0 0
BITMAP
C0C0
6080
2180
3100
3300
1B00
1A00
0E00
0C00
0C00
0800
7800
ENDCHAR
STARTCHAR 0424
ENCODING 1060
SWIDTH 600 0
DWIDTH 10 0
BBX 9 12 1 0
BITMAP
1800
1800
7E00
DB00
9900
9980
9980
9900
DB00
7E00
1800
1800
ENDCHAR
STARTCHAR 0425
ENCODING 1061
SWIDTH 600 0
DWIDTH 10 0
BBX 9 12 1 0
BITMAP
C380
4300
6600
3600
1C00
1800
1800
3C00
2600
6200
4300
C180
ENDCHAR
STARTCHAR 0426
ENCODING 1062
SWIDTH 600 0
DWIDTH 10 0
BBX 9 15 1 -3
BITMAP
C300
C300
C300
C300
C300
C300
C300
C300
C300
C300
C300
FF80
0180
0180
0180
ENDCHAR
STARTCHAR 0427
ENCODING 1063
SWIDTH 600 0
DWIDTH 10 0
BBX 8 12 1 0
BITMAP
C3
C3
C3
C3
C3
43
7F
03
03
03
03
03
ENDCHAR
STARTCHAR 0428
ENCODING 1064
SWIDTH 600 0
DWIDTH 10 0
BBX 8 12 1 0
BITMAP
D9
D9
D9
D9
D9
D9
D9
D9
D9
D9
D9
FF
ENDCHAR
STARTCHAR 0429
ENCODING 1065
SWIDTH 600 0
DWIDTH 10 0
BBX 9 15 1 -3
BITMAP
D900
D900
D900
D900
D900
D900
D900
D900
D900
D900
D900
FF80
0180
0180
0180
ENDCHAR
STARTCHAR 042A
ENCODING 1066
SWIDTH 600 0
DWIDTH 10 0
BBX 10 12 0 0
BITMAP
F000
1000
1000
1000
1000
1F00
1180
1080
10C0
1080
1180
1F00
ENDCHAR
STARTCHAR 042B
ENCODING 1067
SWIDTH 600 0
DWIDTH 10 0
BBX 8 12 1 0
BITMAP
C1
C1
C1
C1
C1
F9
C9
CD
CD
CD
D9
F1
ENDCHAR
STARTCHAR 042C
ENCODING 1068
SWIDTH 600 0
DWIDTH 10 0
BBX 8 12 1 0
BITMAP
C0
C0
C0
C0
C0
FE
C3
C3
C1
C3
C7
FC
ENDCHAR
STARTCHAR 042D
ENCODING 1069
SWIDTH 600 0
DWIDTH 10 0
BBX 8 12 1 0
BITMAP
3C
46
C3
81
01
1F
1F
01
81
C3
46
3C
ENDCHAR
STARTCHAR 042E
ENCODING 1070
SWIDTH 600 0
DWIDTH 10 0
BBX 8 12 1 0
BITMAP
CE
D3
D1
F1
F1
F1
F1
F1
F1
D1
DB
CE
ENDCHAR
STARTCHAR 042F
ENCODING 1071
SWIDTH 600 0
DWIDTH 10 0
BBX 8 12 1 0
BITMAP
3F
E3
C3
C3
C3
63
3F
23
63
43
C3
83
ENDCHAR
STARTCHAR 0430
ENCODING 1072
SWIDTH 600 0
DWIDTH 10 0
BBX 8 9 1 0
BITMAP
3C
66
C3
03
7F
C3
C3
C7
7F
ENDCHAR
STARTCHAR 0431
ENCODING 1073
SWIDTH 600 0
DWIDTH 10 0
BBX 8 13 1 0
BITMAP
02
0E
3C
60
40
BE
C3
C3
C1
C3
C3
66
3C
ENDCHAR
STARTCHAR 0432
ENCODING 1074
SWIDTH 600 0
DWIDTH 10 0
BBX 8 9 1 0
BITMAP
FC
C6
C3
C2
FE
C3
C3
C3
FE
ENDCHAR
STARTCHAR 0433
ENCODING 1075
SWIDTH 600 0
DWIDTH 10 0
BBX 7 9 2 0
BITMAP
FE
80
80
80
80
80
80
80
80
ENDCHAR
STARTCHAR 0434
ENCODING 1076
SWIDTH 600 0
DWIDTH 10 0
BBX 10 12 0 -3
BITMAP
1F80
1180
1180
1180
1180
3180
3180
3180
FFC0
40C0
40C0
40C0
ENDCHAR
STARTCHAR 0435
ENCODING 1077
SWIDTH 600 0
DWIDTH 10 0
BBX 8 9 1 0
BITMAP
3C
62
C3
C1
FF
C0
C0
63
3E
ENDCHAR
STARTCHAR 0436
ENCODING 1078
SWIDTH 600 0
DWIDTH 10 0
BBX 10 9 0 0
BITMAP
CCC0
6D80
2D00
3F00
1F00
3F00
6D80
6D80
CCC0
ENDCHAR
STARTCHAR 0437
ENCODING 1079
SWIDTH 600 0
DWIDTH 10 0
BBX 8 9 1 0
BITMAP
3E
63
C3
03
3E
03
C1
C3
7E
ENDCHAR
STARTCHAR 0438
ENCODING 1080
SWIDTH 600 0
DWIDTH 10 0
BBX 8 9 1 0
BITMAP
C3
C7
C7
CF
DB
D3
F3
E3
C3
ENDCHAR
STARTCHAR 0439
ENCODING 1081
SWIDTH 600 0
DWIDTH 10 0
BBX 8 13 1 0
BITMAP
26
3C
00
00
C3
C7
C7
CF
DB
D3
F3
E3
C3
ENDCHAR
STARTCHAR 043A
ENCODING 1082
SWIDTH 600 0
DWIDTH 10 0
BBX 9 9 1 0
BITMAP
C300
C600
CC00
D800
F800
CC00
C600
C600
C380
ENDCHAR
STARTCHAR 043B
ENCODING 1083
SWIDTH 600 0
DWIDTH 10 0
BBX 9 9 0 0
BITMAP
3F80
3180
3180
3180
3180
3180
3180
6180
E180
ENDCHAR
STARTCHAR 043C
ENCODING 1084
SWIDTH 600 0
DWIDTH 10 0
BBX 8 9 1 0
BITMAP
C3
E3
E7
E7
E7
FF
DB
DB
DB
ENDCHAR
STARTCHAR 043D
ENCODING 1085
SWIDTH 600 0
DWIDTH 10 0
BBX 8 9 1 0
BITMAP
C3
C3
C3
C3
FF
C3
C3
C3
C3
ENDCHAR
STARTCHAR 043E
ENCODING 1086
SWIDTH 600 0
DWIDTH 10 0
BBX 8 9 1 0
BITMAP
3C
66
C3
C1
C1
C1
C3
66
3C
ENDCHAR
STARTCHAR 043F
ENCODING 1087
SWIDTH 600 0
DWIDTH 10 0
BBX 8 9 1 0
BITMAP
FF
C3
C3
C3
C3
C3
C3
C3
C3
ENDCHAR
STARTCHAR 0440
ENCODING 1088
SWIDTH 600 0
DWIDTH 10 0
BBX 8 12 1 -3
BITMAP
FC
E6
C3
C3
C3
C3
C3
E6
FC
C0
C0
C0
ENDCHAR
STARTCHAR 0441
ENCODING 1089
SWIDTH 600 0
DWIDTH 10 0
BBX 8 9 1 0
BITMAP
3E
62
C3
C0
C0
C0
C3
63
3C
ENDCHAR
STARTCHAR 0442
ENCODING 1090
SWIDTH 600 0
DWIDTH 10 0
BBX 9 9 1 0
BITMAP
FF80
1800
1800
1800
1800
1800
1800
1800
1800
ENDCHAR
STARTCHAR 0443
ENCODING 1091
SWIDTH 600 0
DWIDTH 10 0
BBX 9 13 1 -4
BITMAP
8180
C300
4300
6600
2600
3400
3C00
1800
1800
1000
3000
E000
C000
ENDCHAR
STARTCHAR 0444
ENCODING 1092
SWIDTH 600 0
DWIDTH 10 0
BBX 8 16 1 -3
BITMAP
18
18
18
18
3C
7E
DB
D9
D9
D9
DB
7E
3C
18
18
18
ENDCHAR
STARTCHAR 0445
ENCODING 1093
SWIDTH 600 0
DWIDTH 10 0
BBX 8 9 1 0
BITMAP
C3
66
34
1C
18
1C
36
62
C3
ENDCHAR
STARTCHAR 0446
ENCODING 1094
SWIDTH 600 0
DWIDTH 10 0
BBX 9 12 1 -3
BITMAP
C300
C300
C300
C300
C300
C300
C300
C300
FF80
0180
0180
0180
ENDCHAR
STARTCHAR 0447
ENCODING 1095
SWIDTH 600 0
DWIDTH 10 0
BBX 8 9 1 0
BITMAP
C3
C3
C3
C3
63
3F
03
03
03
ENDCHAR
STARTCHAR 0448
ENCODING 1096
SWIDTH 600 0
DWIDTH 10 0
BBX 8 9 1 0
BITMAP
D9
D9
D9
D9
D9
D9
D9
D9
FF
ENDCHAR
STARTCHAR 0449
ENCODING 1097
SWIDTH 600 0
DWIDTH 10 0
BBX 9 12 1 -3
BITMAP
DB00
DB00
DB00
DB00
DB00
DB00
DB00
DB00
FF80
0180
0180
0180
ENDCHAR
STARTCHAR 044A
ENCODING 1098
SWIDTH 600 0
DWIDTH 10 0
BBX 9 9 0 0
BITMAP
F800
1800
1800
1E00
1F80
1880
1880
1980
1F00
ENDCHAR
STARTCHAR 044B
ENCODING 1099
SWIDTH 600 0
DWIDTH 10 0
BBX 8 9 1 0
BITMAP
C3
C3
C3
E3
FB
CB
CF
DB
F3
ENDCHAR
STARTCHAR 044C
ENCODING 1100
SWIDTH 600 0
DWIDTH 10 0
BBX 8 9 1 0
BITMAP
C0
C0
C0
FC
FE
C3
C3
C3
FE
ENDCHAR
STARTCHAR 044D
ENCODING 1101
SWIDTH 600 0
DWIDTH 10 0
BBX 8 9 1 0
BITMAP
3C
46
C3
03
1F
03
C3
46
7C
ENDCHAR
STARTCHAR 044E
ENCODING 1102
SWIDTH 600 0
DWIDTH 10 0
BBX 9 9 1 0
BITMAP
8E00
9B00
9100
9180
F180
9180
9100
9B00
8E00
ENDCHAR
STARTCHAR 044F
ENCODING 1103
SWIDTH 600 0
DWIDTH 10 0
BBX 8 9 1 0
BITMAP
7F
C3
C3
C3
7F
23
63
43
C3
ENDCHAR
STARTCHAR 0450
ENCODING 1104
SWIDTH 600 0
DWIDTH 10 0
BBX 8 12 1 0
BITMAP
70
18
00
3C
62
C3
C1
FF
C0
C0
63
3E
ENDCHAR
STARTCHAR 0451
ENCODING 1105
SWIDTH 600 0
DWIDTH 10 0
BBX 8 12 1 0
BITMAP
66
04
00
3C
62
C3
C1
FF
C0
C0
63
3E
ENDCHAR
STARTCHAR 0452
ENCODING 1106
SWIDTH 600 0
DWIDTH 10 0
BBX 9 17 0 -4
BITMAP
6000
6000
F800
6000
6F00
7100
6180
6180
6180
6180
6180
6180
6180
0180
0180
0700
0600
ENDCHAR
STARTCHAR 0453
ENCODING 1107
SWIDTH 600 0
DWIDTH 10 0
BBX 7 12 2 0
BITMAP
1C
30
00
FE
80
80
80
80
80
80
80
80
ENDCHAR
STARTCHAR 0454
ENCODING 1108
SWIDTH 600 0
DWIDTH 10 0
BBX 8 9 1 0
BITMAP
3E
62
C3
C0
F8
C0
C3
63
3C
ENDCHAR
STARTCHAR 0455
ENCODING 1109
SWIDTH 600 0
DWIDTH 10 0
BBX 8 9 1 0
BITMAP
3E
63
43
60
3E
03
C3
63
3E
ENDCHAR
STARTCHAR 0456
ENCODING 1110
SWIDTH 600 0
DWIDTH 10 0
BBX 7 12 2 0
BITMAP
10
10
00
F0
10
10
10
10
10
10
10
FE
ENDCHAR
STARTCHAR 0457
ENCODING 1111
SWIDTH 600 0
DWIDTH 10 0
BBX 7 12 2 0
BITMAP
CC
08
00
F0
10
10
10
10
10
10
10
FE
ENDCHAR
STARTCHAR 0458
ENCODING 1112
SWIDTH 600 0
DWIDTH 10 0
BBX 5 16 2 -4
BITMAP
18
08
00
F8
18
18
18
18
18
18
18
18
18
18
F0
E0
ENDCHAR
STARTCHAR 0459
ENCODING 1113
SWIDTH 600 0
DWIDTH 10 0
BBX 10 9 0 0
BITMAP
3C00
2400
2400
2700
2780
24C0
24C0
64C0
C780
ENDCHAR
STARTCHAR 045A
ENCODING 1114
SWIDTH 600 0
DWIDTH 10 0
BBX 9 9 1 0
BITMAP
C800
C800
C800
FE00
FF00
C980
C980
C900
CF00
ENDCHAR
STARTCHAR 045B
ENCODING 1115
SWIDTH 600 0
DWIDTH 10 0
BBX 9 13 0 0
BITMAP
6000
6000
FC00
6000
6F00
7180
6180
6180
6180
6180
6180
6180
6180
ENDCHAR
STARTCHAR 045C
ENCODING 1116
SWIDTH 600 0
DWIDTH 10 0
BBX 9 12 1 0
BITMAP
1C00
3000
0000
C300
C600
CC00
D800
F800
CC00
C600
C600
C380
ENDCHAR
STARTCHAR 045D
ENCODING 1117
SWIDTH 600 0
DWIDTH 10 0
BBX 8 12 1 0
BITMAP
70
18
00
C3
C7
C7
CF
DB
D3
F3
E3
C3
ENDCHAR
STARTCHAR 045E
ENCODING 1118
SWIDTH 600 0
DWIDTH 10 0
BBX 9 17 1 -4
BITMAP
2600
3C00
0000
0000
8180
C300
4300
6600
2600
3400
3C00
1800
1800
1000
3000
E000
C000
ENDCHAR
STARTCHAR 045F
ENCODING 1119
SWIDTH 600 0
DWIDTH 10 0
BBX 8 12 1 -3
BITMAP
C3
C3
C3
C3
C3
C3
C3
C3
FF
18
18
18
ENDCHAR
STARTCHAR 0460
ENCODING 1120
SWIDTH 600 0
DWIDTH 10 0
BBX 9 12 1 0
BITMAP
9980
9980
9980
9980
9980
9980
9980
9980
9980
9980
D900
7700
ENDCHAR
STARTCHAR 0461
ENCODING 1121
SWIDTH 600 0
DWIDTH 10 0
BBX 9 9 1 0
BITMAP
9980
9980
9980
9980
9980
9980
9980
D900
7F00
ENDCHAR
STARTCHAR 0462
ENCODING 1122
SWIDTH 600 0
DWIDTH 10 0
BBX 9 12 0 0
BITMAP
6000
6000
F800
6000
6000
7F00
6180
6180
6080
6180
6380
7E00
ENDCHAR
STARTCHAR 0463
ENCODING 1123
SWIDTH 600 0
DWIDTH 10 0
BBX 9 13 0 0
BITMAP
2000
2000
2000
FC00
2000
2000
2000
3E00
3F00
2180
2180
2180
3F00
ENDCHAR
STARTCHAR 0464
ENCODING 1124
SWIDTH 600 0
DWIDTH 10 0
BBX 9 12 1 0
BITMAP
CF00
D900
D980
D000
D000
FE00
D000
D000
D000
D980
D900
CF00
ENDCHAR
STARTCHAR 0465
ENCODING 1125
SWIDTH 600 0
DWIDTH 10 0
BBX 9 9 1 0
BITMAP
CF00
C900
D980
D800
FE00
D800
D980
C900
CF00
ENDCHAR
STARTCHAR 0466
ENCODING 1126
SWIDTH 600 0
DWIDTH 10 0
BBX 10 12 0 0
BITMAP
0C00
0C00
0E00
1A00
1200
1300
3100
3F00
2D80
6C80
4C80
CCC0
ENDCHAR
STARTCHAR 0467
ENCODING 1127
SWIDTH 600 0
DWIDTH 10 0
BBX 9 9 1 0
BITMAP
1800
1800
3C00
2400
2600
7E00
7F00
DB00
9980
ENDCHAR
STARTCHAR 0468
ENCODING 1128
SWIDTH 600 0
DWIDTH 10 0
BBX 9 12 1 0
BITMAP
8400
8600
8E00
8A00
8A00
8B00
9B00
FF00
9500
9500
B580
B580
ENDCHAR
STARTCHAR 0469
ENCODING 1129
SWIDTH 600 0
DWIDTH 10 0
BBX 9 9 1 0
BITMAP
8400
8E00
8E00
8A00
9B00
FF00
FF00
B580
B580
ENDCHAR
STARTCHAR 046A
ENCODING 1130
SWIDTH 600 0
DWIDTH 10 0
BBX 9 12 1 0
BITMAP
FF00
4200
6600
2400
3C00
3E00
FF00
9980
9980
9980
9980
9980
ENDCHAR
STARTCHAR 046B
ENCODING 1131
SWIDTH 600 0
DWIDTH 10 0
BBX 8 9 1 0
BITMAP
FF
66
26
3C
7E
DB
99
99
99
ENDCHAR
STARTCHAR 046C
ENCODING 1132
SWIDTH 600 0
DWIDTH 10 0
BBX 9 12 1 0
BITMAP
BF80
9300
9B00
8A00
8E00
FE00
FF00
B580
A580
A580
A580
A580
ENDCHAR
STARTCHAR 046D
ENCODING 1133
SWIDTH 600 0
DWIDTH 10 0
BBX 9 9 1 0
BITMAP
BF80
9B00
9A00
8A00
FF00
B500
A580
A580
A580
ENDCHAR
STARTCHAR 046E
ENCODING 1134
SWIDTH 600 0
DWIDTH 10 0
BBX 7 20 2 -4
BITMAP
C8
70
00
00
F8
0C
06
06
04
78
1C
06
06
06
0C
F8
80
80
C0
40
ENDCHAR
STARTCHAR 046F
ENCODING 1135
SWIDTH 600 0
DWIDTH 10 0
BBX 7 17 2 -4
BITMAP
C8
30
00
00
F8
0C
04
0C
78
0C
06
0C
F8
C0
80
E0
40
ENDCHAR
STARTCHAR 0470
ENCODING 1136
SWIDTH 600 0
DWIDTH 10 0
BBX 8 12 1 0
BITMAP
99
99
99
99
99
99
D9
DB
7E
18
18
18
ENDCHAR
STARTCHAR 0471
ENCODING 1137
SWIDTH 600 0
DWIDTH 10 0
BBX 9 13 1 -4
BITMAP
9B00
9900
9900
9980
9980
9900
D900
7B00
3E00
1800
1800
1800
1800
ENDCHAR
STARTCHAR 0472
ENCODING 1138
SWIDTH 600 0
DWIDTH 10 0
BBX 8 12 1 0
BITMAP
3C
66
C3
C1
81
FF
FF
81
C1
C3
66
3C
ENDCHAR
STARTCHAR 0473
ENCODING 1139
SWIDTH 600 0
DWIDTH 10 0
BBX 8 9 1 0
BITMAP
3C
66
C3
83
FF
83
C3
66
3C
ENDCHAR
STARTCHAR 0474
ENCODING 1140
SWIDTH 600 0
DWIDTH 10 0
BBX 10 12 0 0
BITMAP
C0C0
4080
6180
6180
2100
3300
1300
1200
1A00
0E00
0C00
0C00
ENDCHAR
STARTCHAR 0475
ENCODING 1141
SWIDTH 600 0
DWIDTH 10 0
BBX 8 9 1 0
BITMAP
83
C6
46
44
6C
2C
28
18
10
ENDCHAR
STARTCHAR 0476
ENCODING 1142
SWIDTH 600 0
DWIDTH 10 0
BBX 10 16 0 0
BITMAP
5800
2C00
1600
0000
C0C0
4080
6180
6180
2100
3300
1300
1200
1A00
0E00
0C00
0C00
ENDCHAR
STARTCHAR 0477
ENCODING 1143
SWIDTH 600 0
DWIDTH 10 0
BBX 8 13 1 0
BITMAP
B0
58
2C
00
83
C6
46
44
6C
2C
28
18
10
ENDCHAR
STARTCHAR 0478
ENCODING 1144
SWIDTH 600 0
DWIDTH 10 0
BBX 9 16 1 -4
BITMAP
E000
9000
9000
9480
9580
9580
9700
9700
9300
9300
B300
E200
0200
0200
0E00
0400
ENDCHAR
STARTCHAR 0479
ENCODING 1145
SWIDTH 600 0
DWIDTH 10 0
BBX 10 13 0 -4
BITMAP
3A40
4AC0
4FC0
CF80
CF80
CD80
4D80
4980
3900
0100
0100
0700
0200
ENDCHAR
STARTCHAR 047A
ENCODING 1146
SWIDTH 600 0
DWIDTH 10 0
BBX 8 14 1 -1
BITMAP
18
3C
7E
C3
C1
81
81
81
81
C1
C3
7E
3C
18
ENDCHAR
STARTCHAR 047B
ENCODING 1147
SWIDTH 600 0
DWIDTH 10 0
BBX 8 11 1 -1
BITMAP
18
3C
7E
C3
C1
C1
C1
C3
7E
3C
18
ENDCHAR
STARTCHAR 047C
ENCODING 1148
SWIDTH 600 0
DWIDTH 10 0
BBX 9 16 1 0
BITMAP
1000
3E00
2200
0800
7200
C300
8180
8180
8180
9980
9980
9980
9980
9980
9900
FF00
ENDCHAR
STARTCHAR 047D
ENCODING 1149
SWIDTH 600 0
DWIDTH 10 0
BBX 9 12 1 0
BITMAP
3C00
2200
0800
7B00
C100
8100
8180
9980
9980
9980
D900
7F00
ENDCHAR
STARTCHAR 047E
ENCODING 1150
SWIDTH 600 0
DWIDTH 10 0
BBX 9 15 1 0
BITMAP
7E00
0800
0000
9980
9980
9980
9980
9980
9980
9980
9980
9980
9980
D900
7700
ENDCHAR
STARTCHAR 047F
ENCODING 1151
SWIDTH 600 0
DWIDTH 10 0
BBX 9 12 1 0
BITMAP
7E00
1800
0000
9980
9980
9980
9980
9980
9980
9980
D900
7F00
ENDCHAR
STARTCHAR 0480
ENCODING 1152
SWIDTH 600 0
DWIDTH 10 0
BBX 8 15 1 -3
BITMAP
3E
63
41
C1
C0
C0
C0
C0
C0
40
60
3C
0C
0C
0C
ENDCHAR
STARTCHAR 0481
ENCODING 1153
SWIDTH 600 0
DWIDTH 10 0
BBX 7 12 2 -3
BITMAP
7C
C6
86
80
80
80
80
C0
70
10
10
10
ENDCHAR
STARTCHAR 0482
ENCODING 1154
SWIDTH 600 0
DWIDTH 10 0
BBX 9 11 1 0
BITMAP
0300
1200
3E00
0E00
0F00
8880
F000
3000
2C00
6400
4000
ENDCHAR
STARTCHAR 0483
ENCODING 1155
SWIDTH 600 0
DWIDTH 10 0
BBX 6 3 2 10
BITMAP
0C
FC
80
ENDCHAR
STARTCHAR 0484
ENCODING 1156
SWIDTH 600 0
DWIDTH 10 0
BBX 6 2 2 11
BITMAP
1C
E4
ENDCHAR
STARTCHAR 0485
ENCODING 1157
SWIDTH 600 0
DWIDTH 10 0
BBX 2 2 4 11
BITMAP
80
40
ENDCHAR
STARTCHAR 0486
ENCODING 1158
SWIDTH 600 0
DWIDTH 10 0
BBX 2 2 5 11
BITMAP
C0
80
ENDCHAR
STARTCHAR 0488
ENCODING 1160
SWIDTH 600 0
DWIDTH 10 0
BBX 16 15 -3 -3
BITMAP
01C0
0200
300C
2812
0000
0000
6002
9005
0000
0000
0000
381E
0000
0180
0240
ENDCHAR
STARTCHAR 0489
ENCODING 1161
SWIDTH 600 0
DWIDTH 10 0
BBX 16 15 -3 -3
BITMAP
0080
0180
1104
1818
1010
0000
0000
E006
1001
0000
0000
0810
3088
0188
0100
ENDCHAR
STARTCHAR 048A
ENCODING 1162
SWIDTH 600 0
DWIDTH 10 0
BBX 9 18 1 -3
BITMAP
2600
3C00
0000
C300
C300
C700
C700
CF00
CB00
DB00
D300
F300
E300
E380
C380
0080
0180
0100
ENDCHAR
STARTCHAR 048B
ENCODING 1163
SWIDTH 600 0
DWIDTH 10 0
BBX 9 16 1 -3
BITMAP
2600
3C00
0000
0000
C300
C700
C700
CF00
DB00
D300
F300
E380
C380
0080
0180
0100
ENDCHAR
STARTCHAR 048C
ENCODING 1164
SWIDTH 600 0
DWIDTH 10 0
BBX 9 12 0 0
BITMAP
6000
6000
F800
6000
6000
7F00
6180
6180
6080
6180
6380
7E00
ENDCHAR
STARTCHAR 048D
ENCODING 1165
SWIDTH 600 0
DWIDTH 10 0
BBX 9 9 0 0
BITMAP
6000
F800
6000
7E00
7F00
6180
6180
6180
7F00
ENDCHAR
STARTCHAR 048E
ENCODING 1166
SWIDTH 600 0
DWIDTH 10 0
BBX 8 12 2 0
BITMAP
FC
86
82
83
92
9E
FC
86
84
80
80
80
ENDCHAR
STARTCHAR 048F
ENCODING 1167
SWIDTH 600 0
DWIDTH 10 0
BBX 8 12 1 -3
BITMAP
FC
E6
C3
C3
C3
C3
CF
E6
FE
C1
C0
C0
ENDCHAR
STARTCHAR 0490
ENCODING 1168
SWIDTH 600 0
DWIDTH 10 0
BBX 7 15 2 0
BITMAP
02
02
02
FE
80
80
80
80
80
80
80
80
80
80
80
ENDCHAR
STARTCHAR 0491
ENCODING 1169
SWIDTH 600 0
DWIDTH 10 0
BBX 7 12 2 0
BITMAP
06
06
06
FE
80
80
80
80
80
80
80
80
ENDCHAR
STARTCHAR 0492
ENCODING 1170
SWIDTH 600 0
DWIDTH 10 0
BBX 9 12 0 0
BITMAP
7F80
6000
6000
6000
6000
F800
6000
6000
6000
6000
6000
6000
ENDCHAR
STARTCHAR 0493
ENCODING 1171
SWIDTH 600 0
DWIDTH 10 0
BBX 9 9 0 0
BITMAP
3F80
2000
2000
2000
F800
2000
2000
2000
2000
ENDCHAR
STARTCHAR 0494
ENCODING 1172
SWIDTH 600 0
DWIDTH 10 0
BBX 8 14 2 -2
BITMAP
FE
80
80
80
80
F8
8C
86
82
83
83
82
06
0C
ENDCHAR
STARTCHAR 0495
ENCODING 1173
SWIDTH 600 0
DWIDTH 10 0
BBX 7 11 2 -2
BITMAP
FE
80
80
80
FC
86
86
82
82
06
0C
ENDCHAR
STARTCHAR 0496
ENCODING 1174
SWIDTH 600 0
DWIDTH 10 0
BBX 11 15 0 -3
BITMAP
6CC0
6D80
6D80
2D00
3D00
3F00
3F00
3D00
2D80
6D80
6C80
CCE0
0060
0060
0060
ENDCHAR
STARTCHAR 0497
ENCODING 1175
SWIDTH 600 0
DWIDTH 10 0
BBX 11 12 0 -3
BITMAP
CCC0
6D80
2D00
3F00
1F00
3F00
6D80
6D80
CCE0
0060
0060
0060
ENDCHAR
STARTCHAR 0498
ENCODING 1176
SWIDTH 600 0
DWIDTH 10 0
BBX 8 16 1 -4
BITMAP
7E
C3
C1
01
03
1E
07
01
01
81
C3
7E
18
18
18
18
ENDCHAR
STARTCHAR 0499
ENCODING 1177
SWIDTH 600 0
DWIDTH 10 0
BBX 8 13 1 -4
BITMAP
3E
63
C3
03
3E
03
C1
C3
7E
18
18
18
18
ENDCHAR
STARTCHAR 049A
ENCODING 1178
SWIDTH 600 0
DWIDTH 10 0
BBX 10 15 1 -3
BITMAP
C180
C300
C600
CC00
C800
F800
F800
CC00
C600
C600
C300
C1C0
00C0
00C0
00C0
ENDCHAR
STARTCHAR 049B
ENCODING 1179
SWIDTH 600 0
DWIDTH 10 0
BBX 9 12 1 -3
BITMAP
C300
C600
CC00
D800
F800
CC00
C600
C600
C380
0180
0180
0180
ENDCHAR
STARTCHAR 049C
ENCODING 1180
SWIDTH 600 0
DWIDTH 10 0
BBX 9 12 1 0
BITMAP
C180
C300
C300
D600
D600
FC00
FC00
D600
D600
C300
C300
C180
ENDCHAR
STARTCHAR 049D
ENCODING 1181
SWIDTH 600 0
DWIDTH 10 0
BBX 9 9 1 0
BITMAP
C300
C200
D600
DC00
FC00
DC00
D600
C300
C380
ENDCHAR
STARTCHAR 049E
ENCODING 1182
SWIDTH 600 0
DWIDTH 10 0
BBX 10 12 0 0
BITMAP
60C0
F980
FB00
6200
6600
7C00
7C00
6600
6300
6300
6180
60C0
ENDCHAR
STARTCHAR 049F
ENCODING 1183
SWIDTH 600 0
DWIDTH 10 0
BBX 9 13 0 0
BITMAP
2000
2000
F800
2000
2180
2200
2400
2C00
3C00
3600
2200
2300
2180
ENDCHAR
STARTCHAR 04A0
ENCODING 1184
SWIDTH 600 0
DWIDTH 10 0
BBX 10 12 0 0
BITMAP
F8C0
1980
1900
1B00
1A00
1E00
1E00
1B00
1B00
1980
1980
18C0
ENDCHAR
STARTCHAR 04A1
ENCODING 1185
SWIDTH 600 0
DWIDTH 10 0
BBX 10 9 0 0
BITMAP
F8C0
1980
1B00
1A00
1E00
1B00
1900
1980
18C0
ENDCHAR
STARTCHAR 04A2
ENCODING 1186
SWIDTH 600 0
DWIDTH 10 0
BBX 9 15 1 -3
BITMAP
C100
C100
C100
C100
C100
FF00
C100
C100
C100
C100
C100
C180
0180
0180
0180
ENDCHAR
STARTCHAR 04A3
ENCODING 1187
SWIDTH 600 0
DWIDTH 10 0
BBX 9 12 1 -3
BITMAP
C300
C300
C300
C300
FF00
C300
C300
C300
C380
0180
0180
0180
ENDCHAR
STARTCHAR 04A4
ENCODING 1188
SWIDTH 600 0
DWIDTH 10 0
BBX 9 12 1 0
BITMAP
8780
8400
8400
8400
8400
FC00
FC00
8400
8400
8400
8400
8400
ENDCHAR
STARTCHAR 04A5
ENCODING 1189
SWIDTH 600 0
DWIDTH 10 0
BBX 9 9 1 0
BITMAP
8780
8400
8400
8400
FC00
8400
8400
8400
8400
ENDCHAR
STARTCHAR 04A6
ENCODING 1190
SWIDTH 600 0
DWIDTH 10 0
BBX 9 14 1 -2
BITMAP
F800
8800
8800
8800
8800
8E00
8B00
8900
8980
8980
8980
8980
0100
0300
ENDCHAR
STARTCHAR 04A7
ENCODING 1191
SWIDTH 600 0
DWIDTH 10 0
BBX 9 11 1 -2
BITMAP
F800
D800
D800
D800
DE00
DB00
D900
D980
D900
0300
0600
ENDCHAR
STARTCHAR 04A8
ENCODING 1192
SWIDTH 600 0
DWIDTH 10 0
BBX 8 12 1 0
BITMAP
6E
DB
DB
91
91
91
91
99
DB
CB
6E
3F
ENDCHAR
STARTCHAR 04A9
ENCODING 1193
SWIDTH 600 0
DWIDTH 10 0
BBX 9 9 1 0
BITMAP
6E00
DB00
9900
9900
9900
9900
CB00
6E00
3F80
ENDCHAR
STARTCHAR 04AA
ENCODING 1194
SWIDTH 600 0
DWIDTH 10 0
BBX 8 16 1 -4
BITMAP
3E
63
C3
C1
80
80
80
80
C1
C3
63
3E
18
18
18
18
ENDCHAR
STARTCHAR 04AB
ENCODING 1195
SWIDTH 600 0
DWIDTH 10 0
BBX 8 13 1 -4
BITMAP
3E
62
C3
C0
C0
C0
C3
63
3C
18
18
18
18
ENDCHAR
STARTCHAR 04AC
ENCODING 1196
SWIDTH 600 0
DWIDTH 10 0
BBX 9 15 1 -3
BITMAP
FF80
1800
1800
1800
1800
1800
1800
1800
1800
1800
1800
1C00
0C00
0C00
0C00
ENDCHAR
STARTCHAR 04AD
ENCODING 1197
SWIDTH 600 0
DWIDTH 10 0
BBX 9 12 1 -3
BITMAP
FF80
1800
1800
1800
1800
1800
1800
1800
1C00
0C00
0C00
0C00
ENDCHAR
STARTCHAR 04AE
ENCODING 1198
SWIDTH 600 0
DWIDTH 10 0
BBX 9 12 1 0
BITMAP
C380
C300
4200
6600
2400
3C00
1800
1800
1800
1800
1800
1800
ENDCHAR
STARTCHAR 04AF
ENCODING 1199
SWIDTH 600 0
DWIDTH 10 0
BBX 9 12 1 -3
BITMAP
8180
C100
4300
6200
2600
3400
3C00
1800
1800
1800
1800
1800
ENDCHAR
STARTCHAR 04B0
ENCODING 1200
SWIDTH 600 0
DWIDTH 10 0
BBX 9 12 1 0
BITMAP
C380
C300
4200
6600
2400
3C00
7E00
7E00
1800
1800
1800
1800
ENDCHAR
STARTCHAR 04B1
ENCODING 1201
SWIDTH 600 0
DWIDTH 10 0
BBX 9 12 1 -3
BITMAP
8180
C100
4300
6200
2600
3400
3C00
1800
3E00
1800
1800
1800
ENDCHAR
STARTCHAR 04B2
ENCODING 1202
SWIDTH 600 0
DWIDTH 10 0
BBX 10 15 1 -3
BITMAP
C380
4300
6600
3600
1C00
1800
1800
3C00
2600
6200
4300
C1C0
00C0
00C0
00C0
ENDCHAR
STARTCHAR 04B3
ENCODING 1203
SWIDTH 600 0
DWIDTH 10 0
BBX 9 12 1 -3
BITMAP
C300
6600
3400
1C00
1800
1C00
3600
6200
C380
0180
0180
0180
ENDCHAR
STARTCHAR 04B4
ENCODING 1204
SWIDTH 600 0
DWIDTH 10 0
BBX 10 15 0 -3
BITMAP
FD80
1180
1180
1180
1180
1180
1180
1180
1180
1180
1180
1FC0
00C0
00C0
00C0
ENDCHAR
STARTCHAR 04B5
ENCODING 1205
SWIDTH 600 0
DWIDTH 10 0
BBX 10 12 0 -3
BITMAP
FD80
3180
3180
3180
3180
3180
3180
3180
3FC0
00C0
00C0
00C0
ENDCHAR
STARTCHAR 04B6
ENCODING 1206
SWIDTH 600 0
DWIDTH 10 0
BBX 9 15 1 -3
BITMAP
C300
C300
C300
C300
C300
4300
7F00
0300
0300
0300
0300
0380
0180
0180
0180
ENDCHAR
STARTCHAR 04B7
ENCODING 1207
SWIDTH 600 0
DWIDTH 10 0
BBX 9 12 1 -3
BITMAP
C300
C300
C300
C300
6300
3F00
0300
0300
0380
0180
0180
0180
ENDCHAR
STARTCHAR 04B8
ENCODING 1208
SWIDTH 600 0
DWIDTH 10 0
BBX 8 12 1 0
BITMAP
C3
C3
C3
C3
DB
5B
7F
1B
1B
03
03
03
ENDCHAR
STARTCHAR 04B9
ENCODING 1209
SWIDTH 600 0
DWIDTH 10 0
BBX 8 9 1 0
BITMAP
C3
C3
C3
DB
7B
3F
1B
03
03
ENDCHAR
STARTCHAR 04BA
ENCODING 1210
SWIDTH 600 0
DWIDTH 10 0
BBX 7 12 2 0
BITMAP
80
80
80
80
90
FE
86
82
82
82
82
82
ENDCHAR
STARTCHAR 04BB
ENCODING 1211
SWIDTH 600 0
DWIDTH 10 0
BBX 8 13 1 0
BITMAP
C0
C0
C0
C0
DE
E3
C3
C3
C3
C3
C3
C3
C3
ENDCHAR
STARTCHAR 04BC
ENCODING 1212
SWIDTH 600 0
DWIDTH 10 0
BBX 10 12 0 0
BITMAP
0F00
1980
1080
D0C0
70C0
7FC0
3000
3000
1000
1000
1880
0F80
ENDCHAR
STARTCHAR 04BD
ENCODING 1213
SWIDTH 600 0
DWIDTH 10 0
BBX 10 9 0 0
BITMAP
0F00
1980
D080
70C0
3FC0
3000
1000
1880
0F80
ENDCHAR
STARTCHAR 04BE
ENCODING 1214
SWIDTH 600 0
DWIDTH 10 0
BBX 10 16 0 -4
BITMAP
0F00
1980
1080
D0C0
70C0
7FC0
3000
3000
1000
1000
1880
0F80
0300
0300
0300
0300
ENDCHAR
STARTCHAR 04BF
ENCODING 1215
SWIDTH 600 0
DWIDTH 10 0
BBX 10 13 0 -4
BITMAP
0F00
1980
D080
70C0
3FC0
3000
1000
1880
0F80
0600
0600
0600
0600
ENDCHAR
STARTCHAR 04C0
ENCODING 1216
SWIDTH 600 0
DWIDTH 10 0
BBX 8 12 1 0
BITMAP
FF
18
18
18
18
18
18
18
18
18
18
FF
ENDCHAR
STARTCHAR 04C1
ENCODING 1217
SWIDTH 600 0
DWIDTH 10 0
BBX 10 15 0 0
BITMAP
1300
1E00
0000
6CC0
6D80
6D80
2D00
3D00
3F00
3F00
3D00
2D80
6D80
6C80
CCC0
ENDCHAR
STARTCHAR 04C2
ENCODING 1218
SWIDTH 600 0
DWIDTH 10 0
BBX 10 13 0 0
BITMAP
1300
1E00
0000
0000
CCC0
6D80
2D00
3F00
1F00
3F00
6D80
6D80
CCC0
ENDCHAR
STARTCHAR 04C3
ENCODING 1219
SWIDTH 600 0
DWIDTH 10 0
BBX 8 14 2 -2
BITMAP
87
84
8C
98
90
F8
9E
86
83
83
83
82
06
0C
ENDCHAR
STARTCHAR 04C4
ENCODING 1220
SWIDTH 600 0
DWIDTH 10 0
BBX 7 11 2 -2
BITMAP
86
8C
98
B0
F8
8C
86
86
86
1C
08
ENDCHAR
STARTCHAR 04C5
ENCODING 1221
SWIDTH 600 0
DWIDTH 10 0
BBX 10 15 0 -3
BITMAP
3F80
3180
3180
3180
3180
3180
3180
3180
3180
3180
61C0
C1C0
0040
00C0
0080
ENDCHAR
STARTCHAR 04C6
ENCODING 1222
SWIDTH 600 0
DWIDTH 10 0
BBX 10 12 0 -3
BITMAP
3F80
3180
3180
3180
3180
3180
3180
61C0
E1C0
0040
00C0
0080
ENDCHAR
STARTCHAR 04C7
ENCODING 1223
SWIDTH 600 0
DWIDTH 10 0
BBX 7 16 2 -4
BITMAP
86
86
86
86
86
FE
FE
86
86
86
86
86
06
06
1C
18
ENDCHAR
STARTCHAR 04C8
ENCODING 1224
SWIDTH 600 0
DWIDTH 10 0
BBX 8 13 1 -4
BITMAP
C3
C3
C3
C3
FF
C3
C3
C3
C3
03
03
0E
0C
ENDCHAR
STARTCHAR 04C9
ENCODING 1225
SWIDTH 600 0
DWIDTH 10 0
BBX 9 15 1 -3
BITMAP
C100
C100
C100
C100
C100
FF00
C100
C100
C100
C100
C180
C180
0080
0180
0100
ENDCHAR
STARTCHAR 04CA
ENCODING 1226
SWIDTH 600 0
DWIDTH 10 0
BBX 9 12 1 -3
BITMAP
C300
C300
C300
C300
FF00
C300
C300
C380
C380
0080
0180
0100
ENDCHAR
STARTCHAR 04CB
ENCODING 1227
SWIDTH 600 0
DWIDTH 10 0
BBX 8 15 1 -3
BITMAP
C3
C3
C3
C3
C3
43
7F
03
03
03
03
07
06
06
06
ENDCHAR
STARTCHAR 04CC
ENCODING 1228
SWIDTH 600 0
DWIDTH 10 0
BBX 8 12 1 -3
BITMAP
C3
C3
C3
C3
63
3F
03
03
07
06
06
06
ENDCHAR
STARTCHAR 04CD
ENCODING 1229
SWIDTH 600 0
DWIDTH 10 0
BBX 9 15 1 -3
BITMAP
C300
E300
E700
E500
F500
DD00
D900
D900
C900
C100
C180
C180
0080
0180
0100
ENDCHAR
STARTCHAR 04CE
ENCODING 1230
SWIDTH 600 0
DWIDTH 10 0
BBX 9 12 1 -3
BITMAP
C300
E300
E700
E700
E700
FF00
DB00
DB80
DB80
0080
0180
0100
ENDCHAR
STARTCHAR 04CF
ENCODING 1231
SWIDTH 600 0
DWIDTH 10 0
BBX 8 12 1 0
BITMAP
FF
18
18
18
18
18
18
18
18
18
18
FF
ENDCHAR
STARTCHAR 04D0
ENCODING 1232
SWIDTH 600 0
DWIDTH 10 0
BBX 9 15 1 0
BITMAP
2600
3C00
0000
1800
1800
1C00
3400
3400
2600
6600
6200
7F00
C300
C100
8180
ENDCHAR
STARTCHAR 04D1
ENCODING 1233
SWIDTH 600 0
DWIDTH 10 0
BBX 8 13 1 0
BITMAP
26
3C
00
00
3C
66
C3
03
7F
C3
C3
C7
7F
ENDCHAR
STARTCHAR 04D2
ENCODING 1234
SWIDTH 600 0
DWIDTH 10 0
BBX 9 15 1 0
BITMAP
6600
0400
0000
1800
1800
1C00
3400
3400
2600
6600
6200
7F00
C300
C100
8180
ENDCHAR
STARTCHAR 04D3
ENCODING 1235
SWIDTH 600 0
DWIDTH 10 0
BBX 8 12 1 0
BITMAP
66
04
00
3C
66
C3
03
7F
C3
C3
C7
7F
ENDCHAR
STARTCHAR 04D4
ENCODING 1236
SWIDTH 600 0
DWIDTH 10 0
BBX 10 12 0 0
BITMAP
07C0
0E00
0E00
0E00
1E00
1780
3600
2600
3E00
6200
4200
C3C0
ENDCHAR
STARTCHAR 04D5
ENCODING 1237
SWIDTH 600 0
DWIDTH 10 0
BBX 10 9 0 0
BITMAP
7F80
4CC0
8CC0
0CC0
7FC0
4C00
CC00
CC40
7FC0
ENDCHAR
STARTCHAR 04D6
ENCODING 1238
SWIDTH 600 0
DWIDTH 10 0
BBX 7 15 2 0
BITMAP
4C
78
00
FE
80
80
80
80
FC
80
80
80
80
80
FE
ENDCHAR
STARTCHAR 04D7
ENCODING 1239
SWIDTH 600 0
DWIDTH 10 0
BBX 8 13 1 0
BITMAP
26
3C
00
00
3C
62
C3
C1
FF
C0
C0
63
3E
ENDCHAR
STARTCHAR 04D8
ENCODING 1240
SWIDTH 600 0
DWIDTH 10 0
BBX 8 12 1 0
BITMAP
7C
46
03
01
01
01
FF
81
83
C3
46
3C
ENDCHAR
STARTCHAR 04D9
ENCODING 1241
SWIDTH 600 0
DWIDTH 10 0
BBX 8 9 1 0
BITMAP
7C
46
03
01
FF
C1
43
62
3C
ENDCHAR
STARTCHAR 04DA
ENCODING 1242
SWIDTH 600 0
DWIDTH 10 0
BBX 8 15 1 0
BITMAP
66
04
00
7C
46
03
01
01
01
FF
81
83
C3
46
3C
ENDCHAR
STARTCHAR 04DB
ENCODING 1243
SWIDTH 600 0
DWIDTH 10 0
BBX 8 12 1 0
BITMAP
66
04
00
7C
46
03
01
FF
C1
43
62
3C
ENDCHAR
STARTCHAR 04DC
ENCODING 1244
SWIDTH 600 0
DWIDTH 10 0
BBX 10 15 0 0
BITMAP
3300
0200
0000
6CC0
6D80
6D80
2D00
3D00
3F00
3F00
3D00
2D80
6D80
6C80
CCC0
ENDCHAR
STARTCHAR 04DD
ENCODING 1245
SWIDTH 600 0
DWIDTH 10 0
BBX 10 12 0 0
BITMAP
3300
0200
0000
CCC0
6D80
2D00
3F00
1F00
3F00
6D80
6D80
CCC0
ENDCHAR
STARTCHAR 04DE
ENCODING 1246
SWIDTH 600 0
DWIDTH 10 0
BBX 8 15 1 0
BITMAP
66
04
00
7E
C3
C1
01
03
1E
07
01
01
81
C3
7E
ENDCHAR
STARTCHAR 04DF
ENCODING 1247
SWIDTH 600 0
DWIDTH 10 0
BBX 8 12 1 0
BITMAP
66
04
00
3E
63
C3
03
3E
03
C1
C3
7E
ENDCHAR
STARTCHAR 04E0
ENCODING 1248
SWIDTH 600 0
DWIDTH 10 0
BBX 8 12 1 0
BITMAP
7F
02
04
0C
18
1C
03
03
01
C3
63
3E
ENDCHAR
STARTCHAR 04E1
ENCODING 1249
SWIDTH 600 0
DWIDTH 10 0
BBX 8 12 1 -3
BITMAP
FF
02
06
0C
18
1C
06
03
01
C3
63
7E
ENDCHAR
STARTCHAR 04E2
ENCODING 1250
SWIDTH 600 0
DWIDTH 10 0
BBX 8 15 1 0
BITMAP
7E
00
00
C3
C3
C7
C7
CF
CB
DB
D3
F3
E3
E3
C3
ENDCHAR
STARTCHAR 04E3
ENCODING 1251
SWIDTH 600 0
DWIDTH 10 0
BBX 8 12 1 0
BITMAP
7E
00
00
C3
C7
C7
CF
DB
D3
F3
E3
C3
ENDCHAR
STARTCHAR 04E4
ENCODING 1252
SWIDTH 600 0
DWIDTH 10 0
BBX 8 15 1 0
BITMAP
66
04
00
C3
C3
C7
C7
CF
CB
DB
D3
F3
E3
E3
C3
ENDCHAR
STARTCHAR 04E5
ENCODING 1253
SWIDTH 600 0
DWIDTH 10 0
BBX 8 12 1 0
BITMAP
66
04
00
C3
C7
C7
CF
DB
D3
F3
E3
C3
ENDCHAR
STARTCHAR 04E6
ENCODING 1254
SWIDTH 600 0
DWIDTH 10 0
BBX 8 15 1 0
BITMAP
66
04
00
3C
66
C3
C1
81
81
81
81
C1
C3
66
3C
ENDCHAR
STARTCHAR 04E7
ENCODING 1255
SWIDTH 600 0
DWIDTH 10 0
BBX 8 12 1 0
BITMAP
66
04
00
3C
66
C3
C1
C1
C1
C3
66
3C
ENDCHAR
STARTCHAR 04E8
ENCODING 1256
SWIDTH 600 0
DWIDTH 10 0
BBX 8 12 1 0
BITMAP
3C
66
C3
C1
81
FF
FF
81
C1
C3
66
3C
ENDCHAR
STARTCHAR 04E9
ENCODING 1257
SWIDTH 600 0
DWIDTH 10 0
BBX 8 9 1 0
BITMAP
3C
66
C3
83
FF
83
C3
66
3C
ENDCHAR
STARTCHAR 04EA
ENCODING 1258
SWIDTH 600 0
DWIDTH 10 0
BBX 8 15 1 0
BITMAP
66
04
00
3C
66
C3
C1
81
FF
FF
81
C1
C3
66
3C
ENDCHAR
STARTCHAR 04EB
ENCODING 1259
SWIDTH 600 0
DWIDTH 10 0
BBX 8 12 1 0
BITMAP
66
04
00
3C
66
C3
83
FF
83
C3
66
3C
ENDCHAR
STARTCHAR 04EC
ENCODING 1260
SWIDTH 600 0
DWIDTH 10 0
BBX 8 15 1 0
BITMAP
66
04
00
3C
46
C3
81
01
1F
1F
01
81
C3
46
3C
ENDCHAR
STARTCHAR 04ED
ENCODING 1261
SWIDTH 600 0
DWIDTH 10 0
BBX 8 12 1 0
BITMAP
66
04
00
3C
46
C3
03
1F
03
C3
46
7C
ENDCHAR
STARTCHAR 04EE
ENCODING 1262
SWIDTH 600 0
DWIDTH 10 0
BBX 10 15 0 0
BITMAP
3F00
0000
0000
C0C0
6080
2180
3100
3300
1B00
1A00
0E00
0C00
0C00
0800
7800
ENDCHAR
STARTCHAR 04EF
ENCODING 1263
SWIDTH 600 0
DWIDTH 10 0
BBX 9 16 1 -4
BITMAP
7E00
0000
0000
8180
C300
4300
6600
2600
3400
3C00
1800
1800
1000
3000
E000
C000
ENDCHAR
STARTCHAR 04F0
ENCODING 1264
SWIDTH 600 0
DWIDTH 10 0
BBX 10 15 0 0
BITMAP
3300
0200
0000
C0C0
6080
2180
3100
3300
1B00
1A00
0E00
0C00
0C00
0800
7800
ENDCHAR
STARTCHAR 04F1
ENCODING 1265
SWIDTH 600 0
DWIDTH 10 0
BBX 9 16 1 -4
BITMAP
6600
0400
0000
8180
C300
4300
6600
2600
3400
3C00
1800
1800
1000
3000
E000
C000
ENDCHAR
STARTCHAR 04F2
ENCODING 1266
SWIDTH 600 0
DWIDTH 10 0
BBX 10 16 0 0
BITMAP
0580
0B00
1600
0000
C0C0
6080
2180
3100
3300
1B00
1A00
0E00
0C00
0C00
0800
7800
ENDCHAR
STARTCHAR 04F3
ENCODING 1267
SWIDTH 600 0
DWIDTH 10 0
BBX 9 17 1 -4
BITMAP
0B00
1600
2C00
0000
8180
C300
4300
6600
2600
3400
3C00
1800
1800
1000
3000
E000
C000
ENDCHAR
STARTCHAR 04F4
ENCODING 1268
SWIDTH 600 0
DWIDTH 10 0
BBX 8 15 1 0
BITMAP
CC
08
00
C3
C3
C3
C3
C3
43
7F
03
03
03
03
03
ENDCHAR
STARTCHAR 04F5
ENCODING 1269
SWIDTH 600 0
DWIDTH 10 0
BBX 8 12 1 0
BITMAP
66
04
00
C3
C3
C3
C3
63
3F
03
03
03
ENDCHAR
STARTCHAR 04F6
ENCODING 1270
SWIDTH 600 0
DWIDTH 10 0
BBX 7 15 2 -3
BITMAP
FE
80
80
80
80
80
80
80
80
80
80
C0
C0
C0
C0
ENDCHAR
STARTCHAR 04F7
ENCODING 1271
SWIDTH 600 0
DWIDTH 10 0
BBX 7 12 2 -3
BITMAP
FE
80
80
80
80
80
80
80
C0
C0
C0
C0
ENDCHAR
STARTCHAR 04F8
ENCODING 1272
SWIDTH 600 0
DWIDTH 10 0
BBX 8 15 1 0
BITMAP
66
04
00
C1
C1
C1
C1
C1
F9
C9
CD
CD
CD
D9
F1
ENDCHAR
STARTCHAR 04F9
ENCODING 1273
SWIDTH 600 0
DWIDTH 10 0
BBX 8 12 1 0
BITMAP
33
02
00
C3
C3
C3
E3
FB
CB
CF
DB
F3
ENDCHAR
STARTCHAR 04FA
ENCODING 1274
SWIDTH 600 0
DWIDTH 10 0
BBX 9 16 1 -4
BITMAP
7F80
6000
6000
6000
F800
F800
6000
6000
6000
6000
6000
7800
1800
1000
7000
6000
ENDCHAR
STARTCHAR 04FB
ENCODING 1275
SWIDTH 600 0
DWIDTH 10 0
BBX 9 13 1 -4
BITMAP
3F80
2000
2000
F800
F800
2000
2000
2000
3000
3000
2000
E000
C000
ENDCHAR
STARTCHAR 04FC
ENCODING 1276
SWIDTH 600 0
DWIDTH 10 0
BBX 10 16 1 -4
BITMAP
C380
4300
6600
3600
1C00
1800
1800
3C00
2600
6200
4300
C1C0
00C0
0080
0380
0300
ENDCHAR
STARTCHAR 04FD
ENCODING 1277
SWIDTH 600 0
DWIDTH 10 0
BBX 9 13 1 -4
BITMAP
C300
6600
3400
1C00
1800
1C00
3600
6200
C380
0180
0100
0700
0600
ENDCHAR
STARTCHAR 04FE
ENCODING 1278
SWIDTH 600 0
DWIDTH 10 0
BBX 9 12 1 0
BITMAP
C380
4300
6600
3600
1C00
3E00
1800
3C00
2600
6200
4300
C180
ENDCHAR
STARTCHAR 04FF
ENCODING 1279
SWIDTH 600 0
DWIDTH 10 0
BBX 8 9 1 0
BITMAP
C3
66
34
1C
7E
1C
36
62
C3
ENDCHAR
STARTCHAR 0500
ENCODING 1280
SWIDTH 600 0
DWIDTH 10 0
BBX 8 12 1 0
BITMAP
03
03
03
03
03
7F
C3
83
83
C3
E3
3F
ENDCHAR
STARTCHAR 0501
ENCODING 1281
SWIDTH 600 0
DWIDTH 10 0
BBX 8 13 1 0
BITMAP
03
03
03
03
3F
67
C3
C3
C3
C3
C3
67
3F
ENDCHAR
STARTCHAR 0502
ENCODING 1282
SWIDTH 600 0
DWIDTH 10 0
BBX 9 12 1 0
BITMAP
0800
0800
0800
0800
0800
7900
C980
8980
8980
8900
CB00
7E00
ENDCHAR
STARTCHAR 0503
ENCODING 1283
SWIDTH 600 0
DWIDTH 10 0
BBX 9 13 1 0
BITMAP
0800
0800
0800
0800
7800
C900
C900
8980
8980
8980
8980
C900
7F00
ENDCHAR
STARTCHAR 0504
ENCODING 1284
SWIDTH 600 0
DWIDTH 10 0
BBX 10 12 0 0
BITMAP
F800
0800
0C00
0C00
0C80
3880
38C0
0CC0
0CC0
0C80
0D80
0700
ENDCHAR
STARTCHAR 0505
ENCODING 1285
SWIDTH 600 0
DWIDTH 10 0
BBX 9 9 1 0
BITMAP
F000
1800
0A00
1900
F100
1980
0900
0900
0F00
ENDCHAR
STARTCHAR 0506
ENCODING 1286
SWIDTH 600 0
DWIDTH 10 0
BBX 8 15 1 -3
BITMAP
F8
0C
06
06
06
7C
7C
06
06
06
07
07
03
03
02
ENDCHAR
STARTCHAR 0507
ENCODING 1287
SWIDTH 600 0
DWIDTH 10 0
BBX 7 12 2 -3
BITMAP
F0
18
0C
08
F0
18
0C
0E
0E
06
06
0C
ENDCHAR
STARTCHAR 0508
ENCODING 1288
SWIDTH 600 0
DWIDTH 10 0
BBX 10 12 0 0
BITMAP
3E00
2600
2600
2600
26C0
26C0
26C0
26C0
26C0
26C0
6680
C380
ENDCHAR
STARTCHAR 0509
ENCODING 1289
SWIDTH 600 0
DWIDTH 10 0
BBX 10 9 0 0
BITMAP
3C00
2400
2480
2480
24C0
24C0
6480
6480
C700
ENDCHAR
STARTCHAR 050A
ENCODING 1290
SWIDTH 600 0
DWIDTH 10 0
BBX 9 12 1 0
BITMAP
8800
8800
8800
8800
8900
F900
F980
8980
8980
8980
8D00
8700
ENDCHAR
STARTCHAR 050B
ENCODING 1291
SWIDTH 600 0
DWIDTH 10 0
BBX 9 9 1 0
BITMAP
C800
C800
C900
C900
F980
C980
C900
C900
CE00
ENDCHAR
STARTCHAR 050C
ENCODING 1292
SWIDTH 600 0
DWIDTH 10 0
BBX 8 12 1 0
BITMAP
3E
62
40
C0
C0
C1
C1
C1
C1
41
63
3E
ENDCHAR
STARTCHAR 050D
ENCODING 1293
SWIDTH 600 0
DWIDTH 10 0
BBX 8 9 1 0
BITMAP
3E
62
40
C0
C2
C1
41
63
3E
ENDCHAR
STARTCHAR 050E
ENCODING 1294
SWIDTH 600 0
DWIDTH 10 0
BBX 9 12 1 0
BITMAP
FE00
1000
1000
1000
1100
1100
1180
1180
1180
1100
1B00
1E00
ENDCHAR
STARTCHAR 050F
ENCODING 1295
SWIDTH 600 0
DWIDTH 10 0
BBX 8 9 1 0
BITMAP
FE
30
30
33
31
31
31
13
1E
ENDCHAR
STARTCHAR 0510
ENCODING 1296
SWIDTH 600 0
DWIDTH 10 0
BBX 8 12 1 0
BITMAP
7E
C3
C1
C0
C0
7C
70
C0
80
C1
E3
3E
ENDCHAR
STARTCHAR 0511
ENCODING 1297
SWIDTH 600 0
DWIDTH 10 0
BBX 8 9 1 0
BITMAP
7E
43
C1
40
3C
C0
C1
C3
7E
ENDCHAR
STARTCHAR 0512
ENCODING 1298
SWIDTH 600 0
DWIDTH 10 0
BBX 11 16 0 -4
BITMAP
3F80
3180
3180
3180
3180
3180
3180
3180
3180
3180
6180
C1E0
0060
0040
01C0
0180
ENDCHAR
STARTCHAR 0513
ENCODING 1299
SWIDTH 600 0
DWIDTH 10 0
BBX 11 13 0 -4
BITMAP
3F80
3180
3180
3180
3180
3180
3180
6180
E1E0
0060
0040
01C0
0180
ENDCHAR
STARTCHAR 1E00
ENCODING 7680
SWIDTH 600 0
DWIDTH 10 0
BBX 9 15 1 -3
BITMAP
1800
1800
1C00
3400
3400
2600
6600
6200
7F00
C300
C100
8180
0000
1800
1800
ENDCHAR
STARTCHAR 1E01
ENCODING 7681
SWIDTH 600 0
DWIDTH 10 0
BBX 8 12 1 -3
BITMAP
3C
66
C3
03
7F
C3
C3
C7
7F
00
18
18
ENDCHAR
STARTCHAR 1E3E
ENCODING 7742
SWIDTH 600 0
DWIDTH 10 0
BBX 8 15 1 0
BITMAP
0E
18
00
C3
E3
E7
E5
F5
DD
D9
D9
C9
C1
C1
C1
ENDCHAR
STARTCHAR 1E3F
ENCODING 7743
SWIDTH 600 0
DWIDTH 10 0
BBX 8 12 1 0
BITMAP
0E
18
00
F7
99
99
99
99
99
99
99
99
ENDCHAR
STARTCHAR 1E80
ENCODING 7808
SWIDTH 600 0
DWIDTH 10 0
BBX 9 15 1 0
BITMAP
7000
1800
0000
9980
9980
9900
9D00
DD00
D500
F500
6500
6700
6700
6300
6200
ENDCHAR
STARTCHAR 1E81
ENCODING 7809
SWIDTH 600 0
DWIDTH 10 0
BBX 10 12 0 0
BITMAP
3800
0C00
0000
C4C0
4CC0
4C80
4E80
6A80
3280
3380
3300
3100
ENDCHAR
STARTCHAR 1E82
ENCODING 7810
SWIDTH 600 0
DWIDTH 10 0
BBX 9 15 1 0
BITMAP
0E00
1800
0000
9980
9980
9900
9D00
DD00
D500
F500
6500
6700
6700
6300
6200
ENDCHAR
STARTCHAR 1E83
ENCODING 7811
SWIDTH 600 0
DWIDTH 10 0
BBX 10 12 0 0
BITMAP
0700
0C00
0000
C4C0
4CC0
4C80
4E80
6A80
3280
3380
3300
3100
ENDCHAR
STARTCHAR 1E84
ENCODING 7812
SWIDTH 600 0
DWIDTH 10 0
BBX 9 15 1 0
BITMAP
6600
0400
0000
9980
9980
9900
9D00
DD00
D500
F500
6500
6700
6700
6300
6200
ENDCHAR
STARTCHAR 1E85
ENCODING 7813
SWIDTH 600 0
DWIDTH 10 0
BBX 10 12 0 0
BITMAP
3300
0200
0000
C4C0
4CC0
4C80
4E80
6A80
3280
3380
3300
3100
ENDCHAR
STARTCHAR 1EA0
ENCODING 7840
SWIDTH 600 0
DWIDTH 10 0
BBX 9 15 1 -3
BITMAP
1800
1800
1C00
3400
3400
2600
6600
6200
7F00
C300
C100
8180
0000
1800
1800
ENDCHAR
STARTCHAR 1EA1
ENCODING 7841
SWIDTH 600 0
DWIDTH 10 0
BBX 8 12 1 -3
BITMAP
3C
66
C3
03
7F
C3
C3
C7
7F
00
18
18
ENDCHAR
STARTCHAR 1EA2
ENCODING 7842
SWIDTH 600 0
DWIDTH 10 0
BBX 9 17 1 0
BITMAP
1800
0400
0C00
0800
0000
1800
1800
1C00
3400
3400
2600
6600
6200
7F00
C300
C100
8180
ENDCHAR
STARTCHAR 1EA3
ENCODING 7843
SWIDTH 600 0
DWIDTH 10 0
BBX 8 14 1 0
BITMAP
18
04
0C
08
00
3C
66
C3
03
7F
C3
C3
C7
7F
ENDCHAR
STARTCHAR 1EA4
ENCODING 7844
SWIDTH 600 0
DWIDTH 10 0
BBX 10 17 1 0
BITMAP
00C0
0900
3C00
6200
0000
1800
1800
1C00
3400
3400
2600
6600
6200
7F00
C300
C100
8180
ENDCHAR
STARTCHAR 1EA5
ENCODING 7845
SWIDTH 600 0
DWIDTH 10 0
BBX 10 14 1 0
BITMAP
00C0
0900
3C00
6200
0000
3C00
6600
C300
0300
7F00
C300
C300
C700
7F00
ENDCHAR
STARTCHAR 1EA6
ENCODING 7846
SWIDTH 600 0
DWIDTH 10 0
BBX 10 17 0 0
BITMAP
C000
6400
0A00
3100
0000
0C00
0C00
0E00
1A00
1A00
1300
3300
3100
3F80
6180
6080
40C0
ENDCHAR
STARTCHAR 1EA7
ENCODING 7847
SWIDTH 600 0
DWIDTH 10 0
BBX 9 14 0 0
BITMAP
C000
6400
0A00
3100
0000
1E00
3300
6180
0180
3F80
6180
6180
6380
3F80
ENDCHAR
STARTCHAR 1EA8
ENCODING 7848
SWIDTH 600 0
DWIDTH 10 0
BBX 9 17 1 0
BITMAP
0180
1980
3400
6200
0000
1800
1800
1C00
3400
3400
2600
6600
6200
7F00
C300
C100
8180
ENDCHAR
STARTCHAR 1EA9
ENCODING 7849
SWIDTH 600 0
DWIDTH 10 0
BBX 9 14 1 0
BITMAP
0180
1980
3400
6200
0000
3C00
6600
C300
0300
7F00
C300
C300
C700
7F00
ENDCHAR
STARTCHAR 1EAA
ENCODING 7850
SWIDTH 600 0
DWIDTH 10 0
BBX 9 18 1 0
BITMAP
1200
2C00
0800
1400
6200
0000
1800
1800
1C00
3400
3400
2600
6600
6200
7F00
C300
C100
8180
ENDCHAR
STARTCHAR 1EAB
ENCODING 7851
SWIDTH 600 0
DWIDTH 10 0
BBX 8 15 1 0
BITMAP
12
2C
08
14
62
00
3C
66
C3
03
7F
C3
C3
C7
7F
ENDCHAR
STARTCHAR 1EAC
ENCODING 7852
SWIDTH 600 0
DWIDTH 10 0
BBX 9 19 1 -3
BITMAP
0800
1C00
2600
0000
1800
1800
1C00
3400
3400
2600
6600
6200
7F00
C300
C100
8180
0000
1800
1800
ENDCHAR
STARTCHAR 1EAD
ENCODING 7853
SWIDTH 600 0
DWIDTH 10 0
BBX 8 16 1 -3
BITMAP
08
1C
26
00
3C
66
C3
03
7F
C3
C3
C7
7F
00
18
18
ENDCHAR
STARTCHAR 1EAE
ENCODING 7854
SWIDTH 600 0
DWIDTH 10 0
BBX 9 17 1 0
BITMAP
0C00
0800
2600
1800
0000
1800
1800
1C00
3400
3400
2600
6600
6200
7F00
C300
C100
8180
ENDCHAR
STARTCHAR 1EAF
ENCODING 7855
SWIDTH 600 0
DWIDTH 10 0
BBX 8 14 1 0
BITMAP
0C
08
26
18
00
3C
66
C3
03
7F
C3
C3
C7
7F
ENDCHAR
STARTCHAR 1EB0
ENCODING 7856
SWIDTH 600 0
DWIDTH 10 0
BBX 9 17 1 0
BITMAP
3000
0800
2600
1800
0000
1800
1800
1C00
3400
3400
2600
6600
6200
7F00
C300
C100
8180
ENDCHAR
STARTCHAR 1EB1
ENCODING 7857
SWIDTH 600 0
DWIDTH 10 0
BBX 8 14 1 0
BITMAP
30
08
26
18
00
3C
66
C3
03
7F
C3
C3
C7
7F
ENDCHAR
STARTCHAR 1EB2
ENCODING 7858
SWIDTH 600 0
DWIDTH 10 0
BBX 9 18 1 0
BITMAP
1800
0400
0800
2600
1800
0000
1800
1800
1C00
3400
3400
2600
6600
6200
7F00
C300
C100
8180
ENDCHAR
STARTCHAR 1EB3
ENCODING 7859
SWIDTH 600 0
DWIDTH 10 0
BBX 8 15 1 0
BITMAP
18
04
08
26
18
00
3C
66
C3
03
7F
C3
C3
C7
7F
ENDCHAR
STARTCHAR 1EB4
ENCODING 7860
SWIDTH 600 0
DWIDTH 10 0
BBX 9 17 1 0
BITMAP
3E00
0000
3200
1C00
0000
1800
1800
1C00
3400
3400
2600
6600
6200
7F00
C300
C100
8180
ENDCHAR
STARTCHAR 1EB5
ENCODING 7861
SWIDTH 600 0
DWIDTH 10 0
BBX 8 14 1 0
BITMAP
3E
00
32
1C
00
3C
66
C3
03
7F
C3
C3
C7
7F
ENDCHAR
STARTCHAR 1EB6
ENCODING 7862
SWIDTH 600 0
DWIDTH 10 0
BBX 9 18 1 -3
BITMAP
2600
3C00
0000
1800
1800
1C00
3400
3400
2600
6600
6200
7F00
C300
C100
8180
0000
1800
1800
ENDCHAR
STARTCHAR 1EB7
ENCODING 7863
SWIDTH 600 0
DWIDTH 10 0
BBX 8 16 1 -3
BITMAP
26
3C
00
00
3C
66
C3
03
7F
C3
C3
C7
7F
00
18
18
ENDCHAR
STARTCHAR 1EB8
ENCODING 7864
SWIDTH 600 0
DWIDTH 10 0
BBX 7 15 2 -3
BITMAP
FE
80
80
80
80
FC
80
80
80
80
80
FE
00
30
30
ENDCHAR
STARTCHAR 1EB9
ENCODING 7865
SWIDTH 600 0
DWIDTH 10 0
BBX 8 12 1 -3
BITMAP
3C
62
C3
C1
FF
C0
C0
63
3E
00
18
18
ENDCHAR
STARTCHAR 1EBA
ENCODING 7866
SWIDTH 600 0
DWIDTH 10 0
BBX 7 17 2 0
BITMAP
30
08
18
10
00
FE
80
80
80
80
FC
80
80
80
80
80
FE
ENDCHAR
STARTCHAR 1EBB
ENCODING 7867
SWIDTH 600 0
DWIDTH 10 0
BBX 8 14 1 0
BITMAP
18
04
0C
08
00
3C
62
C3
C1
FF
C0
C0
63
3E
ENDCHAR
STARTCHAR 1EBC
ENCODING 7868
SWIDTH 600 0
DWIDTH 10 0
BBX 7 16 2 0
BITMAP
04
FC
80
00
FE
80
80
80
80
FC
80
80
80
80
80
FE
ENDCHAR
STARTCHAR 1EBD
ENCODING 7869
SWIDTH 600 0
DWIDTH 10 0
BBX 8 13 1 0
BITMAP
02
7E
40
00
3C
62
C3
C1
FF
C0
C0
63
3E
ENDCHAR
STARTCHAR 1EBE
ENCODING 7870
SWIDTH 600 0
DWIDTH 10 0
BBX 9 17 2 0
BITMAP
0180
1200
7800
C400
0000
FE00
8000
8000
8000
8000
FC00
8000
8000
8000
8000
8000
FE00
ENDCHAR
STARTCHAR 1EBF
ENCODING 7871
SWIDTH 600 0
DWIDTH 10 0
BBX 10 14 1 0
BITMAP
00C0
0900
3C00
6200
0000
3C00
6200
C300
C100
FF00
C000
C000
6300
3E00
ENDCHAR
STARTCHAR 1EC0
ENCODING 7872
SWIDTH 600 0
DWIDTH 10 0
BBX 9 17 0 0
BITMAP
C000
6400
0A00
3100
0000
3F80
2000
2000
2000
2000
3F00
2000
2000
2000
2000
2000
3F80
ENDCHAR
STARTCHAR 1EC1
ENCODING 7873
SWIDTH 600 0
DWIDTH 10 0
BBX 9 14 0 0
BITMAP
C000
6400
0A00
3100
0000
1E00
3100
6180
6080
7F80
6000
6000
3180
1F00
ENDCHAR
STARTCHAR 1EC2
ENCODING 7874
SWIDTH 600 0
DWIDTH 10 0
BBX 8 17 2 0
BITMAP
03
33
68
C4
00
FE
80
80
80
80
FC
80
80
80
80
80
FE
ENDCHAR
STARTCHAR 1EC3
ENCODING 7875
SWIDTH 600 0
DWIDTH 10 0
BBX 9 14 1 0
BITMAP
0180
1980
3400
6200
0000
3C00
6200
C300
C100
FF00
C000
C000
6300
3E00
ENDCHAR
STARTCHAR 1EC4
ENCODING 7876
SWIDTH 600 0
DWIDTH 10 0
BBX 7 18 2 0
BITMAP
24
58
10
28
C4
00
FE
80
80
80
80
FC
80
80
80
80
80
FE
ENDCHAR
STARTCHAR 1EC5
ENCODING 7877
SWIDTH 600 0
DWIDTH 10 0
BBX 8 15 1 0
BITMAP
12
2C
08
14
62
00
3C
62
C3
C1
FF
C0
C0
63
3E
ENDCHAR
STARTCHAR 1EC6
ENCODING 7878
SWIDTH 600 0
DWIDTH 10 0
BBX 7 19 2 -3
BITMAP
10
38
4C
00
FE
80
80
80
80
FC
80
80
80
80
80
FE
00
30
30
ENDCHAR
STARTCHAR 1EC7
ENCODING 7879
SWIDTH 600 0
DWIDTH 10 0
BBX 8 16 1 -3
BITMAP
08
1C
26
00
3C
62
C3
C1
FF
C0
C0
63
3E
00
18
18
ENDCHAR
STARTCHAR 1EC8
ENCODING 7880
SWIDTH 600 0
DWIDTH 10 0
BBX 8 17 1 0
BITMAP
18
04
0C
08
00
FF
18
18
18
18
18
18
18
18
18
18
FF
ENDCHAR
STARTCHAR 1EC9
ENCODING 7881
SWIDTH 600 0
DWIDTH 10 0
BBX 7 14 2 0
BITMAP
30
08
18
10
00
F0
10
10
10
10
10
10
10
FE
ENDCHAR
STARTCHAR 1ECA
ENCODING 7882
SWIDTH 600 0
DWIDTH 10 0
BBX 8 15 1 -3
BITMAP
FF
18
18
18
18
18
18
18
18
18
18
FF
00
18
18
ENDCHAR
STARTCHAR 1ECB
ENCODING 7883
SWIDTH 600 0
DWIDTH 10 0
BBX 7 15 2 -3
BITMAP
10
10
00
F0
10
10
10
10
10
10
10
FE
00
18
18
ENDCHAR
STARTCHAR 1ECC
ENCODING 7884
SWIDTH 600 0
DWIDTH 10 0
BBX 8 15 1 -3
BITMAP
3C
66
C3
C1
81
81
81
81
C1
C3
66
3C
00
18
18
ENDCHAR
STARTCHAR 1ECD
ENCODING 7885
SWIDTH 600 0
DWIDTH 10 0
BBX 8 12 1 -3
BITMAP
3C
66
C3
C1
C1
C1
C3
66
3C
00
18
18
ENDCHAR
STARTCHAR 1ECE
ENCODING 7886
SWIDTH 600 0
DWIDTH 10 0
BBX 8 17 1 0
BITMAP
18
04
0C
08
00
3C
66
C3
C1
81
81
81
81
C1
C3
66
3C
ENDCHAR
STARTCHAR 1ECF
ENCODING 7887
SWIDTH 600 0
DWIDTH 10 0
BBX 8 14 1 0
BITMAP
18
04
0C
08
00
3C
66
C3
C1
C1
C1
C3
66
3C
ENDCHAR
STARTCHAR 1ED0
ENCODING 7888
SWIDTH 600 0
DWIDTH 10 0
BBX 10 17 1 0
BITMAP
00C0
0900
3C00
6200
0000
3C00
6600
C300
C100
8100
8100
8100
8100
C100
C300
6600
3C00
ENDCHAR
STARTCHAR 1ED1
ENCODING 7889
SWIDTH 600 0
DWIDTH 10 0
BBX 10 14 1 0
BITMAP
00C0
0900
3C00
6200
0000
3C00
6600
C300
C100
C100
C100
C300
6600
3C00
ENDCHAR
STARTCHAR 1ED2
ENCODING 7890
SWIDTH 600 0
DWIDTH 10 0
BBX 9 17 0 0
BITMAP
C000
6400
0A00
3100
0000
1E00
3300
6180
6080
4080
4080
4080
4080
6080
6180
3300
1E00
ENDCHAR
STARTCHAR 1ED3
ENCODING 7891
SWIDTH 600 0
DWIDTH 10 0
BBX 9 14 0 0
BITMAP
C000
6400
0A00
3100
0000
1E00
3300
6180
6080
6080
6080
6180
3300
1E00
ENDCHAR
STARTCHAR 1ED4
ENCODING 7892
SWIDTH 600 0
DWIDTH 10 0
BBX 9 17 1 0
BITMAP
0180
1980
3400
6200
0000
3C00
6600
C300
C100
8100
8100
8100
8100
C100
C300
6600
3C00
ENDCHAR
STARTCHAR 1ED5
ENCODING 7893
SWIDTH 600 0
DWIDTH 10 0
BBX 9 14 1 0
BITMAP
0180
1980
3400
6200
0000
3C00
6600
C300
C100
C100
C100
C300
6600
3C00
ENDCHAR
STARTCHAR 1ED6
ENCODING 7894
SWIDTH 600 0
DWIDTH 10 0
BBX 8 18 1 0
BITMAP
12
2C
08
14
62
00
3C
66
C3
C1
81
81
81
81
C1
C3
66
3C
ENDCHAR
STARTCHAR 1ED7
ENCODING 7895
SWIDTH 600 0
DWIDTH 10 0
BBX 8 15 1 0
BITMAP
12
2C
08
14
62
00
3C
66
C3
C1
C1
C1
C3
66
3C
ENDCHAR
STARTCHAR 1ED8
ENCODING 7896
SWIDTH 600 0
DWIDTH 10 0
BBX 8 19 1 -3
BITMAP
08
1C
26
00
3C
66
C3
C1
81
81
81
81
C1
C3
66
3C
00
18
18
ENDCHAR
STARTCHAR 1ED9
ENCODING 7897
SWIDTH 600 0
DWIDTH 10 0
BBX 8 16 1 -3
BITMAP
08
1C
26
00
3C
66
C3
C1
C1
C1
C3
66
3C
00
18
18
ENDCHAR
STARTCHAR 1EDA
ENCODING 7898
SWIDTH 600 0
DWIDTH 10 0
BBX 9 15 1 0
BITMAP
0E00
1800
0080
3C80
6700
C300
C100
8100
8100
8100
8100
C100
C300
6600
3C00
ENDCHAR
STARTCHAR 1EDB
ENCODING 7899
SWIDTH 600 0
DWIDTH 10 0
BBX 9 12 1 0
BITMAP
0E00
1800
0080
3D80
6700
C300
C100
C100
C100
C300
6600
3C00
ENDCHAR
STARTCHAR 1EDC
ENCODING 7900
SWIDTH 600 0
DWIDTH 10 0
BBX 9 15 1 0
BITMAP
7000
1800
0080
3C80
6700
C300
C100
8100
8100
8100
8100
C100
C300
6600
3C00
ENDCHAR
STARTCHAR 1EDD
ENCODING 7901
SWIDTH 600 0
DWIDTH 10 0
BBX 9 12 1 0
BITMAP
7000
1800
0080
3D80
6700
C300
C100
C100
C100
C300
6600
3C00
ENDCHAR
STARTCHAR 1EDE
ENCODING 7902
SWIDTH 600 0
DWIDTH 10 0
BBX 9 17 1 0
BITMAP
1800
0400
0C00
0800
0080
3C80
6700
C300
C100
8100
8100
8100
8100
C100
C300
6600
3C00
ENDCHAR
STARTCHAR 1EDF
ENCODING 7903
SWIDTH 600 0
DWIDTH 10 0
BBX 9 14 1 0
BITMAP
1800
0400
0C00
0800
0080
3D80
6700
C300
C100
C100
C100
C300
6600
3C00
ENDCHAR
STARTCHAR 1EE0
ENCODING 7904
SWIDTH 600 0
DWIDTH 10 0
BBX 9 16 1 0
BITMAP
0200
7E00
4000
0080
3C80
6700
C300
C100
8100
8100
8100
8100
C100
C300
6600
3C00
ENDCHAR
STARTCHAR 1EE1
ENCODING 7905
SWIDTH 600 0
DWIDTH 10 0
BBX 9 13 1 0
BITMAP
0200
7E00
4000
0080
3D80
6700
C300
C100
C100
C100
C300
6600
3C00
ENDCHAR
STARTCHAR 1EE2
ENCODING 7906
SWIDTH 600 0
DWIDTH 10 0
BBX 9 16 1 -3
BITMAP
0080
3C80
6700
C300
C100
8100
8100
8100
8100
C100
C300
6600
3C00
0000
1800
1800
ENDCHAR
STARTCHAR 1EE3
ENCODING 7907
SWIDTH 600 0
DWIDTH 10 0
BBX 9 13 1 -3
BITMAP
0080
3D80
6700
C300
C100
C100
C100
C300
6600
3C00
0000
1800
1800
ENDCHAR
STARTCHAR 1EE4
ENCODING 7908
SWIDTH 600 0
DWIDTH 10 0
BBX 8 15 1 -3
BITMAP
C1
C1
C1
C1
C1
C1
C1
C1
C3
C3
66
3C
00
18
18
ENDCHAR
STARTCHAR 1EE5
ENCODING 7909
SWIDTH 600 0
DWIDTH 10 0
BBX 7 12 2 -3
BITMAP
86
86
86
86
86
86
86
CE
7E
00
30
30
ENDCHAR
STARTCHAR 1EE6
ENCODING 7910
SWIDTH 600 0
DWIDTH 10 0
BBX 8 17 1 0
BITMAP
18
04
0C
08
00
C1
C1
C1
C1
C1
C1
C1
C1
C3
C3
66
3C
ENDCHAR
STARTCHAR 1EE7
ENCODING 7911
SWIDTH 600 0
DWIDTH 10 0
BBX 7 14 2 0
BITMAP
30
08
18
10
00
86
86
86
86
86
86
86
CE
7E
ENDCHAR
STARTCHAR 1EE8
ENCODING 7912
SWIDTH 600 0
DWIDTH 10 0
BBX 11 15 1 0
BITMAP
0E00
1800
0060
C160
C1C0
C180
C100
C100
C100
C100
C100
C300
C300
6600
3C00
ENDCHAR
STARTCHAR 1EE9
ENCODING 7913
SWIDTH 600 0
DWIDTH 10 0
BBX 9 12 2 0
BITMAP
1C00
3000
0080
8680
8780
8600
8600
8600
8600
8600
CE00
7E00
ENDCHAR
STARTCHAR 1EEA
ENCODING 7914
SWIDTH 600 0
DWIDTH 10 0
BBX 11 15 1 0
BITMAP
7000
1800
0060
C160
C1C0
C180
C100
C100
C100
C100
C100
C300
C300
6600
3C00
ENDCHAR
STARTCHAR 1EEB
ENCODING 7915
SWIDTH 600 0
DWIDTH 10 0
BBX 9 12 2 0
BITMAP
E000
3000
0080
8680
8780
8600
8600
8600
8600
8600
CE00
7E00
ENDCHAR
STARTCHAR 1EEC
ENCODING 7916
SWIDTH 600 0
DWIDTH 10 0
BBX 11 17 1 0
BITMAP
1800
0400
0C00
0800
0060
C160
C1C0
C180
C100
C100
C100
C100
C100
C300
C300
6600
3C00
ENDCHAR
STARTCHAR 1EED
ENCODING 7917
SWIDTH 600 0
DWIDTH 10 0
BBX 9 14 2 0
BITMAP
3000
0800
1800
1000
0080
8680
8780
8600
8600
8600
8600
8600
CE00
7E00
ENDCHAR
STARTCHAR 1EEE
ENCODING 7918
SWIDTH 600 0
DWIDTH 10 0
BBX 11 16 1 0
BITMAP
0200
7E00
4000
0060
C160
C1C0
C180
C100
C100
C100
C100
C100
C300
C300
6600
3C00
ENDCHAR
STARTCHAR 1EEF
ENCODING 7919
SWIDTH 600 0
DWIDTH 10 0
BBX 9 13 2 0
BITMAP
0400
FC00
8000
0080
8680
8780
8600
8600
8600
8600
8600
CE00
7E00
ENDCHAR
STARTCHAR 1EF0
ENCODING 7920
SWIDTH 600 0
DWIDTH 10 0
BBX 11 16 1 -3
BITMAP
0060
C160
C1C0
C180
C100
C100
C100
C100
C100
C300
C300
6600
3C00
0000
1800
1800
ENDCHAR
STARTCHAR 1EF1
ENCODING 7921
SWIDTH 600 0
DWIDTH 10 0
BBX 9 13 2 -3
BITMAP
0080
8680
8780
8600
8600
8600
8600
8600
CE00
7E00
0000
3000
3000
ENDCHAR
STARTCHAR 1EF2
ENCODING 7922
SWIDTH 600 0
DWIDTH 10 0
BBX 9 15 1 0
BITMAP
7000
1800
0080
C300
C300
4200
6600
2400
3C00
1800
1800
1800
1800
1800
1800
ENDCHAR
STARTCHAR 1EF3
ENCODING 7923
SWIDTH 600 0
DWIDTH 10 0
BBX 9 16 1 -4
BITMAP
7000
1800
0000
8180
C300
4300
6600
2600
3400
3C00
1800
1800
1000
3000
E000
C000
ENDCHAR
STARTCHAR 1EF4
ENCODING 7924
SWIDTH 600 0
DWIDTH 10 0
BBX 9 15 1 -3
BITMAP
C380
C300
4200
6600
2400
3C00
1800
1800
1800
1800
1800
1800
0000
1800
1800
ENDCHAR
STARTCHAR 1EF5
ENCODING 7925
SWIDTH 600 0
DWIDTH 10 0
BBX 9 13 1 -4
BITMAP
8180
C300
4300
6600
2600
3400
3C00
1800
1800
1000
3000
E600
C600
ENDCHAR
STARTCHAR 1EF6
ENCODING 7926
SWIDTH 600 0
DWIDTH 10 0
BBX 9 17 1 0
BITMAP
1800
0400
0C00
0800
0080
C300
C300
4200
6600
2400
3C00
1800
1800
1800
1800
1800
1800
ENDCHAR
STARTCHAR 1EF7
ENCODING 7927
SWIDTH 600 0
DWIDTH 10 0
BBX 9 18 1 -4
BITMAP
1800
0400
0C00
0800
0000
8180
C300
4300
6600
2600
3400
3C00
1800
1800
1000
3000
E000
C000
ENDCHAR
STARTCHAR 1EF8
ENCODING 7928
SWIDTH 600 0
DWIDTH 10 0
BBX 9 16 1 0
BITMAP
0200
7E00
4000
0080
C300
C300
4200
6600
2400
3C00
1800
1800
1800
1800
1800
1800
ENDCHAR
STARTCHAR 1EF9
ENCODING 7929
SWIDTH 600 0
DWIDTH 10 0
BBX 9 17 1 -4
BITMAP
0200
7E00
4000
0000
8180
C300
4300
6600
2600
3400
3C00
1800
1800
1000
3000
E000
C000
ENDCHAR
STARTCHAR 1F4D
ENCODING 8013
SWIDTH 600 0
DWIDTH 10 0
BBX 10 13 -1 0
BITMAP
F000
AF00
1980
30C0
3040
2040
2040
2040
2040
3040
30C0
1980
0F00
ENDCHAR
STARTCHAR 2000
ENCODING 8192
SWIDTH 600 0
DWIDTH 10 0
BBX 0 0 0 0
BITMAP
ENDCHAR
STARTCHAR 2001
ENCODING 8193
SWIDTH 600 0
DWIDTH 10 0
BBX 0 0 0 0
BITMAP
ENDCHAR
STARTCHAR 2002
ENCODING 8194
SWIDTH 600 0
DWIDTH 10 0
BBX 0 0 0 0
BITMAP
ENDCHAR
STARTCHAR 2003
ENCODING 8195
SWIDTH 600 0
DWIDTH 10 0
BBX 0 0 0 0
BITMAP
ENDCHAR
STARTCHAR 2004
ENCODING 8196
SWIDTH 600 0
DWIDTH 10 0
BBX 0 0 0 0
BITMAP
ENDCHAR
STARTCHAR 2005
ENCODING 8197
SWIDTH 600 0
DWIDTH 10 0
BBX 0 0 0 0
BITMAP
ENDCHAR
STARTCHAR 2006
ENCODING 8198
SWIDTH 600 0
DWIDTH 10 0
BBX 0 0 0 0
BITMAP
ENDCHAR
STARTCHAR 2007
ENCODING 8199
SWIDTH 600 0
DWIDTH 10 0
BBX 0 0 0 0
BITMAP
ENDCHAR
STARTCHAR 2008
ENCODING 8200
SWIDTH 600 0
DWIDTH 10 0
BBX 0 0 0 0
BITMAP
ENDCHAR
STARTCHAR 2009
ENCODING 8201
SWIDTH 600 0
DWIDTH 10 0
BBX 0 0 0 0
BITMAP
ENDCHAR
STARTCHAR 200A
ENCODING 8202
SWIDTH 600 0
DWIDTH 10 0
BBX 0 0 0 0
BITMAP
ENDCHAR
STARTCHAR 200B
ENCODING 8203
SWIDTH 600 0
DWIDTH 10 0
BBX 0 0 0 0
BITMAP
ENDCHAR
STARTCHAR 2013
ENCODING 8211
SWIDTH 600 0
DWIDTH 10 0
BBX 9 2 1 5
BITMAP
FF80
FF80
ENDCHAR
STARTCHAR 2014
ENCODING 8212
SWIDTH 600 0
DWIDTH 10 0
BBX 9 2 1 5
BITMAP
FF80
FF80
ENDCHAR
STARTCHAR 2015
ENCODING 8213
SWIDTH 600 0
DWIDTH 10 0
BBX 9 2 1 5
BITMAP
FF80
FF80
ENDCHAR
STARTCHAR 2017
ENCODING 8215
SWIDTH 600 0
DWIDTH 10 0
BBX 8 3 1 -3
BITMAP
FF
00
FF
ENDCHAR
STARTCHAR 2018
ENCODING 8216
SWIDTH 600 0
DWIDTH 10 0
BBX 2 4 4 9
BITMAP
40
C0
C0
C0
ENDCHAR
STARTCHAR 2019
ENCODING 8217
SWIDTH 600 0
DWIDTH 10 0
BBX 2 4 4 9
BITMAP
40
40
C0
80
ENDCHAR
STARTCHAR 201A
ENCODING 8218
SWIDTH 600 0
DWIDTH 10 0
BBX 2 5 4 -3
BITMAP
C0
C0
C0
80
80
ENDCHAR
STARTCHAR 201B
ENCODING 8219
SWIDTH 600 0
DWIDTH 10 0
BBX 2 4 4 9
BITMAP
80
80
80
40
ENDCHAR
STARTCHAR 201C
ENCODING 8220
SWIDTH 600 0
DWIDTH 10 0
BBX 4 4 3 9
BITMAP
50
F0
F0
F0
ENDCHAR
STARTCHAR 201D
ENCODING 8221
SWIDTH 600 0
DWIDTH 10 0
BBX 4 4 3 9
BITMAP
50
50
F0
A0
ENDCHAR
STARTCHAR 201E
ENCODING 8222
SWIDTH 600 0
DWIDTH 10 0
BBX 4 5 3 -3
BITMAP
D0
D0
D0
B0
A0
ENDCHAR
STARTCHAR 2020
ENCODING 8224
SWIDTH 600 0
DWIDTH 10 0
BBX 8 12 1 0
BITMAP
18
18
18
FF
18
18
18
18
18
18
18
18
ENDCHAR
STARTCHAR 2021
ENCODING 8225
SWIDTH 600 0
DWIDTH 10 0
BBX 8 15 1 -3
BITMAP
18
18
18
FF
18
18
18
18
18
18
18
FF
18
18
18
ENDCHAR
STARTCHAR 2022
ENCODING 8226
SWIDTH 600 0
DWIDTH 10 0
BBX 4 4 3 4
BITMAP
70
F0
F0
20
ENDCHAR
STARTCHAR 2025
ENCODING 8229
SWIDTH 600 0
DWIDTH 10 0
BBX 6 2 3 0
BITMAP
FC
D8
ENDCHAR
STARTCHAR 2026
ENCODING 8230
SWIDTH 600 0
DWIDTH 10 0
BBX 9 2 2 0
BITMAP
FF80
DB00
ENDCHAR
STARTCHAR 2030
ENCODING 8240
SWIDTH 600 0
DWIDTH 10 0
BBX 10 12 0 0
BITMAP
7000
5000
D900
5200
6400
1800
3000
4D80
12C0
1240
1240
1F80
ENDCHAR
STARTCHAR 2032
ENCODING 8242
SWIDTH 600 0
DWIDTH 10 0
BBX 1 4 4 9
BITMAP
80
80
80
80
ENDCHAR
STARTCHAR 2033
ENCODING 8243
SWIDTH 600 0
DWIDTH 10 0
BBX 4 4 3 9
BITMAP
90
90
90
90
ENDCHAR
STARTCHAR 2039
ENCODING 8249
SWIDTH 600 0
DWIDTH 10 0
BBX 4 7 3 1
BITMAP
30
20
40
C0
40
20
10
ENDCHAR
STARTCHAR 203A
ENCODING 8250
SWIDTH 600 0
DWIDTH 10 0
BBX 4 7 3 1
BITMAP
C0
60
20
30
20
40
C0
ENDCHAR
STARTCHAR 203C
ENCODING 8252
SWIDTH 600 0
DWIDTH 10 0
BBX 8 12 1 0
BITMAP
C3
C3
C3
C3
C3
C3
C3
C3
00
00
C3
C3
ENDCHAR
STARTCHAR 2044
ENCODING 8260
SWIDTH 600 0
DWIDTH 10 0
BBX 6 8 2 2
BITMAP
0C
08
18
10
20
20
40
C0
ENDCHAR
STARTCHAR 2074
ENCODING 8308
SWIDTH 600 0
DWIDTH 10 0
BBX 7 7 2 5
BITMAP
08
18
28
68
48
FE
08
ENDCHAR
STARTCHAR 207F
ENCODING 8319
SWIDTH 600 0
DWIDTH 10 0
BBX 5 7 3 5
BITMAP
F8
98
88
88
88
88
88
ENDCHAR
STARTCHAR 20A3
ENCODING 8355
SWIDTH 600 0
DWIDTH 10 0
BBX 8 12 1 0
BITMAP
7F
40
40
40
40
7E
7E
40
F8
F8
40
40
ENDCHAR
STARTCHAR 20A4
ENCODING 8356
SWIDTH 600 0
DWIDTH 10 0
BBX 8 12 1 0
BITMAP
3E
23
61
60
60
FC
60
FC
60
60
40
FF
ENDCHAR
STARTCHAR 20A7
ENCODING 8359
SWIDTH 600 0
DWIDTH 10 0
BBX 9 12 1 0
BITMAP
F000
DA00
DA00
CF80
DA00
DA00
F200
C200
C200
C200
C300
C380
ENDCHAR
STARTCHAR 20AB
ENCODING 8363
SWIDTH 600 0
DWIDTH 10 0
BBX 10 15 1 -2
BITMAP
0300
07C0
07C0
0300
3F00
6700
C300
C300
C300
C300
C300
6700
3F00
0000
FF00
ENDCHAR
STARTCHAR 20AC
ENCODING 8364
SWIDTH 600 0
DWIDTH 10 0
BBX 8 12 1 0
BITMAP
1F
30
20
20
FC
20
FC
3C
20
30
30
1F
ENDCHAR
STARTCHAR 2105
ENCODING 8453
SWIDTH 600 0
DWIDTH 10 0
BBX 9 12 1 0
BITMAP
E000
9000
8200
9400
FC00
0800
1800
1700
3C80
2C80
0580
0700
ENDCHAR
STARTCHAR 2113
ENCODING 8467
SWIDTH 600 0
DWIDTH 10 0
BBX 6 12 2 0
BITMAP
3C
24
24
24
2C
28
38
E0
A0
20
30
18
ENDCHAR
STARTCHAR 2116
ENCODING 8470
SWIDTH 600 0
DWIDTH 10 0
BBX 8 12 1 0
BITMAP
CB
CB
CB
EB
EB
AB
A8
B8
98
98
98
88
ENDCHAR
STARTCHAR 2122
ENCODING 8482
SWIDTH 600 0
DWIDTH 10 0
BBX 8 4 1 8
BITMAP
E9
4B
4F
4D
ENDCHAR
STARTCHAR 2126
ENCODING 8486
SWIDTH 600 0
DWIDTH 10 0
BBX 8 12 1 0
BITMAP
3C
62
C3
81
81
81
81
81
C3
42
34
F7
ENDCHAR
STARTCHAR 212E
ENCODING 8494
SWIDTH 600 0
DWIDTH 10 0
BBX 9 9 1 0
BITMAP
1E00
6100
4100
C180
FF80
C000
4000
4100
3E00
ENDCHAR
STARTCHAR 215B
ENCODING 8539
SWIDTH 600 0
DWIDTH 10 0
BBX 9 12 1 0
BITMAP
4000
C000
4600
4400
4800
4800
1700
1480
2780
6780
0480
0780
ENDCHAR
STARTCHAR 215C
ENCODING 8540
SWIDTH 600 0
DWIDTH 10 0
BBX 10 12 0 0
BITMAP
7000
8800
3100
0A00
CA00
7400
0F80
0A40
1BC0
13C0
0240
03C0
ENDCHAR
STARTCHAR 215D
ENCODING 8541
SWIDTH 600 0
DWIDTH 10 0
BBX 10 12 0 0
BITMAP
7000
4000
F300
1A00
DE00
7400
0B80
0A40
1380
12C0
0240
0380
ENDCHAR
STARTCHAR 215E
ENCODING 8542
SWIDTH 600 0
DWIDTH 10 0
BBX 9 12 1 0
BITMAP
F000
1000
2400
2C00
4800
D800
1700
3480
2700
4580
0C80
0700
ENDCHAR
STARTCHAR 2202
ENCODING 8706
SWIDTH 600 0
DWIDTH 10 0
BBX 8 13 1 0
BITMAP
30
7C
06
03
03
7D
43
C1
C1
C3
C3
66
3C
ENDCHAR
STARTCHAR 2206
ENCODING 8710
SWIDTH 600 0
DWIDTH 10 0
BBX 10 12 0 0
BITMAP
0C00
0E00
0E00
1A00
1300
1300
3100
2180
2180
6080
40C0
FFC0
ENDCHAR
STARTCHAR 220F
ENCODING 8719
SWIDTH 600 0
DWIDTH 10 0
BBX 8 14 1 -2
BITMAP
FF
C3
C3
C3
C3
C3
C3
C3
C3
C3
C3
C3
C3
C3
ENDCHAR
STARTCHAR 2211
ENCODING 8721
SWIDTH 600 0
DWIDTH 10 0
BBX 10 14 0 -2
BITMAP
FF80
6000
2000
3000
1800
0C00
0600
0600
0C00
1800
1000
3000
6000
FFC0
ENDCHAR
STARTCHAR 2212
ENCODING 8722
SWIDTH 600 0
DWIDTH 10 0
BBX 7 2 1 5
BITMAP
FE
FE
ENDCHAR
STARTCHAR 2215
ENCODING 8725
SWIDTH 600 0
DWIDTH 10 0
BBX 7 13 2 -1
BITMAP
06
04
0C
08
18
10
10
30
20
60
40
40
C0
ENDCHAR
STARTCHAR 221A
ENCODING 8730
SWIDTH 600 0
DWIDTH 10 0
BBX 10 12 0 0
BITMAP
00C0
0080
0180
0100
0100
0300
E200
3600
1600
1C00
1C00
0800
ENDCHAR
STARTCHAR 221E
ENCODING 8734
SWIDTH 600 0
DWIDTH 10 0
BBX 10 6 0 2
BITMAP
7380
4C40
8C40
8C40
4CC0
7380
ENDCHAR
STARTCHAR 222B
ENCODING 8747
SWIDTH 600 0
DWIDTH 10 0
BBX 6 17 2 -4
BITMAP
1C
30
30
30
30
30
30
30
30
30
30
30
30
30
30
E0
C0
ENDCHAR
STARTCHAR 2248
ENCODING 8776
SWIDTH 600 0
DWIDTH 10 0
BBX 8 6 1 2
BITMAP
F9
8F
00
71
FF
86
ENDCHAR
STARTCHAR 2260
ENCODING 8800
SWIDTH 600 0
DWIDTH 10 0
BBX 8 7 1 2
BITMAP
04
FF
FF
08
10
FF
20
ENDCHAR
STARTCHAR 2264
ENCODING 8804
SWIDTH 600 0
DWIDTH 10 0
BBX 7 10 2 0
BITMAP
02
1E
70
80
F0
1E
06
00
00
FC
ENDCHAR
STARTCHAR 2265
ENCODING 8805
SWIDTH 600 0
DWIDTH 10 0
BBX 7 10 2 0
BITMAP
80
E0
1C
06
3C
E0
80
00
00
FE
ENDCHAR
STARTCHAR 25CA
ENCODING 9674
SWIDTH 600 0
DWIDTH 10 0
BBX 8 12 1 0
BITMAP
18
1C
24
26
42
C3
C3
62
26
34
1C
18
ENDCHAR
STARTCHAR F6C3
ENCODING 63171
SWIDTH 600 0
DWIDTH 10 0
BBX 2 3 3 -1
BITMAP
C0
80
80
ENDCHAR
STARTCHAR FEFF
ENCODING 65279
SWIDTH 600 0
DWIDTH 10 0
BBX 0 0 0 0
BITMAP
ENDCHAR
STARTCHAR FFFC
ENCODING 65532
SWIDTH 600 0
DWIDTH 10 0
BBX 9 9 1 0
BITMAP
AF80
8080
8080
7900
9980
7F00
8080
8080
AF80
ENDCHAR
STARTCHAR FFFD
ENCODING 65533
SWIDTH 600 0
DWIDTH 10 0
BBX 10 16 0 0
BITMAP
0C00
0C00
1E00
1E00
3300
6180
7D80
F9C0
7B80
7380
3F00
3300
1E00
0C00
0C00
0400
ENDCHAR
ENDFONT
